<svg width="69" height="235" viewBox="0 0 69 235" fill="none" xmlns="http://www.w3.org/2000/svg">
<path d="M49.504 219.574L49.5334 220.574L50.504 220.545L50.504 219.574L49.504 219.574ZM7.008 219.574L6.008 219.574L6.008 220.545L6.97831 220.574L7.008 219.574ZM4.512 234.87L3.512 234.87L3.512 235.87L4.512 235.87L4.512 234.87ZM6.816 234.87L6.816 235.87L7.72574 235.87L7.81154 234.964L6.816 234.87ZM7.392 228.79L7.3722 227.79L6.48057 227.808L6.39646 228.696L7.392 228.79ZM49.184 228.79L50.1795 228.696L50.0955 227.808L49.2042 227.79L49.184 228.79ZM49.76 234.87L48.7645 234.964L48.8503 235.87L49.76 235.87L49.76 234.87ZM52 234.87L52 235.87L53 235.87L53 234.87L52 234.87ZM49.4746 218.574C42.9639 218.766 36.323 218.766 29.024 218.766L29.024 220.766C36.317 220.766 42.9881 220.766 49.5334 220.574L49.4746 218.574ZM29.024 218.766L26.912 218.766L26.912 220.766L29.024 220.766L29.024 218.766ZM26.912 218.766C20.1251 218.766 13.4842 218.766 7.03769 218.574L6.97831 220.574C13.4598 220.766 20.1309 220.766 26.912 220.766L26.912 218.766ZM8.008 219.574L8.008 215.222L6.008 215.222L6.008 219.574L8.008 219.574ZM8.008 215.222C8.008 210.612 9.7537 207.035 13.0677 204.577C16.424 202.088 21.4952 200.67 28.256 200.67L28.256 198.67C21.2568 198.67 15.704 200.132 11.8763 202.971C8.00629 205.841 6.008 210.04 6.008 215.222L8.008 215.222ZM28.256 200.67C34.8196 200.67 39.8914 202.086 43.2974 204.631C46.6632 207.146 48.504 210.837 48.504 215.67L50.504 215.67C50.504 210.263 48.4088 205.954 44.4946 203.029C40.6206 200.134 35.0684 198.67 28.256 198.67L28.256 200.67ZM48.504 215.67L48.504 219.574L50.504 219.574L50.504 215.67L48.504 215.67ZM4.512 235.87L6.816 235.87L6.816 233.87L4.512 233.87L4.512 235.87ZM7.81154 234.964L8.38754 228.884L6.39646 228.696L5.82046 234.776L7.81154 234.964ZM7.4118 229.79C13.8642 229.662 20.3183 229.662 26.912 229.662L26.912 227.662C20.3217 227.662 13.8478 227.662 7.3722 227.79L7.4118 229.79ZM26.912 229.662L29.024 229.662L29.024 227.662L26.912 227.662L26.912 229.662ZM29.024 229.662C36.2582 229.662 42.8398 229.662 49.1638 229.79L49.2042 227.79C42.8562 227.662 36.2538 227.662 29.024 227.662L29.024 229.662ZM48.1885 228.884L48.7645 234.964L50.7555 234.776L50.1795 228.696L48.1885 228.884ZM49.76 235.87L52 235.87L52 233.87L49.76 233.87L49.76 235.87ZM53 234.87L53 215.414L51 215.414L51 234.87L53 234.87ZM53 215.414C53 207.544 50.7189 200.99 46.4181 196.395C42.1095 191.791 35.8749 189.262 28.192 189.262L28.192 191.262C35.421 191.262 41.0905 193.629 44.9579 197.761C48.8331 201.902 51 207.924 51 215.414L53 215.414ZM28.192 189.262C20.5617 189.262 14.3621 191.602 10.0707 195.969C5.78161 200.334 3.512 206.609 3.512 214.262L5.512 214.262C5.512 207.003 7.65838 201.278 11.4973 197.371C15.3339 193.466 20.9743 191.262 28.192 191.262L28.192 189.262ZM3.512 214.262L3.512 234.87L5.512 234.87L5.512 214.262L3.512 214.262ZM32.352 172.467L32.3109 173.467L33.352 173.509L33.352 172.467L32.352 172.467ZM34.72 150.323L35.72 150.323L35.72 149.575L35.0022 149.364L34.72 150.323ZM44.768 150.259L45.2064 149.361L44.4386 148.986L43.9488 149.686L44.768 150.259ZM43.872 151.539L43.0528 150.966L42.4959 151.762L43.2747 152.342L43.872 151.539ZM34.72 172.467L33.72 172.467L33.72 173.494L34.7461 173.467L34.72 172.467ZM32.3931 171.468C27.8213 171.28 24.7136 170.328 22.7794 169.036C20.8813 167.768 20.104 166.177 20.104 164.531L18.104 164.531C18.104 166.918 19.2787 169.103 21.6686 170.699C24.0224 172.271 27.5387 173.271 32.3109 173.467L32.3931 171.468ZM20.104 164.531C20.104 162.89 20.7928 161.512 22.0381 160.522C23.3011 159.519 25.1928 158.875 27.616 158.875L27.616 156.875C24.8552 156.875 22.4909 157.608 20.7939 158.957C19.0792 160.319 18.104 162.269 18.104 164.531L20.104 164.531ZM27.616 158.875C29.2423 158.875 30.1373 159.066 30.634 159.414C31.0274 159.69 31.352 160.205 31.352 161.523L33.352 161.523C33.352 159.898 32.9406 158.589 31.782 157.777C30.7267 157.037 29.2537 156.875 27.616 156.875L27.616 158.875ZM31.352 161.523L31.352 172.467L33.352 172.467L33.352 161.523L31.352 161.523ZM35.0022 149.364C33.7854 149.006 32.463 148.875 30.752 148.875L30.752 150.875C32.369 150.875 33.4786 151.001 34.4378 151.283L35.0022 149.364ZM30.752 148.875C26.499 148.875 22.7323 150.279 20.0233 152.91C17.3095 155.546 15.736 159.336 15.736 163.955L17.736 163.955C17.736 159.807 19.1385 156.557 21.4167 154.345C23.6997 152.128 26.941 150.875 30.752 150.875L30.752 148.875ZM15.736 163.955C15.736 173.424 22.7332 182.363 34.848 182.363L34.848 180.363C23.9227 180.363 17.736 172.407 17.736 163.955L15.736 163.955ZM34.848 182.363C40.8852 182.363 45.7011 180.468 49.0102 177.168C52.3172 173.869 54.024 169.262 54.024 164.019L52.024 164.019C52.024 168.825 50.4668 172.89 47.5978 175.751C44.7309 178.611 40.4588 180.363 34.848 180.363L34.848 182.363ZM54.024 164.019C54.024 157.324 50.8183 152.098 45.2064 149.361L44.3296 151.158C49.2137 153.541 52.024 158.043 52.024 164.019L54.024 164.019ZM43.9488 149.686L43.0528 150.966L44.6912 152.113L45.5872 150.833L43.9488 149.686ZM43.2747 152.342C44.704 153.406 45.8226 154.553 46.5894 155.936C47.3526 157.313 47.8 158.982 47.8 161.139L49.8 161.139C49.8 158.689 49.2874 156.678 48.3386 154.967C47.3934 153.262 46.0479 151.913 44.4693 150.737L43.2747 152.342ZM47.8 161.139C47.8 164.001 46.8199 166.479 44.7707 168.285C42.7043 170.107 39.4386 171.344 34.6939 171.468L34.7461 173.467C39.7933 173.335 43.5677 172.012 46.0933 169.786C48.6361 167.544 49.8 164.486 49.8 161.139L47.8 161.139ZM35.72 172.467L35.72 150.323L33.72 150.323L33.72 172.467L35.72 172.467ZM30.432 127.46L31.3831 127.769L31.3855 127.761L31.3878 127.754L30.432 127.46ZM20.384 122.276L20.1081 121.315L19.686 121.436L19.4896 121.829L20.384 122.276ZM27.296 120.292L27.5719 121.253L28.296 121.045L28.296 120.292L27.296 120.292ZM27.296 117.028L28.296 117.028L28.296 116.085L27.3542 116.03L27.296 117.028ZM19.616 116.58L19.6742 115.582L19.0316 115.544L18.7314 116.114L19.616 116.58ZM37.6 132.004L36.6495 131.693L36.6459 131.704L37.6 132.004ZM38.752 128.484L37.8033 128.168L37.8016 128.173L38.752 128.484ZM49.504 135.396L49.7294 136.37L50.2263 136.255L50.425 135.786L49.504 135.396ZM41.76 137.188L41.5345 136.214L40.76 136.393L40.76 137.188L41.76 137.188ZM41.76 140.9L40.76 140.9L40.76 141.87L41.7292 141.9L41.76 140.9ZM50.08 141.156L50.0492 142.156L50.6739 142.175L50.9649 141.622L50.08 141.156ZM31.456 124.132L30.5073 123.816L30.5036 123.827L30.5002 123.838L31.456 124.132ZM29.4809 127.151C28.6956 129.57 27.9232 130.971 27.1249 131.769C26.3818 132.512 25.5527 132.796 24.416 132.796L24.416 134.796C25.9672 134.796 27.3462 134.376 28.5391 133.183C29.6768 132.045 30.5684 130.278 31.3831 127.769L29.4809 127.151ZM24.416 132.796C23.1309 132.796 22.1316 132.31 21.4305 131.429C20.7088 130.522 20.232 129.103 20.232 127.14L18.232 127.14C18.232 129.401 18.7792 131.31 19.8655 132.675C20.9724 134.066 22.5651 134.796 24.416 134.796L24.416 132.796ZM20.232 127.14C20.232 125.447 20.5761 124.128 21.2784 122.723L19.4896 121.829C18.6559 123.496 18.232 125.121 18.232 127.14L20.232 127.14ZM20.6599 123.237L27.5719 121.253L27.0201 119.331L20.1081 121.315L20.6599 123.237ZM28.296 120.292L28.296 117.028L26.296 117.028L26.296 120.292L28.296 120.292ZM27.3542 116.03L19.6742 115.582L19.5578 117.578L27.2378 118.026L27.3542 116.03ZM18.7314 116.114C16.821 119.737 15.736 123.033 15.736 127.332L17.736 127.332C17.736 123.439 18.699 120.463 20.5006 117.046L18.7314 116.114ZM15.736 127.332C15.736 131.891 16.9681 135.532 19.1101 138.052C21.2627 140.584 24.2674 141.9 27.616 141.9L27.616 139.9C24.8206 139.9 22.3853 138.816 20.6339 136.756C18.8719 134.684 17.736 131.541 17.736 127.332L15.736 127.332ZM27.616 141.9C30.4507 141.9 32.7633 140.963 34.5894 139.244C36.3908 137.549 37.6609 135.148 38.5541 132.304L36.6459 131.704C35.8111 134.364 34.6811 136.411 33.2186 137.788C31.7807 139.141 29.9653 139.9 27.616 139.9L27.616 141.9ZM38.5504 132.315L39.7024 128.795L37.8016 128.173L36.6496 131.693L38.5504 132.315ZM39.7007 128.8C40.5172 126.351 41.32 124.917 42.1574 124.093C42.9414 123.321 43.8216 123.02 45.024 123.02L45.024 121.02C43.4104 121.02 41.9866 121.455 40.7546 122.667C39.576 123.827 38.6508 125.625 37.8033 128.168L39.7007 128.8ZM45.024 123.02C46.4945 123.02 47.5523 123.562 48.2819 124.585C49.0484 125.659 49.528 127.373 49.528 129.828L51.528 129.828C51.528 127.163 51.0156 124.973 49.9101 123.423C48.7677 121.822 47.0735 121.02 45.024 121.02L45.024 123.02ZM49.528 129.828C49.528 131.834 49.225 133.489 48.583 135.006L50.425 135.786C51.191 133.975 51.528 132.046 51.528 129.828L49.528 129.828ZM49.2785 134.422L41.5345 136.214L41.9854 138.162L49.7294 136.37L49.2785 134.422ZM40.76 137.188L40.76 140.9L42.76 140.9L42.76 137.188L40.76 137.188ZM41.7292 141.9L50.0492 142.156L50.1108 140.156L41.7907 139.9L41.7292 141.9ZM50.9649 141.622C52.9543 137.842 54.024 134.099 54.024 129.316L52.024 129.316C52.024 133.749 51.0457 137.174 49.1951 140.69L50.9649 141.622ZM54.024 129.316C54.024 124.466 52.8704 120.562 50.7572 117.846C48.6234 115.104 45.5747 113.66 42.016 113.66L42.016 115.66C44.9853 115.66 47.4406 116.84 49.1788 119.074C50.9376 121.334 52.024 124.758 52.024 129.316L54.024 129.316ZM42.016 113.66C39.3474 113.66 37.022 114.413 35.069 116.124C33.1415 117.813 31.6579 120.364 30.5073 123.816L32.4047 124.448C33.4941 121.18 34.8265 118.995 36.387 117.628C37.922 116.283 39.7566 115.66 42.016 115.66L42.016 113.66ZM30.5002 123.838L29.4762 127.166L31.3878 127.754L32.4118 124.426L30.5002 123.838ZM49.504 93.2795L49.5215 94.2793L50.3935 94.264L50.4969 93.3981L49.504 93.2795ZM27.36 93.4075L27.3472 94.4075L27.36 94.4075L27.36 93.4075ZM17.376 93.2795L17.3888 92.2796L16.8346 92.2725L16.5348 92.7387L17.376 93.2795ZM16.8 94.1755L15.9588 93.6347L15.7157 94.0129L15.8372 94.4458L16.8 94.1755ZM20.448 107.167L19.4852 107.438L19.6901 108.167L20.448 108.167L20.448 107.167ZM22.176 107.167L22.176 108.167L23.0821 108.167L23.1712 107.266L22.176 107.167ZM22.688 101.983L22.648 100.984L21.7784 101.019L21.6928 101.885L22.688 101.983ZM49.44 101.919L50.4325 101.797L50.3262 100.935L49.4575 100.92L49.44 101.919ZM50.016 106.591L49.0235 106.714L49.1317 107.591L50.016 107.591L50.016 106.591ZM52 106.591L52 107.591L53 107.591L53 106.591L52 106.591ZM52 88.9915L53 88.9915L53 87.9915L52 87.9915L52 88.9915ZM50.016 88.9915L50.016 87.9915L49.1283 87.9915L49.023 88.8729L50.016 88.9915ZM10.632 97.8235C10.632 94.6068 8.28395 91.7675 4.89599 91.7675L4.89599 93.7675C7.01203 93.7675 8.63199 95.5362 8.63199 97.8235L10.632 97.8235ZM4.89599 91.7675C1.38003 91.7675 -0.904009 94.6068 -0.904009 97.8235L1.09599 97.8235C1.09599 95.5362 2.65195 93.7675 4.89599 93.7675L4.89599 91.7675ZM-0.904009 97.8235C-0.904009 101.04 1.38003 103.879 4.89599 103.879L4.89599 101.879C2.65195 101.879 1.09599 100.111 1.09599 97.8235L-0.904009 97.8235ZM4.89599 103.879C8.28395 103.879 10.632 101.04 10.632 97.8235L8.63199 97.8235C8.63199 100.111 7.01203 101.879 4.89599 101.879L4.89599 103.879ZM49.4865 92.2796C45.8414 92.3436 40.4718 92.4075 36.96 92.4075L36.96 94.4075C40.4881 94.4075 45.8706 94.3434 49.5215 94.2793L49.4865 92.2796ZM36.96 92.4075L27.36 92.4075L27.36 94.4075L36.96 94.4075L36.96 92.4075ZM27.3728 92.4076L17.3888 92.2796L17.3632 94.2794L27.3472 94.4074L27.3728 92.4076ZM16.5348 92.7387L15.9588 93.6347L17.6412 94.7162L18.2172 93.8202L16.5348 92.7387ZM15.8372 94.4458L19.4852 107.438L21.4108 106.897L17.7628 93.9052L15.8372 94.4458ZM20.448 108.167L22.176 108.167L22.176 106.167L20.448 106.167L20.448 108.167ZM23.1712 107.266L23.6831 102.082L21.6928 101.885L21.1808 107.069L23.1712 107.266ZM22.728 102.983C25.9161 102.855 28.3347 102.791 32.416 102.791L32.416 100.791C28.3053 100.791 25.8599 100.856 22.648 100.984L22.728 102.983ZM32.416 102.791L36.96 102.791L36.96 100.791L32.416 100.791L32.416 102.791ZM36.96 102.791C40.4718 102.791 45.7773 102.855 49.4224 102.919L49.4575 100.92C45.8067 100.856 40.4882 100.791 36.96 100.791L36.96 102.791ZM48.4475 102.042L49.0235 106.714L51.0085 106.469L50.4325 101.797L48.4475 102.042ZM50.016 107.591L52 107.591L52 105.591L50.016 105.591L50.016 107.591ZM53 106.591L53 88.9915L51 88.9915L51 106.591L53 106.591ZM52 87.9915L50.016 87.9915L50.016 89.9915L52 89.9915L52 87.9915ZM49.023 88.8729L48.511 93.1609L50.4969 93.3981L51.0089 89.1101L49.023 88.8729ZM53.216 74.0985L52.2436 73.8651L52.1004 74.4618L52.5675 74.8597L53.216 74.0985ZM17.44 47.0905L17.44 46.0905L16.896 46.0905L16.6004 46.5472L17.44 47.0905ZM16.736 48.1785L15.8964 47.6352L15.6243 48.0558L15.7982 48.5256L16.736 48.1785ZM19.744 56.3065L20.5122 56.9467L20.8827 56.5021L20.6818 55.9594L19.744 56.3065ZM38.368 74.7385L39.119 74.0782L38.1944 73.0267L37.4997 74.2424L38.368 74.7385ZM52.64 75.3145L53.5591 74.9206L52.5816 72.6395L51.7045 74.9611L52.64 75.3145ZM39.072 73.3305L38.1435 72.9591L37.852 73.688L38.4908 74.1442L39.072 73.3305ZM21.536 54.5785L20.5389 54.5018L20.3683 56.7195L22.1404 55.3752L21.536 54.5785ZM22.112 47.0905L23.109 47.1672L23.1919 46.0905L22.112 46.0905L22.112 47.0905ZM37.112 66.4825C37.112 68.0954 36.3847 69.3228 34.99 70.1945C33.5451 71.0975 31.3552 71.6265 28.512 71.6265L28.512 73.6265C31.5568 73.6265 34.1669 73.0675 36.05 71.8905C37.9833 70.6822 39.112 68.8376 39.112 66.4825L37.112 66.4825ZM28.512 71.6265C25.649 71.6265 23.4467 71.054 21.9934 70.1083C20.5822 69.19 19.848 67.9099 19.848 66.2905L17.848 66.2905C17.848 68.6391 18.9698 70.527 20.9026 71.7847C22.7933 73.015 25.423 73.6265 28.512 73.6265L28.512 71.6265ZM19.848 66.2905C19.848 64.7009 20.5684 63.4355 21.95 62.5257C23.3714 61.5896 25.5247 61.0185 28.32 61.0185L28.32 59.0185C25.2913 59.0185 22.7085 59.6314 20.85 60.8553C18.9516 62.1055 17.848 63.9761 17.848 66.2905L19.848 66.2905ZM28.32 61.0185C31.2171 61.0185 33.4505 61.5918 34.9264 62.5526C36.3579 63.4844 37.112 64.7947 37.112 66.4825L39.112 66.4825C39.112 64.0743 37.9781 62.1526 36.0175 60.8764C34.1015 59.6292 31.4389 59.0185 28.32 59.0185L28.32 61.0185ZM54.728 60.5305C54.728 58.3954 55.289 57.1557 56.0132 56.4434C56.7416 55.727 57.795 55.3865 59.104 55.3865L59.104 53.3865C57.469 53.3865 55.8344 53.814 54.6108 55.0176C53.383 56.2252 52.728 58.0575 52.728 60.5305L54.728 60.5305ZM59.104 55.3865C60.6389 55.3865 62.0521 56.1808 63.131 58.0071C64.2305 59.8683 64.952 62.7734 64.952 66.8025L66.952 66.8025C66.952 62.5756 66.2015 59.2727 64.853 56.9899C63.4839 54.6722 61.4731 53.3865 59.104 53.3865L59.104 55.3865ZM64.952 66.8025C64.952 69.5913 64.3516 71.7204 63.3087 73.1269C62.297 74.4913 60.7986 75.2745 58.72 75.2745L58.72 77.2745C61.3774 77.2745 63.495 76.2336 64.9153 74.3181C66.3044 72.4446 66.952 69.8376 66.952 66.8025L64.952 66.8025ZM58.72 75.2745C56.7657 75.2745 55.4518 74.6894 53.8645 73.3372L52.5675 74.8597C54.4362 76.4515 56.1943 77.2745 58.72 77.2745L58.72 75.2745ZM54.1884 74.3319C54.6001 72.6162 54.728 70.9226 54.728 67.9545L52.728 67.9545C52.728 70.8744 52.5998 72.3808 52.2436 73.8651L54.1884 74.3319ZM54.728 67.9545L54.728 60.5305L52.728 60.5305L52.728 67.9545L54.728 67.9545ZM16.6004 46.5472L15.8964 47.6352L17.5756 48.7217L18.2796 47.6337L16.6004 46.5472ZM15.7982 48.5256L18.8062 56.6536L20.6818 55.9594L17.6738 47.8314L15.7982 48.5256ZM18.9758 55.6663C16.8636 58.2009 15.736 61.8447 15.736 66.2905L17.736 66.2905C17.736 62.1603 18.7844 59.0201 20.5122 56.9467L18.9758 55.6663ZM15.736 66.2905C15.736 70.9696 16.9645 74.7151 19.2127 77.3059C21.4744 79.9122 24.6765 81.2425 28.384 81.2425L28.384 79.2425C25.1795 79.2425 22.5576 78.1088 20.7233 75.9951C18.8755 73.8658 17.736 70.6354 17.736 66.2905L15.736 66.2905ZM28.384 81.2425C33.1224 81.2425 36.9928 79.1606 39.2362 75.2346L37.4997 74.2424C35.6472 77.4844 32.4776 79.2425 28.384 79.2425L28.384 81.2425ZM37.617 75.3988C40.9314 79.1681 43.4893 80.9225 46.88 80.9225L46.88 78.9225C44.3827 78.9225 42.3326 77.7328 39.119 74.0782L37.617 75.3988ZM46.88 80.9225C48.5664 80.9225 49.9692 80.4204 51.1019 79.4619C52.2134 78.5214 52.9968 77.1995 53.5755 75.6679L51.7045 74.9611C51.1951 76.3095 50.5705 77.2916 49.8101 77.9351C49.0708 78.5606 48.1376 78.9225 46.88 78.9225L46.88 80.9225ZM51.7208 75.7084C53.7065 80.3416 56.4654 82.8425 60 82.8425L60 80.8425C57.6466 80.8425 55.4135 79.2474 53.5591 74.9206L51.7208 75.7084ZM60 82.8425C62.7315 82.8425 65.2095 81.6532 66.9576 78.9728C68.6684 76.3495 69.64 72.3657 69.64 66.8025L67.64 66.8025C67.64 72.1833 66.6916 75.7195 65.2824 77.8802C63.9105 79.9838 62.0685 80.8425 60 80.8425L60 82.8425ZM69.64 66.8025C69.64 60.3535 68.1351 55.3312 65.6686 51.8917C63.1905 48.436 59.7497 46.6025 56.032 46.6025L56.032 48.6025C59.0343 48.6025 61.8975 50.065 64.0433 53.0573C66.2009 56.0658 67.64 60.6435 67.64 66.8025L69.64 66.8025ZM56.032 46.6025C52.9217 46.6025 50.2466 47.6169 48.3824 49.9837C46.553 52.3064 45.624 55.7837 45.624 60.4665L47.624 60.4665C47.624 55.9973 48.519 53.0426 49.9536 51.2212C51.3534 49.444 53.3823 48.6025 56.032 48.6025L56.032 46.6025ZM45.624 60.4665L45.624 69.8745L47.624 69.8745L47.624 60.4665L45.624 60.4665ZM45.624 69.8745C45.624 71.5933 45.3245 72.5359 44.936 73.04C44.5961 73.481 44.0657 73.7385 43.104 73.7385L43.104 75.7385C44.4463 75.7385 45.6759 75.356 46.52 74.261C47.3155 73.229 47.624 71.7397 47.624 69.8745L45.624 69.8745ZM43.104 73.7385C41.8802 73.7385 40.8632 73.381 39.6532 72.5168L38.4908 74.1442C39.9688 75.2 41.3838 75.7385 43.104 75.7385L43.104 73.7385ZM40.0005 73.7019C40.8214 71.6495 41.288 69.2175 41.288 66.4185L39.288 66.4185C39.288 68.9955 38.8586 71.1714 38.1435 72.9591L40.0005 73.7019ZM41.288 66.4185C41.288 61.7601 40.0055 58.0136 37.6995 55.4183C35.3836 52.8118 32.1226 51.4665 28.384 51.4665L28.384 53.4665C31.6214 53.4665 34.3123 54.6172 36.2044 56.7467C38.1065 58.8874 39.288 62.1168 39.288 66.4185L41.288 66.4185ZM28.384 51.4665C25.5827 51.4665 22.9915 52.2191 20.9316 53.7818L22.1404 55.3752C23.7925 54.1219 25.9373 53.4665 28.384 53.4665L28.384 51.4665ZM22.533 54.6552L23.109 47.1672L21.1149 47.0138L20.5389 54.5018L22.533 54.6552ZM22.112 46.0905L17.44 46.0905L17.44 48.0905L22.112 48.0905L22.112 46.0905ZM49.504 5.057L49.5215 6.05684L50.3951 6.04152L50.4971 5.17384L49.504 5.057ZM23.2 27.137L23.2767 28.134L25.6723 27.9498L23.8533 26.3799L23.2 27.137ZM17.376 27.585L17.2993 26.5879L16.8036 26.6261L16.5348 27.0442L17.376 27.585ZM16.8 28.481L15.9588 27.9402L15.7046 28.3357L15.8469 28.7838L16.8 28.481ZM20.704 40.769L19.7509 41.0718L19.9724 41.769L20.704 41.769L20.704 40.769ZM22.304 40.769L22.304 41.769L23.2078 41.769L23.2989 40.8697L22.304 40.769ZM22.816 35.713L22.7536 34.7149L21.9066 34.7679L21.8211 35.6122L22.816 35.713ZM49.44 35.585L50.4325 35.4626L50.3262 34.6004L49.4575 34.5852L49.44 35.585ZM50.016 40.257L49.0235 40.3794L49.1317 41.257L50.016 41.257L50.016 40.257ZM52 40.257L52 41.257L53 41.257L53 40.257L52 40.257ZM52 22.721L53 22.721L53 21.721L52 21.721L52 22.721ZM50.016 22.721L50.016 21.721L49.1315 21.721L49.0235 22.5988L50.016 22.721ZM49.504 26.881L49.5215 27.8808L50.3904 27.8656L50.4965 27.0032L49.504 26.881ZM25.44 27.009L24.7035 27.6854L25.0006 28.009L25.44 28.009L25.44 27.009ZM49.44 13.761L50.4318 13.6335L50.3236 12.7919L49.4757 12.7616L49.44 13.761ZM50.016 18.241L49.0242 18.3685L49.1363 19.241L50.016 19.241L50.016 18.241ZM52 18.241L52 19.241L53 19.241L53 18.241L52 18.241ZM52 0.704999L53 0.704999L53 -0.295001L52 -0.295001L52 0.704999ZM50.016 0.704999L50.016 -0.295001L49.1267 -0.295001L49.0228 0.588147L50.016 0.704999ZM49.4864 4.05716C45.8413 4.12111 40.5998 4.18499 36.96 4.18499L36.96 6.18499C40.6162 6.18499 45.8707 6.12089 49.5215 6.05684L49.4864 4.05716ZM36.96 4.18499L29.152 4.185L29.152 6.185L36.96 6.18499L36.96 4.18499ZM29.152 4.185C24.7371 4.185 21.367 5.15442 19.0872 7.05726C16.777 8.98546 15.736 11.7453 15.736 14.977L17.736 14.977C17.736 12.1927 18.615 10.0565 20.3688 8.59273C22.1529 7.10357 24.9909 6.185 29.152 6.185L29.152 4.185ZM15.736 14.977C15.736 19.4888 17.7054 23.716 22.5466 27.8941L23.8533 26.3799C19.3506 22.494 17.736 18.7852 17.736 14.977L15.736 14.977ZM23.1233 26.1399L17.2993 26.5879L17.4527 28.582L23.2767 28.134L23.1233 26.1399ZM16.5348 27.0442L15.9588 27.9402L17.6412 29.0218L18.2172 28.1258L16.5348 27.0442ZM15.8469 28.7838L19.7509 41.0718L21.657 40.4662L17.753 28.1782L15.8469 28.7838ZM20.704 41.769L22.304 41.769L22.304 39.769L20.704 39.769L20.704 41.769ZM23.2989 40.8697L23.8109 35.8137L21.8211 35.6122L21.3091 40.6682L23.2989 40.8697ZM22.8784 36.7111C25.9244 36.5207 28.2068 36.457 32.352 36.457L32.352 34.457C28.1771 34.457 25.8516 34.5213 22.7536 34.7149L22.8784 36.7111ZM32.352 36.457L36.96 36.457L36.96 34.457L32.352 34.457L32.352 36.457ZM36.96 36.457C40.4718 36.457 45.7773 36.5209 49.4224 36.5848L49.4575 34.5852C45.8067 34.5211 40.4882 34.457 36.96 34.457L36.96 36.457ZM48.4475 35.7074L49.0235 40.3794L51.0085 40.1346L50.4325 35.4626L48.4475 35.7074ZM50.016 41.257L52 41.257L52 39.257L50.016 39.257L50.016 41.257ZM53 40.257L53 22.721L51 22.721L51 40.257L53 40.257ZM52 21.721L50.016 21.721L50.016 23.721L52 23.721L52 21.721ZM49.0235 22.5988L48.5115 26.7588L50.4965 27.0032L51.0085 22.8432L49.0235 22.5988ZM49.4864 25.8811C45.8414 25.9451 40.4718 26.009 36.96 26.009L36.96 28.009C40.4881 28.009 45.8706 27.9449 49.5215 27.8808L49.4864 25.8811ZM36.96 26.009L25.44 26.009L25.44 28.009L36.96 28.009L36.96 26.009ZM26.1765 26.3326C23.3824 23.2901 22.28 20.6416 22.28 18.625L20.28 18.625C20.28 21.3444 21.7375 24.4559 24.7035 27.6854L26.1765 26.3326ZM22.28 18.625C22.28 17.0922 22.6929 16.1979 23.5135 15.6174C24.4253 14.9723 26.0308 14.569 28.768 14.569L28.768 12.569C25.9371 12.569 23.7987 12.9657 22.3584 13.9846C20.8271 15.0681 20.28 16.7018 20.28 18.625L22.28 18.625ZM28.768 14.569L36.96 14.569L36.96 12.569L28.768 12.569L28.768 14.569ZM36.96 14.569C40.6011 14.569 45.8363 14.6329 49.4043 14.7604L49.4757 12.7616C45.8757 12.6331 40.6149 12.569 36.96 12.569L36.96 14.569ZM48.4482 13.8885L49.0242 18.3685L51.0078 18.1135L50.4318 13.6335L48.4482 13.8885ZM50.016 19.241L52 19.241L52 17.241L50.016 17.241L50.016 19.241ZM53 18.241L53 0.704999L51 0.704999L51 18.241L53 18.241ZM52 -0.295001L50.016 -0.295001L50.016 1.705L52 1.705L52 -0.295001ZM49.0228 0.588147L48.5108 4.94015L50.4971 5.17384L51.0091 0.821835L49.0228 0.588147Z" fill="#979E8A"/>
</svg>
