<svg width="71" height="237" viewBox="0 0 71 237" fill="none" xmlns="http://www.w3.org/2000/svg">
<path fill-rule="evenodd" clip-rule="evenodd" d="M4.51195 236.87L4.51195 215.262C4.51195 207.609 6.78157 201.334 11.0707 196.969C15.3621 192.602 21.5617 190.262 29.1919 190.262C36.8749 190.262 43.1095 192.791 47.4181 197.395C51.7188 201.99 53.9999 208.544 53.9999 216.414L54 236.87L49.8502 236.87L49.2726 230.773C43.2212 230.662 36.919 230.662 30.0239 230.662L27.9119 230.662C21.6219 230.662 15.459 230.662 9.3033 230.773L8.72569 236.87L4.51195 236.87ZM8.39195 229.79C14.8559 229.662 21.3199 229.662 27.9119 229.662L30.0239 229.662C37.256 229.662 43.8479 229.662 50.1839 229.79L50.76 235.87L53 235.87L52.9999 216.414C52.9999 201.054 44.1039 191.262 29.1919 191.262C14.3439 191.262 5.51195 200.35 5.51195 215.262L5.51195 235.87L7.81595 235.87L8.39195 229.79ZM50.5039 220.574C43.9759 220.766 37.3199 220.766 30.0239 220.766L27.9119 220.766C21.1279 220.766 14.4719 220.766 8.00795 220.574L8.00795 216.222C8.00795 206.43 15.4959 200.67 29.2559 200.67C42.6319 200.67 50.5039 206.43 50.5039 216.67L50.5039 220.574ZM9.00795 219.602C15.1499 219.766 21.4651 219.766 27.9119 219.766L30.0239 219.766C36.9606 219.766 43.3029 219.766 49.5039 219.602L49.5039 216.67C49.5039 211.837 47.6631 208.146 44.2974 205.631C40.8913 203.086 35.8195 201.67 29.2559 201.67C22.4952 201.67 17.4239 203.088 14.0676 205.577C10.7537 208.035 9.00795 211.612 9.00795 216.222L9.00795 219.602ZM36.7199 150.575L36.7199 172.422C40.9139 172.158 43.8567 170.973 45.7707 169.285C47.8199 167.479 48.8 165.001 48.8 162.139C48.8 159.982 48.3525 158.313 47.5894 156.936C46.8225 155.553 45.704 154.406 44.2747 153.342L43.4958 152.762L45.4386 149.986L46.2064 150.361C51.8183 153.098 55.0239 158.324 55.0239 165.019C55.0239 170.262 53.3171 174.869 50.0101 178.168C46.7011 181.468 41.8851 183.363 35.8479 183.363C23.7332 183.363 16.7359 174.424 16.7359 164.955C16.7359 160.336 18.3094 156.546 21.0233 153.91C23.7322 151.279 27.4989 149.875 31.7519 149.875C33.463 149.875 34.7854 150.006 36.0021 150.364L36.7199 150.575ZM36.7199 173.424C36.3932 173.444 36.0599 173.459 35.7199 173.467L35.7199 151.323C34.6319 151.003 33.4159 150.875 31.7519 150.875C23.6879 150.875 17.7359 156.187 17.7359 164.955C17.7359 173.915 24.3279 182.363 35.8479 182.363C47.496 182.363 54.0239 175.067 54.0239 165.019C54.0239 158.683 51.0159 153.819 45.7679 151.259L44.8719 152.539C44.8719 152.539 44.872 152.54 44.8719 152.539C47.8799 154.779 49.7999 157.532 49.8 162.139C49.8 168.132 45.8045 172.872 36.7199 173.424ZM33.3519 173.467L33.3519 162.523C33.3519 159.579 31.8799 158.875 28.6159 158.875C23.4319 158.875 20.1039 161.627 20.1039 165.531C20.1039 169.417 23.7286 172.826 32.3519 173.413C32.6781 173.435 33.0114 173.454 33.3519 173.467ZM32.3519 172.411L32.3519 162.523C32.3519 161.205 32.0274 160.69 31.6339 160.414C31.1373 160.066 30.2423 159.875 28.6159 159.875C26.1927 159.875 24.3011 160.519 23.0381 161.522C21.7927 162.512 21.1039 163.89 21.1039 165.531C21.1039 167.177 21.8812 168.768 23.7794 170.036C25.563 171.227 28.3446 172.13 32.3519 172.411ZM28.2959 121.292L21.3839 123.276C20.6159 124.812 20.2319 126.284 20.2319 128.14C20.2319 132.364 22.2799 134.796 25.4159 134.796C28.1039 134.796 29.8319 133.388 31.4319 128.46L32.4559 125.132C34.6959 118.412 38.0879 115.66 43.0159 115.66C49.5439 115.66 54.0239 120.908 54.0239 130.316C54.0239 134.924 52.9999 138.508 51.0799 142.156L42.7599 141.9L42.7599 138.188L50.5039 136.396C51.2079 134.732 51.5279 132.94 51.5279 130.828C51.5279 125.708 49.5439 123.02 46.0239 123.02C43.2079 123.02 41.4159 124.492 39.7519 129.484L38.5999 133.004C36.8719 138.508 33.7999 141.9 28.6159 141.9C22.4719 141.9 17.7359 137.1 17.7359 128.332C17.7359 124.236 18.7599 121.1 20.6159 117.58L28.2959 118.028L28.2959 121.292ZM39.554 133.304C39.5534 133.305 39.5529 133.307 39.5523 133.309C38.6592 136.152 37.3896 138.55 35.5893 140.244C33.7632 141.963 31.4506 142.9 28.6159 142.9C25.2674 142.9 22.2627 141.584 20.1101 139.052C17.9681 136.532 16.7359 132.891 16.7359 128.332C16.7359 124.033 17.821 120.737 19.7314 117.114L20.0316 116.544L29.2959 117.085L29.2959 122.045L22.0917 124.113C21.515 125.376 21.2319 126.605 21.2319 128.14C21.2319 130.103 21.7087 131.522 22.4304 132.429C23.1315 133.31 24.1308 133.796 25.4159 133.796C26.5527 133.796 27.3817 133.512 28.1248 132.769C28.9224 131.971 29.694 130.573 30.4784 128.159L31.5036 124.827L31.5073 124.816C32.6578 121.364 34.1414 118.813 36.069 117.124C38.0219 115.413 40.3474 114.66 43.0159 114.66C46.5747 114.66 49.6234 116.104 51.7572 118.846C53.8703 121.562 55.0239 125.466 55.0239 130.316C55.0239 135.099 53.9542 138.842 51.9649 142.622L51.6738 143.175L41.7599 142.87L41.7599 137.393L49.768 135.54C50.2834 134.149 50.5279 132.63 50.5279 130.828C50.5279 128.373 50.0483 126.659 49.2819 125.585C48.5523 124.562 47.4944 124.02 46.0239 124.02C44.8215 124.02 43.9413 124.321 43.1574 125.093C42.3203 125.917 41.5177 127.35 40.7014 129.798C40.7012 129.799 40.7009 129.799 40.7006 129.8L39.554 133.304ZM18.3759 94.2795L28.3599 94.4075L37.9599 94.4075C41.4799 94.4075 46.8559 94.3435 50.5039 94.2795L51.0159 89.9915L52.9999 89.9915L52.9999 107.591L51.0159 107.591L50.4399 102.919C46.7919 102.855 41.4799 102.791 37.9599 102.791L33.4159 102.791C29.3199 102.791 26.8879 102.855 23.6879 102.983L23.1759 108.167L21.4479 108.167L17.7999 95.1755L18.3759 94.2795ZM24.5975 103.949L24.082 109.167L20.6901 109.167L16.7156 95.0129L17.8345 93.2725L28.3599 93.4075L37.9599 93.4075C41.2011 93.4075 46.0247 93.3531 49.6145 93.2944L50.1282 88.9915L53.9999 88.9915L53.9999 108.591L50.1317 108.591L49.5538 103.905C45.9721 103.846 41.2017 103.791 37.9599 103.791L33.4159 103.791C29.7134 103.791 27.3792 103.844 24.5975 103.949ZM5.89594 92.7675C9.2839 92.7675 11.6319 95.6068 11.6319 98.8235C11.6319 102.04 9.2839 104.879 5.89594 104.879C2.37998 104.879 0.0959414 102.04 0.0959412 98.8235C0.0959411 95.6068 2.37998 92.7675 5.89594 92.7675ZM22.5359 55.5785C22.8718 55.3237 23.2245 55.0919 23.5924 54.8832C25.2574 53.9388 27.2348 53.4665 29.3839 53.4665C36.3599 53.4665 41.2879 58.4585 41.2879 67.4185C41.2879 70.1065 40.8399 72.4105 40.0719 74.3305C41.4159 75.2905 42.6319 75.7385 44.1039 75.7385C46.4079 75.7385 47.6239 74.4585 47.6239 70.8745L47.6239 61.4665C47.6239 52.3145 51.2719 48.6025 57.0319 48.6025C63.7519 48.6025 69.6399 55.1945 69.6399 67.8025C69.6399 78.7465 65.7999 82.8425 60.9999 82.8425C58.3397 82.8425 56.0452 81.1702 54.211 77.5423C54.0154 77.1554 53.825 76.7462 53.6399 76.3145C53.4748 76.7516 53.295 77.1621 53.0984 77.5441C51.9995 79.6792 50.3772 80.9225 47.8799 80.9225C45.1514 80.9225 42.9726 79.658 40.0697 76.5177C39.8405 76.2698 39.6068 76.0101 39.3679 75.7385C39.1932 76.0442 39.0078 76.3379 38.812 76.6193C36.7128 79.6361 33.4232 81.2425 29.3839 81.2425C22.4719 81.2425 17.7359 76.3145 17.7359 67.2905C17.7359 63.0025 18.8239 59.6105 20.7439 57.3065L17.7359 49.1785L18.4399 48.0905L23.1119 48.0905L22.5359 55.5785ZM19.6114 57.1275C17.7341 59.6346 16.7359 63.1076 16.7359 67.2905C16.7359 71.9696 17.9644 75.7151 20.2127 78.3059C22.4744 80.9122 25.6765 82.2425 29.3839 82.2425C33.6403 82.2425 37.1963 80.5627 39.5018 77.3754C42.4024 80.4721 44.7969 81.9225 47.8799 81.9225C49.5663 81.9225 50.9691 81.4204 52.1019 80.4619C52.7076 79.9494 53.2159 79.3236 53.6467 78.6123C55.5344 82.0229 57.985 83.8425 60.9999 83.8425C63.7314 83.8425 66.2095 82.6532 67.9576 79.9728C69.6684 77.3495 70.6399 73.3657 70.6399 67.8025C70.6399 61.3535 69.1351 56.3312 66.6686 52.8917C64.1904 49.436 60.7497 47.6025 57.0319 47.6025C53.9216 47.6025 51.2466 48.6169 49.3824 50.9837C47.5529 53.3064 46.6239 56.7837 46.6239 61.4665L46.6239 70.8745C46.6239 72.5933 46.3245 73.5359 45.9359 74.04C45.596 74.481 45.0656 74.7385 44.1039 74.7385C43.0988 74.7385 42.2331 74.4973 41.2854 73.9322C41.9285 72.0495 42.2879 69.8753 42.2879 67.4185C42.2879 62.7601 41.0054 59.0136 38.6995 56.4183C36.3836 53.8118 33.1225 52.4665 29.3839 52.4665C27.3282 52.4665 25.3855 52.8718 23.683 53.7052L24.1918 47.0905L17.8959 47.0905L16.6243 49.0558L19.6114 57.1275ZM35.9899 71.1945C37.3846 70.3228 38.1119 69.0954 38.1119 67.4825C38.1119 65.7947 37.3578 64.4844 35.9264 63.5526C34.4504 62.5918 32.2171 62.0185 29.3199 62.0185C26.5247 62.0185 24.3714 62.5896 22.9499 63.5257C21.5684 64.4355 20.8479 65.7009 20.8479 67.2905C20.8479 68.9099 21.5821 70.19 22.9934 71.1083C24.4466 72.054 26.649 72.6265 29.5119 72.6265C32.3552 72.6265 34.5451 72.0975 35.9899 71.1945ZM57.0132 57.4434C56.289 58.1557 55.7279 59.3954 55.7279 61.5305L55.7279 68.9545C55.7279 71.5666 55.6289 73.1916 55.3245 74.7132C56.7157 75.7986 57.9573 76.2745 59.7199 76.2745C61.7986 76.2745 63.297 75.4913 64.3087 74.1269C65.3515 72.7204 65.9519 70.5913 65.9519 67.8025C65.9519 63.7734 65.2304 60.8683 64.1309 59.0071C63.0521 57.1808 61.6388 56.3865 60.1039 56.3865C58.7949 56.3865 57.7416 56.727 57.0132 57.4434ZM54.2159 75.0985C55.9439 76.5705 57.4799 77.2745 59.7199 77.2745C64.4559 77.2745 66.9519 73.6265 66.9519 67.8025C66.9519 59.5465 64.0079 55.3865 60.1039 55.3865C57.1599 55.3865 54.7279 56.9225 54.7279 61.5305L54.7279 68.9545C54.7279 71.8985 54.5999 73.4985 54.2159 75.0985ZM51.0159 19.241L50.4399 14.761C46.8559 14.633 41.6079 14.569 37.9599 14.569L29.7679 14.569C24.1999 14.569 22.2799 16.169 22.2799 19.625C22.2799 21.993 23.5599 24.873 26.4399 28.009L37.9599 28.009C41.4799 28.009 46.8559 27.945 50.5039 27.881L51.0159 23.721L52.9999 23.721L52.9999 41.257L51.0159 41.257L50.4399 36.585C46.7919 36.521 41.4799 36.457 37.9599 36.457L33.3519 36.457C29.1919 36.457 26.8879 36.521 23.8159 36.713L23.3039 41.769L21.7039 41.769L17.7999 29.481L18.3759 28.585L24.1999 28.137C23.8425 27.8286 23.502 27.5205 23.1778 27.2127C19.2643 23.4968 17.7359 19.8188 17.7359 15.977C17.7359 9.961 21.5759 6.185 30.1519 6.185L37.9599 6.185C41.6079 6.185 46.8559 6.121 50.5039 6.057L51.0159 1.705L52.9999 1.705L52.9999 19.241L51.0159 19.241ZM49.6129 5.07197L50.1267 0.705L53.9999 0.704999L53.9999 20.241L50.1363 20.241L49.5566 15.7322C46.0437 15.6235 41.3222 15.569 37.9599 15.569L29.7679 15.569C27.0308 15.569 25.4252 15.9723 24.5135 16.6174C23.6929 17.1979 23.2799 18.0922 23.2799 19.625C23.2799 21.5698 24.3052 24.1023 26.8843 27.009L37.9599 27.009C41.2021 27.009 46.0275 26.9545 49.6176 26.8959L50.1315 22.721L53.9999 22.721L53.9999 42.257L50.1317 42.257L49.5538 37.5701C45.9721 37.5114 41.2017 37.457 37.9599 37.457L33.3519 37.457C29.5992 37.457 27.3732 37.5092 24.7251 37.6603L24.2078 42.769L20.9724 42.769L16.7045 29.3357L17.8036 27.6261L21.8541 27.3145C18.241 23.6479 16.7359 19.9212 16.7359 15.977C16.7359 12.7453 17.777 9.98546 20.0872 8.05727C22.367 6.15442 25.737 5.185 30.1519 5.185L37.9599 5.185C41.318 5.185 46.0396 5.13061 49.6129 5.07197ZM5.89594 93.7675C8.64794 93.7675 10.6319 96.0715 10.6319 98.8235C10.6319 101.576 8.64794 103.879 5.89594 103.879C3.01594 103.879 1.09594 101.576 1.09594 98.8235C1.09594 96.0715 3.01594 93.7675 5.89594 93.7675ZM29.5119 73.6265C35.3999 73.6265 39.1119 71.4505 39.1119 67.4825C39.1119 63.3865 35.3359 61.0185 29.3199 61.0185C23.4959 61.0185 19.8479 63.3865 19.8479 67.2905C19.8479 71.2585 23.5599 73.6265 29.5119 73.6265Z" fill="#979E8A"/>
</svg>
