<svg width="30" height="30" viewBox="0 0 30 30" fill="none" xmlns="http://www.w3.org/2000/svg">
<g clip-path="url(#clip0_467_1078)">
<path fill-rule="evenodd" clip-rule="evenodd" d="M15 30C23.2843 30 30 23.2843 30 15C30 6.71573 23.2843 0 15 0C6.71573 0 0 6.71573 0 15C0 23.2843 6.71573 30 15 30ZM18.7281 10C18.6474 8.84735 18.3439 7.77031 17.853 6.91123C17.2945 5.93385 16.3324 5 14.9999 5C13.6674 5 12.7054 5.93385 12.1469 6.91123C11.656 7.77031 11.3525 8.84735 11.2717 10H7.60842C6.87712 10 6.30201 10.625 6.36274 11.3538L7.40441 23.8538C7.4584 24.5017 7.99998 25 8.65009 25H21.3498C21.9999 25 22.5415 24.5017 22.5954 23.8538L23.6371 11.3538C23.6978 10.625 23.1227 10 22.3914 10H18.7281ZM17.4746 10C17.3013 7.87982 16.2594 6.25 14.9999 6.25C13.7405 6.25 12.6985 7.87982 12.5252 10H17.4746ZM12.4999 15.2086C12.4999 14.8741 12.6793 14.5235 13.0636 14.2353C13.4482 13.9469 14.0081 13.75 14.6531 13.75C15.346 13.75 15.9385 13.9769 16.3224 14.2986C16.652 14.5748 16.8062 14.8972 16.8062 15.2086C16.8062 15.5538 17.086 15.8336 17.4312 15.8336C17.7764 15.8336 18.0562 15.5538 18.0562 15.2086C18.0562 14.4527 17.6754 13.8016 17.1252 13.3405C16.4917 12.8096 15.6057 12.5 14.6531 12.5C13.7638 12.5 12.9346 12.7696 12.3136 13.2353C11.6925 13.7011 11.2499 14.3924 11.2499 15.2086C11.2499 16.0248 11.6925 16.7161 12.3136 17.1819C12.9346 17.6476 13.7638 17.9172 14.6531 17.9172L14.6582 17.9172C15.301 17.9182 15.859 18.1148 16.2425 18.4024C16.6269 18.6907 16.8062 19.0412 16.8062 19.3758C16.8062 19.7103 16.6269 20.0608 16.2425 20.3491C15.858 20.6375 15.2981 20.8344 14.6531 20.8344C13.9601 20.8344 13.3676 20.6074 12.9838 20.2858C12.6542 20.0096 12.4999 19.6871 12.4999 19.3758C12.4999 19.0306 12.2201 18.7508 11.8749 18.7508C11.5298 18.7508 11.2499 19.0306 11.2499 19.3758C11.2499 20.1317 11.6307 20.7828 12.1809 21.2439C12.8145 21.7748 13.7004 22.0844 14.6531 22.0844C15.5424 22.0844 16.3716 21.8148 16.9925 21.3491C17.6136 20.8833 18.0562 20.192 18.0562 19.3758C18.0562 18.5596 17.6136 17.8683 16.9925 17.4024C16.3716 16.9367 15.5424 16.6672 14.6531 16.6672L14.6479 16.6672C14.0051 16.6662 13.4472 16.4696 13.0636 16.1819C12.6793 15.8937 12.4999 15.5431 12.4999 15.2086Z" fill="#FDF1E8"/>
</g>
<defs>
<clipPath id="clip0_467_1078">
<rect width="30" height="30" fill="white"/>
</clipPath>
</defs>
</svg>
