<svg width="133" height="30" viewBox="0 0 133 30" fill="none" xmlns="http://www.w3.org/2000/svg">
<path d="M44.575 11.3408C44.575 12.8599 44.2829 14.2471 43.6983 15.5001C43.1138 16.7535 42.2534 17.7505 41.1171 18.4902C39.9805 19.2306 38.6266 19.6008 37.0555 19.6008C33.6915 19.6008 32.0098 17.8019 32.0098 14.2044C32.0098 12.6849 32.3019 11.3018 32.8864 10.0545C33.471 8.80768 34.3311 7.81459 35.4677 7.07384C36.6039 6.33345 37.9578 5.96362 39.5297 5.96362C42.8929 5.96398 44.575 7.75639 44.575 11.3408ZM37.5909 8.70103C37.1556 9.61675 36.8017 11.0878 36.5291 13.1137C36.3342 14.5554 36.2366 15.6917 36.2366 16.5232C36.2366 17.0687 36.3078 17.4873 36.451 17.7798C36.5938 18.0723 36.8729 18.2183 37.2886 18.2183C37.99 18.2183 38.5579 17.7603 38.9932 16.8449C39.4281 15.9292 39.782 14.4582 40.055 12.4322C40.2498 10.9905 40.3474 9.85427 40.3474 9.02314C40.3474 8.47725 40.2726 8.05897 40.1233 7.76615C39.9736 7.47368 39.6913 7.32763 39.2759 7.32763C38.5876 7.32763 38.0261 7.78567 37.5909 8.70103Z" fill="#FDF1E8"/>
<path d="M54.6561 9.90895C55.3505 10.5908 55.6983 11.646 55.6983 13.0748C55.6983 14.2956 55.4514 15.3997 54.9579 16.3866C54.4641 17.3732 53.7465 18.1566 52.8051 18.7336C51.8633 19.3116 50.7499 19.6005 49.4639 19.6005C46.6976 19.6005 45.3145 18.1848 45.3145 15.3534C45.3145 14.1329 45.5643 13.0321 46.0646 12.0513C46.5642 11.0709 47.2887 10.2976 48.2366 9.73289C49.1845 9.16784 50.3016 8.8855 51.5875 8.8855C52.9381 8.88622 53.9609 9.22713 54.6561 9.90895ZM50.0001 11.0781C49.6816 11.7599 49.4123 12.8998 49.1917 14.497C49.0359 15.6141 48.9578 16.4972 48.9578 17.1465C48.9578 17.5753 49.0131 17.8967 49.1234 18.1107C49.2337 18.3254 49.4448 18.4324 49.7564 18.4324C50.2759 18.4324 50.6946 18.0919 51.013 17.4097C51.3312 16.7275 51.6005 15.5884 51.8214 13.9905C51.9772 12.8738 52.0549 11.9909 52.0549 11.3413C52.0549 10.9122 52.0029 10.5911 51.8991 10.3771C51.795 10.1624 51.5875 10.0554 51.2755 10.0554C50.7434 10.055 50.3182 10.3959 50.0001 11.0781Z" fill="#FDF1E8"/>
<path d="M65.9264 16.5424C65.6274 18.0753 65.2572 19.3088 64.8158 20.2436C64.374 21.1792 63.7446 21.8903 62.9262 22.3766C62.108 22.8639 61.017 23.1072 59.6533 23.1072C58.4972 23.1072 57.4973 22.9344 56.6531 22.5906C55.809 22.2464 55.3867 21.6716 55.3867 20.8662C55.3867 20.3076 55.5913 19.8658 56.0006 19.5416C56.4095 19.2173 56.9065 19.0542 57.4907 19.0542C57.9061 19.0542 58.2926 19.1222 58.6501 19.2585C59.0073 19.3948 59.2962 19.6059 59.5171 19.8919C59.2181 20.2158 59.0691 20.5542 59.0691 20.9048C59.0691 21.1254 59.1306 21.3235 59.2542 21.4995C59.3775 21.6745 59.5626 21.7624 59.8095 21.7624C60.3807 21.7624 60.8615 21.3792 61.2509 20.6131C61.6406 19.8467 61.9844 18.6009 62.2834 16.8725C61.9327 17.2622 61.4815 17.5608 60.9295 17.7687C60.3775 17.9769 59.8027 18.0807 59.2054 18.0807C57.3743 18.0807 56.4586 17.0742 56.4586 15.0609C56.4586 13.9832 56.7052 12.9699 57.199 12.022C57.6925 11.0741 58.3938 10.3139 59.303 9.74265C60.2119 9.17146 61.2574 8.8855 62.4396 8.8855C63.1409 8.8855 63.7381 8.99612 64.232 9.21665L67.3876 8.90502L65.9264 16.5424ZM62.4978 10.055C61.9392 10.055 61.4913 10.3608 61.1536 10.9707C60.8156 11.5813 60.5756 12.2989 60.4328 13.1236C60.2896 13.9485 60.2184 14.7113 60.2184 15.4127C60.2184 15.7894 60.2672 16.0786 60.3644 16.2796C60.4617 16.4813 60.6533 16.5815 60.9389 16.5815C61.7444 16.5815 62.296 15.7897 62.595 14.2049L63.3354 10.3276C63.1145 10.1461 62.8354 10.055 62.4978 10.055Z" fill="#FDF1E8"/>
<path d="M77.2258 16.3085C77.1604 16.6599 77.1282 16.9325 77.1282 17.1274C77.1282 17.4 77.2063 17.6331 77.3621 17.828C77.5176 18.0229 77.745 18.1338 78.0436 18.1591C77.9004 18.6266 77.5888 18.9841 77.1087 19.2307C76.6279 19.478 76.1152 19.6009 75.5694 19.6009C75.1142 19.6009 74.7089 19.5062 74.3521 19.3185C73.9949 19.1302 73.7513 18.854 73.6215 18.4903C73.2969 18.8417 72.8717 19.1143 72.3457 19.3091C71.8197 19.5036 71.2449 19.6016 70.6216 19.6016C69.5176 19.6016 68.7219 19.277 68.2345 18.6273C67.7476 17.9784 67.5039 17.0236 67.5039 15.7637C67.5039 14.4522 67.744 13.2736 68.2244 12.2277C68.7052 11.1826 69.4033 10.3648 70.3187 9.77304C71.2344 9.18232 72.3287 8.88696 73.602 8.88696C74.4071 8.88696 75.0629 9.0106 75.5686 9.25679L78.6278 8.88696L77.2258 16.3085ZM74.0503 10.1429C73.8561 10.0843 73.6739 10.055 73.5051 10.055C73.1541 10.055 72.8522 10.1913 72.5991 10.4643C72.3457 10.7368 72.1219 11.1949 71.9271 11.838C71.7322 12.4804 71.55 13.3669 71.3819 14.4966C71.2257 15.5616 71.1476 16.4383 71.1476 17.1267C71.1476 17.5287 71.1968 17.8345 71.2937 18.0417C71.3917 18.2495 71.589 18.3533 71.8887 18.3533C72.3562 18.3533 72.7231 18.1096 72.9892 17.6227C73.2553 17.135 73.4476 16.5674 73.564 15.9174L74.5379 10.4042C74.4074 10.2889 74.2451 10.2014 74.0503 10.1429Z" fill="#FDF1E8"/>
<path d="M92.5363 6.48992C93.2767 6.84059 93.6465 7.44469 93.6465 8.30184C93.6465 8.97716 93.413 9.49666 92.9455 9.86034C92.4781 10.224 91.9257 10.4062 91.2894 10.4062C90.9 10.4062 90.5233 10.3408 90.1597 10.2114C90.3545 9.78226 90.4525 9.27649 90.4525 8.69192C90.4525 7.6916 90.0827 7.19199 89.3419 7.19199C88.8358 7.19199 88.3842 7.3901 87.9884 7.78668C87.5914 8.18291 87.3937 8.62721 87.3937 9.12068C87.3937 9.44532 87.4877 9.73779 87.6757 9.99736C87.864 10.2577 88.0979 10.4818 88.377 10.6694C88.6557 10.8578 89.0487 11.0949 89.5559 11.3805C89.7117 11.4582 89.9453 11.5884 90.2565 11.7702C90.9839 12.1994 91.5522 12.6599 91.9611 13.1534C92.3707 13.6472 92.5746 14.2763 92.5746 15.043C92.5746 15.9656 92.2731 16.7704 91.6686 17.4591C91.0649 18.147 90.2627 18.6763 89.2631 19.0468C88.2624 19.417 87.192 19.6021 86.0485 19.6021C85.0221 19.6021 84.1397 19.4268 83.3989 19.0761C82.6589 18.7251 82.2891 18.0896 82.2891 17.167C82.2891 16.5177 82.4904 15.9852 82.8928 15.5694C83.2952 15.1544 83.8479 14.9462 84.5485 14.9462C85.016 14.9462 85.4769 15.0308 85.9317 15.1996C85.7242 15.7325 85.6204 16.2972 85.6204 16.8944C85.6204 17.3492 85.7014 17.693 85.8641 17.9265C86.0257 18.16 86.3146 18.2775 86.7303 18.2775C87.2368 18.2775 87.6815 18.1282 88.0647 17.8293C88.4482 17.5306 88.6395 17.1413 88.6395 16.6612C88.6395 16.1807 88.4544 15.7744 88.0845 15.4432C87.7147 15.1121 87.1652 14.7321 86.4378 14.3037L85.8341 13.9339C85.1194 13.4921 84.5612 13.0117 84.1585 12.4922C83.7557 11.9727 83.5547 11.3169 83.5547 10.5248C83.5547 9.62861 83.8273 8.83327 84.3732 8.13808C84.9184 7.4436 85.6685 6.90784 86.6233 6.53114C87.5777 6.15443 88.646 5.96608 89.8278 5.96608C90.8928 5.96392 91.7959 6.13925 92.5363 6.48992Z" fill="#FDF1E8"/>
<path d="M99.5124 9.27577H101.032L100.857 10.1524H99.3573L98.1882 16.308C98.1231 16.6594 98.0905 16.932 98.0905 17.1268C98.0905 17.3994 98.169 17.6326 98.3241 17.8274C98.4792 18.0223 98.7076 18.1333 99.0059 18.1586C98.8627 18.626 98.5547 18.9836 98.0804 19.2301C97.6057 19.4774 97.0772 19.6003 96.4923 19.6003C95.8166 19.6003 95.2751 19.4275 94.8655 19.0841C94.4566 18.7399 94.252 18.2432 94.252 17.5935C94.252 16.9696 94.4595 15.6193 94.8759 13.5417L94.9739 13.0543L95.539 10.1521H94.3893L94.4674 9.56751C96.0263 9.10007 97.5584 8.29461 99.0652 7.15186H99.9806L99.5124 9.27577Z" fill="#FDF1E8"/>
<path d="M109.671 9.90895C110.366 10.5908 110.714 11.646 110.714 13.0748C110.714 14.2956 110.467 15.3997 109.973 16.3866C109.48 17.3732 108.762 18.1566 107.821 18.7336C106.88 19.3113 105.765 19.6005 104.48 19.6005C101.714 19.6005 100.33 18.1848 100.33 15.3534C100.33 14.1329 100.58 13.0321 101.08 12.0513C101.58 11.0709 102.304 10.2976 103.252 9.73289C104.2 9.16784 105.317 8.8855 106.603 8.8855C107.954 8.88622 108.976 9.22713 109.671 9.90895ZM105.015 11.0781C104.697 11.7599 104.428 12.8998 104.207 14.497C104.051 15.6141 103.973 16.4972 103.973 17.1465C103.973 17.5753 104.029 17.8967 104.139 18.1107C104.25 18.3254 104.461 18.4324 104.772 18.4324C105.292 18.4324 105.711 18.0919 106.029 17.4097C106.348 16.7275 106.617 15.5884 106.837 13.9905C106.994 12.8738 107.071 11.9909 107.071 11.3413C107.071 10.9122 107.019 10.5911 106.915 10.3771C106.811 10.1624 106.603 10.0554 106.291 10.0554C105.759 10.055 105.333 10.3959 105.015 11.0781Z" fill="#FDF1E8"/>
<path d="M119.421 8.88621C121.291 8.88621 122.226 9.64612 122.226 11.1656C122.226 11.5553 122.174 12.013 122.071 12.539C121.966 13.065 121.824 13.6984 121.642 14.4384C121.472 15.1141 121.35 15.6502 121.271 16.0457C121.194 16.4423 121.155 16.7763 121.155 17.0489C121.155 17.7112 121.461 18.081 122.071 18.1588C121.928 18.6262 121.616 18.9837 121.135 19.2303C120.655 19.4776 120.129 19.6005 119.557 19.6005C118.883 19.6005 118.34 19.428 117.931 19.0842C117.521 18.7401 117.318 18.2434 117.318 17.5937C117.318 17.2694 117.359 16.8862 117.445 16.4437C117.528 16.0023 117.668 15.3664 117.863 14.5349C118.045 13.7689 118.187 13.1322 118.292 12.6257C118.396 12.1193 118.448 11.6905 118.448 11.3398C118.448 10.7032 118.221 10.3847 117.766 10.3847C117.285 10.3847 116.912 10.6613 116.646 11.2129C116.379 11.765 116.161 12.4566 115.993 13.2877L114.843 19.21L110.947 19.5998L112.973 9.27412L116.168 8.88477L115.857 10.7936C116.518 9.52284 117.706 8.88621 119.421 8.88621Z" fill="#FDF1E8"/>
<path d="M132.766 11.2627C132.766 12.25 132.347 13.0327 131.509 13.6104C130.672 14.1888 129.422 14.5229 127.759 14.6136C127.552 14.6266 127.22 14.6331 126.766 14.6331C126.727 14.9057 126.707 15.1787 126.707 15.4513C126.707 16.0232 126.831 16.4487 127.077 16.7271C127.324 17.0065 127.733 17.1461 128.305 17.1461C128.824 17.1461 129.334 17.0354 129.834 16.8149C130.333 16.5944 130.707 16.2954 130.955 15.9187C131.278 16.1132 131.442 16.4248 131.442 16.8539C131.442 17.3995 131.24 17.8835 130.837 18.3054C130.435 18.7277 129.899 19.0491 129.23 19.27C128.561 19.4901 127.857 19.6011 127.116 19.6011C125.818 19.6011 124.815 19.2472 124.107 18.539C123.399 17.8315 123.045 16.7636 123.045 15.3349C123.045 14.1661 123.285 13.0945 123.766 12.1199C124.246 11.1463 124.97 10.364 125.938 9.77255C126.905 9.18183 128.097 8.88647 129.513 8.88647C131.682 8.88611 132.766 9.67856 132.766 11.2627ZM127.808 10.8441C127.425 11.4865 127.123 12.4709 126.902 13.7955C127.785 13.7955 128.487 13.5294 129.006 12.9969C129.525 12.464 129.785 11.7764 129.785 10.9316C129.785 10.5939 129.733 10.3347 129.629 10.1529C129.525 9.97103 129.343 9.88028 129.083 9.88028C128.617 9.87992 128.191 10.2013 127.808 10.8441Z" fill="#FDF1E8"/>
<path d="M6.69383 29.3076C6.50247 29.3076 6.34766 29.4635 6.34766 29.6538C6.34766 29.8458 6.50247 29.9999 6.69383 29.9999C10.1776 29.9999 13.1112 27.5984 13.9254 24.3606C13.7171 24.2243 13.5142 24.0731 13.3192 23.9121C12.6836 26.9889 9.95514 29.3076 6.69383 29.3076Z" fill="#FDF1E8"/>
<path d="M22.8234 13.3556C22.5999 13.1317 22.355 12.9197 22.0949 12.7248C21.9896 12.6463 21.9267 12.524 21.9267 12.3927C21.9267 12.2621 21.9896 12.1384 22.0949 12.0599C22.355 11.8642 22.5999 11.6522 22.8241 11.4298C24.088 10.1637 24.7854 8.48317 24.7854 6.69408C24.7854 4.9068 24.088 3.22586 22.8234 1.96199C21.5588 0.696682 19.8779 0 18.0891 0C16.3019 0 14.6198 0.696682 13.3549 1.96055C13.1317 2.18446 12.9205 2.43043 12.7248 2.69051C12.6455 2.79505 12.5226 2.85654 12.3927 2.85654C12.2614 2.85654 12.1377 2.79505 12.0588 2.69051C11.8639 2.43043 11.6515 2.18518 11.4291 1.96199C10.1648 0.696682 8.48209 0 6.69481 0C4.90608 0 3.22514 0.696682 1.96019 1.96055C0.696683 3.22586 0 4.90643 0 6.69552C0 8.48281 0.696683 10.1637 1.96019 11.4298C2.1841 11.6522 2.42862 11.8642 2.69087 12.0599C2.79433 12.137 2.85654 12.2607 2.85654 12.3927C2.85654 12.524 2.79433 12.6455 2.69087 12.7248C2.42862 12.9212 2.18446 13.1331 1.96019 13.3556C0.696683 14.6195 0 16.3008 0 18.0899C0 19.8789 0.696683 21.5595 1.96019 22.8234C3.22514 24.088 4.90608 24.7847 6.69481 24.7847C8.48354 24.7847 10.1648 24.088 11.4291 22.8234C11.6533 22.5995 11.8649 22.3542 12.0596 22.0941C12.1377 21.9903 12.2614 21.9281 12.3927 21.9281C12.5226 21.9281 12.6455 21.9903 12.7248 22.0941C12.9205 22.3542 13.1317 22.5991 13.3549 22.8234C13.3846 22.8545 13.4171 22.8849 13.4489 22.9153C13.654 23.1131 13.87 23.2962 14.0939 23.4636C15.2442 24.3213 16.631 24.7847 18.0891 24.7847C19.8779 24.7847 21.5588 24.088 22.8241 22.8234C23.3504 22.2971 23.7718 21.6955 24.0923 21.047V24.3701C24.0923 24.5604 24.2479 24.7156 24.4392 24.7156C24.6299 24.7156 24.7854 24.5604 24.7854 24.3701V18.2183C24.7854 18.2096 24.7811 18.202 24.7803 18.1937C24.7807 18.1589 24.7854 18.1249 24.7854 18.0902C24.7854 16.3011 24.088 14.6195 22.8234 13.3556ZM14.0845 12.7248C13.8226 12.9212 13.5784 13.1331 13.3549 13.3556C13.1303 13.5802 12.919 13.8255 12.7248 14.0848C12.6455 14.1894 12.5226 14.2516 12.3927 14.2516C12.2614 14.2516 12.1377 14.1894 12.0588 14.0848C11.8649 13.8255 11.6533 13.5802 11.4291 13.3556C11.2059 13.1317 10.961 12.9197 10.6991 12.7248C10.5953 12.6463 10.5331 12.524 10.5331 12.3927C10.5331 12.2621 10.5953 12.1384 10.6991 12.0599C10.961 11.8642 11.2055 11.6522 11.4291 11.4298C11.6533 11.2059 11.8649 10.9606 12.0596 10.6998C12.1377 10.5946 12.2614 10.5338 12.3927 10.5338C12.5226 10.5338 12.6455 10.5946 12.7248 10.6998C12.9205 10.9606 13.1317 11.2051 13.3549 11.4298C13.5781 11.6522 13.8244 11.8642 14.0845 12.0599C14.1901 12.137 14.2509 12.2607 14.2509 12.3927C14.2505 12.524 14.1901 12.6455 14.0845 12.7248Z" fill="#FDF1E8"/>
</svg>
