<svg width="30" height="30" viewBox="0 0 24 24" fill="none" xmlns="http://www.w3.org/2000/svg">
<path d="M24 12C24 18.6274 18.6274 24 12 24C5.37258 24 0 18.6274 0 12C0 5.37258 5.37258 0 12 0C18.6274 0 24 5.37258 24 12Z" fill="#21402F"/>
<path d="M9.47126 19.007C9.38634 19.007 9.31763 19.0762 9.31763 19.1607C9.31763 19.2459 9.38634 19.3143 9.47126 19.3143C11.0174 19.3143 12.3194 18.2485 12.6807 16.8115C12.5882 16.751 12.4982 16.6839 12.4117 16.6125C12.1296 17.978 10.9187 19.007 9.47126 19.007Z" fill="#FDF1E8"/>
<path d="M16.6292 11.9273C16.53 11.828 16.4214 11.7339 16.3059 11.6474C16.2592 11.6125 16.2313 11.5583 16.2313 11.5C16.2313 11.442 16.2592 11.3871 16.3059 11.3523C16.4214 11.2655 16.53 11.1714 16.6296 11.0726C17.1905 10.5108 17.5 9.76491 17.5 8.9709C17.5 8.17768 17.1905 7.43167 16.6292 6.87075C16.068 6.30919 15.322 6 14.5281 6C13.7349 6 12.9884 6.30919 12.427 6.87011C12.328 6.96948 12.2342 7.07865 12.1474 7.19407C12.1122 7.24047 12.0576 7.26776 12 7.26776C11.9417 7.26776 11.8868 7.24047 11.8518 7.19407C11.7653 7.07865 11.6711 6.9698 11.5723 6.87075C11.0113 6.30919 10.2644 6 9.47122 6C8.67736 6 7.93135 6.30919 7.36995 6.87011C6.80919 7.43167 6.5 8.17752 6.5 8.97154C6.5 9.76475 6.80919 10.5108 7.36995 11.0726C7.46932 11.1714 7.57785 11.2655 7.69424 11.3523C7.74015 11.3865 7.76776 11.4414 7.76776 11.5C7.76776 11.5583 7.74015 11.6122 7.69424 11.6474C7.57785 11.7345 7.46948 11.8286 7.36995 11.9273C6.80919 12.4883 6.5 13.2344 6.5 14.0285C6.5 14.8225 6.80919 15.5683 7.36995 16.1292C7.93135 16.6905 8.67736 16.9997 9.47122 16.9997C10.2651 16.9997 11.0113 16.6905 11.5723 16.1292C11.6719 16.0299 11.7658 15.921 11.8521 15.8056C11.8868 15.7595 11.9417 15.7319 12 15.7319C12.0576 15.7319 12.1122 15.7595 12.1474 15.8056C12.2342 15.921 12.328 16.0297 12.427 16.1292C12.4402 16.143 12.4546 16.1565 12.4688 16.17C12.5598 16.2578 12.6556 16.3391 12.755 16.4134C13.2655 16.794 13.881 16.9997 14.5281 16.9997C15.322 16.9997 16.068 16.6905 16.6296 16.1292C16.8631 15.8957 17.0502 15.6287 17.1924 15.3408V16.8157C17.1924 16.9001 17.2614 16.969 17.3464 16.969C17.431 16.969 17.5 16.9001 17.5 16.8157V14.0854C17.5 14.0816 17.4981 14.0782 17.4978 14.0745C17.4979 14.0591 17.5 14.044 17.5 14.0286C17.5 13.2346 17.1905 12.4883 16.6292 11.9273ZM12.7508 11.6474C12.6346 11.7345 12.5262 11.8286 12.427 11.9273C12.3273 12.027 12.2336 12.1359 12.1474 12.251C12.1122 12.2974 12.0576 12.325 12 12.325C11.9417 12.325 11.8868 12.2974 11.8518 12.251C11.7658 12.1359 11.6719 12.027 11.5723 11.9273C11.4733 11.828 11.3646 11.7339 11.2484 11.6474C11.2023 11.6125 11.1747 11.5583 11.1747 11.5C11.1747 11.442 11.2023 11.3871 11.2484 11.3523C11.3646 11.2655 11.4731 11.1714 11.5723 11.0726C11.6719 10.9733 11.7658 10.8644 11.8521 10.7487C11.8868 10.702 11.9417 10.675 12 10.675C12.0576 10.675 12.1122 10.702 12.1474 10.7487C12.2342 10.8644 12.328 10.973 12.427 11.0726C12.5261 11.1714 12.6354 11.2655 12.7508 11.3523C12.7977 11.3865 12.8247 11.4414 12.8247 11.5C12.8245 11.5583 12.7977 11.6122 12.7508 11.6474Z" fill="#FDF1E8"/>
</svg>
