<svg width="24" height="23" viewBox="0 0 24 23" fill="none" xmlns="http://www.w3.org/2000/svg">
<path fill-rule="evenodd" clip-rule="evenodd" d="M1.35348 0.646461C1.54874 0.451199 1.86532 0.451199 2.06058 0.646461L23.3535 21.9393C23.5487 22.1346 23.5487 22.4512 23.3535 22.6465C23.1582 22.8417 22.8416 22.8417 22.6464 22.6465L1.35348 1.35357C1.15822 1.15831 1.15822 0.841723 1.35348 0.646461Z" fill="#979E8A"/>
<path fill-rule="evenodd" clip-rule="evenodd" d="M22.6464 0.646461C22.4511 0.451199 22.1346 0.451199 21.9393 0.646461L0.646408 21.9393C0.451146 22.1346 0.451146 22.4512 0.646408 22.6465C0.84167 22.8417 1.15825 22.8417 1.35351 22.6465L22.6464 1.35357C22.8417 1.15831 22.8417 0.841723 22.6464 0.646461Z" fill="#979E8A"/>
</svg>
