<svg width="178" height="40" viewBox="0 0 178 40" fill="none" xmlns="http://www.w3.org/2000/svg">
<path d="M59.4334 15.121C59.4334 17.1465 59.0439 18.996 58.2645 20.6667C57.4851 22.3379 56.3379 23.6673 54.8229 24.6535C53.3074 25.6407 51.5022 26.1343 49.4073 26.1343C44.9221 26.1343 42.6797 23.7358 42.6797 18.9391C42.6797 16.9132 43.0692 15.069 43.8487 13.406C44.6281 11.7435 45.7748 10.4194 47.2903 9.43174C48.8053 8.44456 50.6105 7.95145 52.7063 7.95145C57.1906 7.95193 59.4334 10.3418 59.4334 15.121ZM50.1212 11.6013C49.5409 12.8223 49.069 14.7836 48.7055 17.4849C48.4457 19.4072 48.3156 20.9222 48.3156 22.0308C48.3156 22.7582 48.4105 23.3164 48.6014 23.7063C48.7918 24.0963 49.1639 24.291 49.7182 24.291C50.6534 24.291 51.4106 23.6803 51.991 22.4598C52.5709 21.2389 53.0428 19.2775 53.4067 16.5763C53.6665 14.654 53.7966 13.139 53.7966 12.0308C53.7966 11.3029 53.6969 10.7452 53.4978 10.3548C53.2982 9.96485 52.9218 9.77012 52.3679 9.77012C51.4502 9.77012 50.7016 10.3808 50.1212 11.6013Z" fill="#213F2E"/>
<path d="M72.8756 13.2118C73.8015 14.1209 74.2653 15.5279 74.2653 17.4328C74.2653 19.0606 73.936 20.5327 73.2781 21.8487C72.6196 23.1641 71.6628 24.2086 70.4076 24.9779C69.1519 25.7487 67.6673 26.1338 65.9528 26.1338C62.2643 26.1338 60.4201 24.2462 60.4201 20.471C60.4201 18.8437 60.7532 17.376 61.4203 16.0682C62.0865 14.761 63.0524 13.7299 64.3163 12.977C65.5802 12.2236 67.0696 11.8472 68.7842 11.8472C70.585 11.8481 71.9486 12.3027 72.8756 13.2118ZM66.6676 14.7706C66.2429 15.6797 65.8838 17.1995 65.5898 19.3291C65.3821 20.8186 65.2779 21.9962 65.2779 22.8619C65.2779 23.4335 65.3517 23.8621 65.4987 24.1474C65.6457 24.4337 65.9272 24.5764 66.3427 24.5764C67.0354 24.5764 67.5936 24.1224 68.0182 23.2128C68.4424 22.3032 68.8015 20.7843 69.096 18.6538C69.3038 17.1648 69.4074 15.9877 69.4074 15.1215C69.4074 14.5494 69.338 14.1214 69.1997 13.836C69.0608 13.5497 68.7842 13.407 68.3682 13.407C67.6586 13.4065 67.0918 13.8611 66.6676 14.7706Z" fill="#213F2E"/>
<path d="M87.9012 22.0564C87.5026 24.1002 87.009 25.7448 86.4204 26.9913C85.8314 28.2388 84.9922 29.187 83.9009 29.8353C82.8101 30.485 81.3553 30.8094 79.5371 30.8094C77.9956 30.8094 76.6623 30.579 75.5368 30.1206C74.4113 29.6618 73.8483 28.8953 73.8483 27.8214C73.8483 27.0767 74.1211 26.4876 74.6668 26.0553C75.2119 25.6229 75.8747 25.4055 76.6537 25.4055C77.2075 25.4055 77.7228 25.4961 78.1995 25.6778C78.6758 25.8596 79.0609 26.1411 79.3554 26.5223C78.9568 26.9542 78.7582 27.4054 78.7582 27.873C78.7582 28.167 78.8401 28.4311 79.005 28.6659C79.1693 28.8992 79.4161 29.0163 79.7454 29.0163C80.507 29.0163 81.1481 28.5054 81.6672 27.484C82.1868 26.4621 82.6452 24.801 83.0438 22.4965C82.5763 23.0161 81.9747 23.4143 81.2387 23.6914C80.5026 23.9691 79.7362 24.1074 78.9399 24.1074C76.4985 24.1074 75.2775 22.7655 75.2775 20.0811C75.2775 18.6442 75.6062 17.2931 76.2647 16.0292C76.9226 14.7653 77.8578 13.7516 79.07 12.99C80.2819 12.2284 81.6759 11.8472 83.2521 11.8472C84.1872 11.8472 84.9835 11.9947 85.642 12.2887L89.8495 11.8732L87.9012 22.0564ZM83.3297 13.4065C82.585 13.4065 81.9877 13.8143 81.5375 14.6275C81.0868 15.4416 80.7668 16.3984 80.5764 17.4979C80.3855 18.5979 80.2905 19.615 80.2905 20.5501C80.2905 21.0523 80.3556 21.438 80.4853 21.706C80.6149 21.9749 80.8704 22.1085 81.2512 22.1085C82.3252 22.1085 83.0607 21.0528 83.4594 18.9396L84.4465 13.77C84.152 13.528 83.7799 13.4065 83.3297 13.4065Z" fill="#213F2E"/>
<path d="M102.967 21.7445C102.88 22.2131 102.837 22.5765 102.837 22.8363C102.837 23.1998 102.941 23.5107 103.149 23.7705C103.356 24.0303 103.659 24.1783 104.057 24.212C103.866 24.8353 103.451 25.312 102.811 25.6407C102.17 25.9704 101.486 26.1343 100.758 26.1343C100.151 26.1343 99.611 26.008 99.1352 25.7578C98.659 25.5067 98.3341 25.1384 98.1611 24.6535C97.7282 25.1221 97.1614 25.4855 96.46 25.7453C95.7587 26.0046 94.9922 26.1353 94.1612 26.1353C92.6891 26.1353 91.6282 25.7024 90.9784 24.8362C90.3292 23.971 90.0043 22.698 90.0043 21.0181C90.0043 19.2693 90.3243 17.698 90.9649 16.3035C91.606 14.9099 92.5368 13.8196 93.7573 13.0305C94.9783 12.2429 96.4374 11.8491 98.135 11.8491C99.2085 11.8491 100.083 12.0139 100.757 12.3422L104.836 11.8491L102.967 21.7445ZM98.7327 13.5236C98.4739 13.4455 98.231 13.4065 98.0059 13.4065C97.5378 13.4065 97.1353 13.5882 96.7979 13.9522C96.46 14.3156 96.1616 14.9263 95.9018 15.7838C95.642 16.6404 95.3991 17.8223 95.1749 19.3286C94.9667 20.7487 94.8626 21.9176 94.8626 22.8353C94.8626 23.3714 94.9281 23.7791 95.0573 24.0553C95.188 24.3325 95.4511 24.4708 95.8507 24.4708C96.474 24.4708 96.9632 24.146 97.318 23.4967C97.6728 22.8464 97.9292 22.0897 98.0844 21.223L99.383 13.8721C99.209 13.7184 98.9926 13.6017 98.7327 13.5236Z" fill="#213F2E"/>
<path d="M123.383 8.65328C124.37 9.12084 124.863 9.9263 124.863 11.0692C124.863 11.9696 124.552 12.6623 123.929 13.1472C123.305 13.6321 122.569 13.875 121.72 13.875C121.201 13.875 120.699 13.7878 120.214 13.6152C120.474 13.0431 120.605 12.3687 120.605 11.5893C120.605 10.2555 120.111 9.58937 119.124 9.58937C118.449 9.58937 117.847 9.85352 117.319 10.3823C116.79 10.9106 116.526 11.503 116.526 12.161C116.526 12.5938 116.651 12.9838 116.902 13.3299C117.153 13.6769 117.465 13.9758 117.837 14.2259C118.209 14.4771 118.733 14.7933 119.409 15.1741C119.617 15.2777 119.928 15.4512 120.343 15.6937C121.313 16.2659 122.071 16.88 122.616 17.5379C123.162 18.1964 123.434 19.0351 123.434 20.0574C123.434 21.2876 123.032 22.3605 122.226 23.2788C121.421 24.1961 120.351 24.9018 119.019 25.3958C117.684 25.8894 116.257 26.1362 114.732 26.1362C113.364 26.1362 112.187 25.9025 111.2 25.4349C110.213 24.9668 109.72 24.1194 109.72 22.8893C109.72 22.0236 109.988 21.3136 110.525 20.7593C111.061 20.2059 111.798 19.9283 112.733 19.9283C113.356 19.9283 113.97 20.0411 114.577 20.2662C114.3 20.9767 114.162 21.7296 114.162 22.5259C114.162 23.1323 114.27 23.5907 114.487 23.9021C114.702 24.2134 115.087 24.3701 115.642 24.3701C116.317 24.3701 116.91 24.171 117.421 23.7724C117.932 23.3742 118.187 22.8551 118.187 22.215C118.187 21.5744 117.94 21.0326 117.447 20.591C116.954 20.1495 116.221 19.6429 115.252 19.0717L114.447 18.5786C113.494 17.9896 112.749 17.349 112.212 16.6563C111.676 15.9636 111.408 15.0892 111.408 14.0331C111.408 12.8382 111.771 11.7777 112.499 10.8508C113.226 9.92485 114.226 9.2105 115.499 8.70823C116.771 8.20596 118.196 7.95483 119.772 7.95483C121.192 7.95194 122.396 8.18572 123.383 8.65328Z" fill="#213F2E"/>
<path d="M132.682 12.3677H134.708L134.474 13.5366H132.475L130.916 21.744C130.83 22.2126 130.786 22.576 130.786 22.8358C130.786 23.1993 130.891 23.5102 131.098 23.77C131.304 24.0298 131.609 24.1778 132.007 24.2115C131.816 24.8348 131.405 25.3115 130.773 25.6402C130.14 25.9699 129.435 26.1338 128.655 26.1338C127.754 26.1338 127.032 25.9034 126.486 25.4455C125.941 24.9866 125.668 24.3243 125.668 23.4581C125.668 22.6261 125.945 20.8258 126.5 18.0556L126.631 17.4058L127.384 13.5362H125.851L125.955 12.7567C128.034 12.1335 130.077 11.0595 132.086 9.53586H133.306L132.682 12.3677Z" fill="#213F2E"/>
<path d="M146.227 13.2118C147.153 14.1209 147.618 15.5279 147.618 17.4328C147.618 19.0606 147.288 20.5327 146.63 21.8487C145.972 23.1641 145.015 24.2086 143.76 24.9779C142.505 25.7482 141.02 26.1338 139.306 26.1338C135.618 26.1338 133.772 24.2462 133.772 20.471C133.772 18.8437 134.105 17.376 134.772 16.0682C135.439 14.761 136.405 13.7299 137.669 12.977C138.932 12.2236 140.422 11.8472 142.136 11.8472C143.937 11.8481 145.3 12.3027 146.227 13.2118ZM140.019 14.7706C139.595 15.6797 139.236 17.1995 138.942 19.3291C138.734 20.8186 138.63 21.9962 138.63 22.8619C138.63 23.4335 138.704 23.8621 138.851 24.1474C138.999 24.4337 139.281 24.5764 139.696 24.5764C140.389 24.5764 140.946 24.1224 141.372 23.2128C141.796 22.3032 142.155 20.7843 142.449 18.6538C142.658 17.1648 142.76 15.9877 142.76 15.1215C142.76 14.5494 142.691 14.1214 142.552 13.836C142.414 13.5497 142.137 13.407 141.721 13.407C141.01 13.4065 140.444 13.8611 140.019 14.7706Z" fill="#213F2E"/>
<path d="M159.228 11.8481C161.722 11.8481 162.968 12.8613 162.968 14.8873C162.968 15.4069 162.899 16.0171 162.761 16.7185C162.621 17.4198 162.431 18.2643 162.189 19.251C161.963 20.1519 161.799 20.8668 161.695 21.3941C161.591 21.9229 161.54 22.3683 161.54 22.7317C161.54 23.6148 161.947 24.1079 162.761 24.2115C162.57 24.8348 162.154 25.3115 161.513 25.6402C160.873 25.9699 160.172 26.1338 159.409 26.1338C158.51 26.1338 157.787 25.9039 157.241 25.4455C156.695 24.9866 156.423 24.3243 156.423 23.4581C156.423 23.0257 156.479 22.5148 156.593 21.9248C156.704 21.3362 156.891 20.4884 157.151 19.3797C157.393 18.3583 157.583 17.5095 157.723 16.8342C157.861 16.1588 157.931 15.5872 157.931 15.1196C157.931 14.2708 157.628 13.8461 157.021 13.8461C156.38 13.8461 155.882 14.2148 155.527 14.9504C155.172 15.6865 154.882 16.6086 154.657 17.7167L153.124 25.6132L147.929 26.1329L150.631 12.3653L154.891 11.8462L154.475 14.3913C155.357 12.697 156.941 11.8481 159.228 11.8481Z" fill="#213F2E"/>
<path d="M177.021 15.0169C177.021 16.3333 176.462 17.3769 175.345 18.1472C174.229 18.9184 172.561 19.3638 170.345 19.4848C170.068 19.5022 169.626 19.5108 169.02 19.5108C168.969 19.8743 168.942 20.2382 168.942 20.6016C168.942 21.3642 169.107 21.9315 169.435 22.3027C169.764 22.6753 170.31 22.8614 171.072 22.8614C171.765 22.8614 172.445 22.7139 173.111 22.4198C173.777 22.1258 174.275 21.7272 174.605 21.2249C175.037 21.4842 175.255 21.8997 175.255 22.4719C175.255 23.1993 174.985 23.8447 174.449 24.4072C173.912 24.9702 173.198 25.3987 172.306 25.6933C171.414 25.9868 170.475 26.1348 169.487 26.1348C167.756 26.1348 166.418 25.6629 165.475 24.7186C164.531 23.7753 164.059 22.3514 164.059 20.4464C164.059 18.8881 164.379 17.4593 165.02 16.1598C165.66 14.8617 166.626 13.8186 167.916 13.03C169.206 12.2424 170.795 11.8486 172.683 11.8486C175.575 11.8481 177.021 12.9047 177.021 15.0169ZM170.41 14.4588C169.899 15.3153 169.496 16.6279 169.202 18.394C170.379 18.394 171.315 18.0392 172.007 17.3292C172.7 16.6187 173.046 15.7019 173.046 14.5754C173.046 14.1252 172.976 13.7796 172.838 13.5371C172.699 13.2947 172.457 13.1737 172.11 13.1737C171.488 13.1732 170.92 13.6017 170.41 14.4588Z" fill="#213F2E"/>
<path d="M8.9264 39.0769C8.67127 39.0769 8.46484 39.2848 8.46484 39.5384C8.46484 39.7945 8.67127 40 8.9264 40C13.5714 40 17.4829 36.798 18.5685 32.481C18.2907 32.2991 18.0202 32.0975 17.7602 31.8829C16.9128 35.9853 13.2748 39.0769 8.9264 39.0769Z" fill="#213F2E"/>
<path d="M30.4312 17.8075C30.1331 17.5089 29.8066 17.2263 29.4599 16.9663C29.3195 16.8617 29.2356 16.6987 29.2356 16.5236C29.2356 16.3495 29.3195 16.1845 29.4599 16.0799C29.8066 15.8189 30.1331 15.5363 30.4322 15.2397C32.1173 13.5517 33.0472 11.3109 33.0472 8.92544C33.0472 6.5424 32.1173 4.30115 30.4312 2.61599C28.7451 0.928909 26.5038 0 24.1189 0C21.7358 0 19.4931 0.928909 17.8065 2.61406C17.5089 2.91261 17.2273 3.24057 16.9664 3.58734C16.8607 3.72673 16.6967 3.80872 16.5236 3.80872C16.3485 3.80872 16.1836 3.72673 16.0784 3.58734C15.8185 3.24057 15.5354 2.91357 15.2388 2.61599C13.5531 0.928909 11.3095 0 8.92641 0C6.54144 0 4.30019 0.928909 2.61358 2.61406C0.92891 4.30115 0 6.54191 0 8.92737C0 11.3104 0.92891 13.5517 2.61358 15.2397C2.91213 15.5363 3.23816 15.8189 3.58783 16.0799C3.72577 16.1826 3.80872 16.3475 3.80872 16.5236C3.80872 16.6987 3.72577 16.8607 3.58783 16.9663C3.23816 17.2282 2.91261 17.5109 2.61358 17.8075C0.92891 19.4926 0 21.7344 0 24.1198C0 26.5053 0.92891 28.746 2.61358 30.4312C4.30019 32.1173 6.54144 33.0462 8.92641 33.0462C11.3114 33.0462 13.5531 32.1173 15.2388 30.4312C15.5378 30.1326 15.8199 29.8056 16.0794 29.4589C16.1836 29.3204 16.3485 29.2375 16.5236 29.2375C16.6967 29.2375 16.8607 29.3204 16.9664 29.4589C17.2273 29.8056 17.5089 30.1322 17.8065 30.4312C17.8461 30.4727 17.8895 30.5132 17.9319 30.5537C18.2054 30.8175 18.4933 31.0615 18.7919 31.2848C20.3256 32.4284 22.1747 33.0462 24.1189 33.0462C26.5038 33.0462 28.7451 32.1173 30.4322 30.4312C31.1339 29.7294 31.6958 28.9274 32.1231 28.0626V32.4935C32.1231 32.7472 32.3305 32.9541 32.5856 32.9541C32.8398 32.9541 33.0472 32.7472 33.0472 32.4935V24.291C33.0472 24.2794 33.0414 24.2693 33.0404 24.2582C33.0409 24.2119 33.0472 24.1666 33.0472 24.1203C33.0472 21.7348 32.1173 19.4926 30.4312 17.8075ZM18.7793 16.9663C18.4301 17.2282 18.1046 17.5109 17.8065 17.8075C17.507 18.107 17.2253 18.434 16.9664 18.7798C16.8607 18.9192 16.6967 19.0021 16.5236 19.0021C16.3485 19.0021 16.1836 18.9192 16.0784 18.7798C15.8199 18.434 15.5378 18.107 15.2388 17.8075C14.9412 17.5089 14.6147 17.2263 14.2655 16.9663C14.127 16.8617 14.0441 16.6987 14.0441 16.5236C14.0441 16.3495 14.127 16.1845 14.2655 16.0799C14.6147 15.8189 14.9407 15.5363 15.2388 15.2397C15.5378 14.9412 15.8199 14.6142 16.0794 14.2664C16.1836 14.1261 16.3485 14.045 16.5236 14.045C16.6967 14.045 16.8607 14.1261 16.9664 14.2664C17.2273 14.6142 17.5089 14.9402 17.8065 15.2397C18.1041 15.5363 18.4325 15.8189 18.7793 16.0799C18.9201 16.1826 19.0012 16.3475 19.0012 16.5236C19.0007 16.6987 18.9201 16.8607 18.7793 16.9663Z" fill="#213F2E"/>
</svg>
