<svg width="105" height="33" viewBox="0 0 105 33" fill="none" xmlns="http://www.w3.org/2000/svg">
<path fill-rule="evenodd" clip-rule="evenodd" d="M0.55188 32V28.9443L3.89845 28.6051C3.93587 25.3177 3.93587 21.9344 3.93587 18.544V16.852C3.93587 13.4479 3.93586 10.0974 3.89798 6.75797L0.55188 6.46406V3.36005H14.3959V6.46668L11.1406 6.74328C11.0903 9.68529 11.0846 12.6895 11.084 15.708H19.8838C19.8829 12.6882 19.8753 9.71196 19.8077 6.746L16.5359 6.46617V3.36005H30.4159V6.46565L27.0524 6.75523C26.9959 10.0649 26.9959 13.4533 26.9959 16.852V18.544C26.9959 21.8957 26.9959 25.2608 27.0529 28.6084L30.4159 28.9425V32H16.5359V28.9419L19.8085 28.6189C19.8764 25.632 19.8832 22.4946 19.8838 19.004H11.0839C11.0844 22.4566 11.0896 25.5812 11.1412 28.6222L14.3959 28.9413V32H0.55188ZM13.3959 31V29.848L10.158 29.5306C10.1512 29.1959 10.145 28.8604 10.1395 28.524C10.0894 25.5093 10.0844 22.4126 10.0839 19.004C10.0839 18.6737 10.0839 18.3404 10.0839 18.004H20.8839C20.8839 18.3406 20.8839 18.6738 20.8838 19.004C20.8832 22.4463 20.8767 25.556 20.8109 28.52C20.8035 28.8576 20.7952 29.1932 20.7861 29.5273L17.5359 29.848V31H29.4159V29.848L26.0696 29.5156C26.0629 29.1802 26.0567 28.8446 26.0511 28.5089C25.9959 25.1888 25.9959 21.8549 25.9959 18.544V16.852C25.9959 13.4908 25.9959 10.1295 26.0508 6.84146C26.0564 6.50557 26.0626 6.17044 26.0694 5.83616L29.4159 5.54805V4.36005H17.5359V5.54805L20.7851 5.82594C20.7941 6.16113 20.8024 6.49637 20.8099 6.83171C20.8755 9.77466 20.8829 12.7248 20.8838 15.708C20.8839 16.041 20.8839 16.3743 20.8839 16.708H10.0839C10.0839 16.3747 10.0839 16.0413 10.084 15.708C10.0846 12.7245 10.0901 9.74758 10.139 6.82838C10.1446 6.49253 10.1508 6.15744 10.1576 5.82319L13.3959 5.54805V4.36005H1.55188V5.54805L4.88668 5.84097C4.8912 6.17588 4.8953 6.51084 4.89902 6.8459C4.93587 10.1598 4.93587 13.4829 4.93587 16.852V18.544C4.93587 21.8941 4.93587 25.2441 4.89965 28.5036C4.89591 28.8401 4.89179 29.1756 4.88724 29.51L1.55188 29.848V31H13.3959ZM52.153 26.8054L51.753 27.5495C50.0281 30.7585 47.0229 32.612 43.0962 32.612C39.975 32.612 37.2105 31.6455 35.2224 29.693C33.2301 27.7363 32.1242 24.8939 32.1242 21.352C32.1242 14.2911 37.209 10.164 42.8441 10.164C45.7031 10.164 48.0116 11.1201 49.6037 12.7747C51.1887 14.4218 51.9801 16.674 51.9801 19.12C51.9801 20.0447 51.9027 20.7878 51.6917 21.5477L51.4882 22.28H39.2973C39.4803 24.3221 40.0601 25.7358 40.8381 26.6626C41.7653 27.7673 43.0809 28.308 44.7162 28.308C45.8577 28.308 46.7474 28.0844 47.4795 27.7018C48.214 27.3179 48.8439 26.7457 49.4241 25.972L50.0348 25.1579L52.153 26.8054ZM38.2936 22.28C38.7054 27.1956 41.2883 29.308 44.7162 29.308C46.8084 29.308 48.2976 28.6326 49.4799 27.4398C49.6677 27.2503 49.8477 27.0479 50.0212 26.833C50.0612 26.7835 50.1008 26.7333 50.14 26.6825C50.1682 26.646 50.1963 26.6092 50.2242 26.572L50.8721 27.076C50.682 27.4298 50.475 27.7651 50.2516 28.0811C48.6561 30.3379 46.2224 31.612 43.0962 31.612C37.2642 31.612 33.1242 28.012 33.1242 21.352C33.1242 14.872 37.7321 11.164 42.8441 11.164C48.1002 11.164 50.9801 14.656 50.9801 19.12C50.9801 19.984 50.9082 20.632 50.7281 21.28H38.2411C38.2491 21.6255 38.2667 21.9588 38.2936 22.28ZM44.4282 20.056C45.9402 20.056 46.4082 19.3 46.4082 17.32C46.4082 14.152 44.9322 12.352 42.6642 12.352C40.4825 12.352 38.6726 14.4678 38.3046 19.056C38.2788 19.3772 38.2601 19.7105 38.2488 20.056H44.4282ZM39.3079 19.056H44.4282C45.0258 19.056 45.1266 18.9132 45.1663 18.8565C45.2792 18.6955 45.4082 18.294 45.4082 17.32C45.4082 15.877 45.0705 14.8755 44.5948 14.2588C44.1421 13.6718 43.5056 13.352 42.6642 13.352C41.8675 13.352 41.0594 13.7614 40.3994 14.911C39.8739 15.8262 39.4663 17.1844 39.3079 19.056ZM53.7121 32V29.0494L56.4997 28.7757C56.5372 26.7553 56.5561 24.5252 56.5561 22.576V5.03498L53.7121 4.81898V2.09062L62.1727 0.499023L63.5384 1.31846L63.3801 7.61246V22.576C63.3801 24.5324 63.399 26.7669 63.4504 28.7868L66.1881 29.0464V32H53.7121ZM65.1881 31V29.956L62.4758 29.6989C62.4655 29.3703 62.4561 29.0338 62.4477 28.6917C62.3983 26.6909 62.3801 24.4968 62.3801 22.576V7.60005L62.5241 1.87605L61.9841 1.55205L54.7121 2.92005V3.89205L57.5561 4.10805V22.576C57.5561 24.4922 57.5379 26.6804 57.5017 28.6773C57.4955 29.0192 57.4887 29.3556 57.4814 29.6841L54.7121 29.956V31H65.1881ZM68.3089 32V29.0494L71.0966 28.7757C71.1341 26.7553 71.1529 24.5252 71.1529 22.576V5.03498L68.3089 4.81898V2.09062L76.7696 0.499023L78.1353 1.31846L77.9769 7.61246V22.576C77.9769 24.5324 77.9959 26.7669 78.0473 28.7868L80.7849 29.0464V32H68.3089ZM79.7849 31V29.956L77.0727 29.6989C77.0624 29.3703 77.053 29.0338 77.0446 28.6917C76.9952 26.6909 76.9769 24.4968 76.9769 22.576V7.60005L77.1209 1.87605L76.5809 1.55205L69.3089 2.92005V3.89205L72.1529 4.10805V22.576C72.1529 24.4922 72.1348 26.6804 72.0985 28.6773C72.0923 29.0192 72.0856 29.3556 72.0783 29.6841L69.3089 29.956V31H79.7849ZM101.636 29.5831C99.6778 31.567 96.9518 32.612 93.8778 32.612C90.7978 32.612 88.0886 31.5449 86.1498 29.5506C84.2119 27.5572 83.1218 24.7185 83.1218 21.316C83.1218 17.869 84.3284 15.0645 86.3164 13.1218C88.2977 11.1857 90.9953 10.164 93.8778 10.164C96.771 10.164 99.4863 11.1628 101.484 13.0904C103.49 15.0257 104.706 17.833 104.706 21.316C104.706 24.757 103.596 27.5983 101.636 29.5831ZM91.3987 27.676C92.0402 28.9075 92.8729 29.388 93.8778 29.388C94.9267 29.388 95.7646 28.8995 96.4019 27.676C97.0754 26.3833 97.4858 24.3142 97.4858 21.352C97.4858 18.3895 97.0753 16.3308 96.4031 15.0483C95.7682 13.8369 94.9319 13.352 93.8778 13.352C92.8677 13.352 92.0366 13.8289 91.3975 15.0483C90.7244 16.3326 90.3058 18.3928 90.3058 21.352C90.3058 24.3109 90.7243 26.3815 91.3987 27.676ZM103.706 21.316C103.706 27.76 99.5658 31.612 93.8778 31.612C88.1898 31.612 84.1218 27.688 84.1218 21.316C84.1218 14.908 88.5858 11.164 93.8778 11.164C99.2058 11.164 103.706 14.836 103.706 21.316ZM89.3058 21.352C89.3058 27.4 90.9978 30.388 93.8778 30.388C96.8298 30.388 98.4858 27.4 98.4858 21.352C98.4858 15.304 96.8298 12.352 93.8778 12.352C90.9978 12.352 89.3058 15.304 89.3058 21.352Z" fill="#979E8A"/>
</svg>
