<svg width="40" height="40" viewBox="0 0 40 40" fill="none" xmlns="http://www.w3.org/2000/svg">
<g clip-path="url(#clip0_248_1579)">
<path fill-rule="evenodd" clip-rule="evenodd" d="M20 40C31.0457 40 40 31.0457 40 20C40 8.9543 31.0457 0 20 0C8.9543 0 0 8.9543 0 20C0 31.0457 8.9543 40 20 40ZM24.9713 13.3333C24.8635 11.7965 24.4589 10.3604 23.8044 9.21498C23.0597 7.9118 21.777 6.66667 20.0003 6.66667C18.2236 6.66667 16.9409 7.9118 16.1962 9.21498C15.5417 10.3604 15.1371 11.7965 15.0293 13.3333H10.145C9.1699 13.3333 8.40309 14.1667 8.48406 15.1384L9.87295 31.8051C9.94494 32.6689 10.667 33.3333 11.5339 33.3333H28.4667C29.3336 33.3333 30.0557 32.6689 30.1277 31.8051L31.5165 15.1384C31.5975 14.1667 30.8307 13.3333 29.8556 13.3333H24.9713ZM23.2999 13.3333C23.0688 10.5064 21.6796 8.33333 20.0003 8.33333C18.321 8.33333 16.9318 10.5064 16.7007 13.3333H23.2999ZM16.6668 20.2781C16.6668 19.8321 16.906 19.3647 17.4184 18.9804C17.9312 18.5958 18.6777 18.3333 19.5377 18.3333C20.4616 18.3333 21.2516 18.6359 21.7634 19.0648C22.2029 19.433 22.4085 19.863 22.4085 20.2781C22.4085 20.7384 22.7816 21.1115 23.2419 21.1115C23.7021 21.1115 24.0752 20.7384 24.0752 20.2781C24.0752 19.2702 23.5675 18.4021 22.8339 17.7873C21.9892 17.0795 20.8079 16.6667 19.5377 16.6667C18.3519 16.6667 17.2463 17.0261 16.4184 17.647C15.5902 18.2682 15.0002 19.1899 15.0002 20.2781C15.0002 21.3664 15.5902 22.2881 16.4184 22.9092C17.245 23.5292 18.3482 23.8884 19.5317 23.8896L19.5377 23.8896C20.3977 23.8896 21.1442 24.1521 21.6569 24.5367C22.1694 24.921 22.4085 25.3884 22.4085 25.8344C22.4085 26.2805 22.1694 26.7478 21.6569 27.1322C21.1442 27.5167 20.3977 27.7792 19.5377 27.7792C18.6138 27.7792 17.8237 27.4766 17.3119 27.0478C16.8725 26.6795 16.6668 26.2496 16.6668 25.8344C16.6668 25.3742 16.2937 25.0011 15.8335 25.0011C15.3733 25.0011 15.0002 25.3742 15.0002 25.8344C15.0002 26.8423 15.5078 27.7105 16.2415 28.3252C17.0862 29.0331 18.2675 29.4459 19.5377 29.4459C20.7234 29.4459 21.829 29.0865 22.6569 28.4655C23.4851 27.8444 24.0752 26.9227 24.0752 25.8344C24.0752 24.7462 23.4851 23.8245 22.6569 23.2033C21.8304 22.5834 20.7271 22.2242 19.5436 22.223L19.5377 22.2229C18.6777 22.2229 17.9312 21.9605 17.4184 21.5759C16.906 21.1916 16.6668 20.7242 16.6668 20.2781Z" fill="#21402F"/>
</g>
<defs>
<clipPath id="clip0_248_1579">
<rect width="40" height="40" fill="white"/>
</clipPath>
</defs>
</svg>
