<svg width="720" height="95" viewBox="0 0 717 93" fill="none" xmlns="http://www.w3.org/2000/svg">
<path fill-rule="evenodd" clip-rule="evenodd" d="M0 69.8725V65.4483L8.00324 64.6637C8.15996 56.4564 8.16 47.8653 8.16 38.4637V35.8287C8.16 27.1181 8.15996 18.7274 8.00146 10.3846L0 9.70477V5.18501H27.8387C38.1247 5.18501 46.4247 8.16981 52.1564 13.7582C57.891 19.3494 60.9475 27.4424 60.9475 37.4437C60.9475 47.4177 57.7114 55.5544 51.72 61.1933C45.7352 66.8261 37.1015 69.8725 26.4787 69.8725H0ZM26.4787 68.9787C47.3887 68.9787 60.0537 56.9937 60.0537 37.4437C60.0537 17.8087 48.0687 6.07875 27.8387 6.07875H0.893743V8.88375L8.87924 9.56225C8.8853 9.86169 8.89115 10.1612 8.8968 10.4607C9.05374 18.7836 9.05374 27.1524 9.05374 35.8287V38.4637C9.05374 47.8228 9.05374 56.3891 8.89881 64.5759C8.89313 64.8763 8.88723 65.1763 8.88112 65.4757L0.893743 66.2587V68.9787H26.4787ZM21.2879 10.0325C21.1237 18.4047 21.1237 27.0216 21.1237 35.8287V38.4637C21.1237 47.9108 21.1237 56.5889 21.2907 65.11C21.2965 65.4081 21.3026 65.706 21.3088 66.0038H26.1387C39.9087 66.0038 47.5587 55.3787 47.5587 37.5288C47.5587 18.9987 39.9087 9.13874 26.6487 9.13874H21.3061C21.2998 9.43634 21.2937 9.73426 21.2879 10.0325ZM22.1818 10.0325C22.0175 18.3989 22.0175 27.0132 22.0175 35.8287V38.4637C22.0175 47.9195 22.0175 56.5944 22.1846 65.11H26.1387C32.7653 65.11 37.8441 62.5687 41.2953 57.9268C44.7737 53.2481 46.665 46.3434 46.665 37.5288C46.665 28.3676 44.771 21.4879 41.3601 16.9197C37.9784 12.3907 33.0312 10.0325 26.6487 10.0325H22.1818ZM114.754 59.4718L114.396 60.1369C110.583 67.2309 103.988 71.3175 95.2491 71.3175C88.1807 71.3175 82.0518 69.1331 77.6866 64.8458C73.3175 60.5547 70.8103 54.2506 70.8103 46.1987C70.8103 30.3796 82.1164 21.25 94.6541 21.25C101.065 21.25 106.113 23.3855 109.557 26.964C112.994 30.5359 114.758 35.4675 114.758 40.9287C114.758 43.0229 114.583 44.638 114.13 46.268L113.948 46.9225H84.7106C84.9794 52.7904 86.4979 56.9459 88.7936 59.681C91.3127 62.6823 94.8656 64.09 99.0741 64.09C101.97 64.09 104.31 63.5203 106.278 62.4917C108.249 61.4619 109.895 59.9468 111.364 57.9875L111.91 57.2599L114.754 59.4718ZM83.816 46.9225C84.3831 59.5769 90.6472 64.9837 99.0741 64.9837C104.799 64.9837 108.611 62.8423 111.6 59.1398C111.762 58.939 111.922 58.7336 112.079 58.5237L113.609 59.7137C109.954 66.5137 103.664 70.4238 95.2491 70.4238C81.4791 70.4238 71.7041 61.9237 71.7041 46.1987C71.7041 30.8987 82.5841 22.1437 94.6541 22.1437C107.064 22.1437 113.864 30.3887 113.864 40.9287C113.864 42.9687 113.694 44.4987 113.269 46.0287H83.7857C83.7927 46.3306 83.8028 46.6285 83.816 46.9225ZM98.3941 43.1387C101.964 43.1387 103.069 41.3537 103.069 36.6787C103.069 29.1987 99.5841 24.9487 94.2291 24.9487C88.8509 24.9487 84.4294 30.3946 83.8406 42.245C83.826 42.539 83.8138 42.8369 83.8039 43.1387H98.3941ZM84.7355 42.245H98.3941C100.038 42.245 100.854 41.84 101.338 41.1488C101.888 40.3644 102.175 39.0019 102.175 36.6787C102.175 33.0648 101.332 30.3472 99.9495 28.5546C98.5874 26.7886 96.6451 25.8425 94.2291 25.8425C91.721 25.8425 89.3744 27.1856 87.6091 30.26C86.0773 32.9278 85.0071 36.8744 84.7355 42.245ZM148.33 40.8429L148.334 40.8442C152.831 42.3143 156.141 44.1854 158.327 46.6219C160.536 49.0836 161.53 52.0479 161.53 55.5487C161.53 60.3585 159.607 64.3452 156.018 67.1054C152.456 69.8446 147.332 71.3175 141.002 71.3175C134.556 71.3175 129.652 69.917 124.6 67.217L124.103 66.951L124.678 54.485H131.099L133.393 65.1918C135.413 66.0091 137.511 66.385 140.152 66.385C143.502 66.385 145.925 65.7402 147.488 64.6363C149.002 63.5661 149.798 62.0025 149.798 59.8837C149.798 58.1768 149.4 56.8756 148.299 55.7481C147.153 54.5738 145.162 53.5014 141.768 52.4957L141.751 52.4907L136.988 50.8745C136.986 50.8738 136.983 50.873 136.981 50.8723C133.202 49.6552 130.092 47.9549 127.923 45.592C125.732 43.2065 124.553 40.2028 124.553 36.5087C124.553 32.1321 126.299 28.2833 129.616 25.5451C132.919 22.819 137.708 21.25 143.722 21.25C149.334 21.25 153.64 22.5744 158.498 25.0901L159.008 25.3544L158.427 36.9775H152.571L149.762 27.3272C147.936 26.4816 146.199 26.0975 143.892 26.0975C141.18 26.0975 139.148 26.7659 137.812 27.8437C136.498 28.9038 135.775 30.4245 135.775 32.3437C135.775 33.8427 136.194 35.0678 137.296 36.1611C138.44 37.2956 140.38 38.3473 143.556 39.3083L143.563 39.3105L148.33 40.8429ZM149.438 26.212C147.754 25.5296 146.054 25.2037 143.892 25.2037C138.197 25.2037 134.882 28.0087 134.882 32.3437C134.882 35.7437 136.837 38.2087 143.297 40.1637L148.057 41.6937C156.897 44.5838 160.637 48.9187 160.637 55.5487C160.637 64.6438 153.412 70.4238 141.002 70.4238C134.712 70.4238 129.952 69.0637 125.022 66.4287L125.532 55.3787H130.377L132.617 65.8346C132.948 65.9794 133.281 66.1127 133.617 66.235C135.568 66.9449 137.629 67.2787 140.152 67.2787C147.037 67.2787 150.692 64.6438 150.692 59.8837C150.692 56.1437 148.907 53.6787 142.022 51.6387L137.262 50.0237C129.867 47.6437 125.447 43.4787 125.447 36.5087C125.447 28.2637 131.992 22.1437 143.722 22.1437C149.162 22.1437 153.327 23.4187 158.087 25.8837L157.577 36.0837H153.242L150.509 26.6934C150.15 26.5168 149.794 26.3564 149.438 26.212ZM170.204 69.8725V65.7079L176.262 65.0793C176.36 60.2595 176.409 53.5486 176.409 49.0887V42.7987C176.409 37.5659 176.335 33.9677 176.187 30.1997L169.439 29.6872V26.0392L188.207 21.257L189.935 22.5534L189.671 36.0837V49.0887C189.671 53.5734 189.721 60.3203 189.857 65.1367L195.451 65.7064V69.8725H170.204ZM194.558 68.9787V66.5137L188.988 65.9464C188.978 65.6544 188.969 65.3536 188.961 65.0453C188.826 60.2165 188.778 53.5311 188.778 49.0887V36.0837L189.033 22.9937L188.013 22.2287L170.333 26.7337V28.8587L177.048 29.3687C177.218 33.4487 177.303 37.1887 177.303 42.7987V49.0887C177.303 53.513 177.254 60.1622 177.158 64.9863C177.151 65.2943 177.145 65.5948 177.138 65.8869L171.098 66.5137V68.9787H194.558ZM190.011 7.09874C190.011 11.3091 186.657 14.1975 182.573 14.1975C178.565 14.1975 175.219 11.3018 175.219 7.09874C175.219 2.98857 178.557 0 182.573 0C186.665 0 190.011 2.9812 190.011 7.09874ZM212.862 50.0635C208.375 47.3534 206.086 42.9108 206.086 37.6138C206.086 28.5187 212.461 22.1437 224.871 22.1437C230.291 22.1437 234.518 23.3934 237.506 25.5213C237.797 25.7283 238.076 25.9435 238.343 26.1668L249.096 22.2287L250.626 23.1637V29.1137L240.452 28.3169C240.693 28.6221 240.92 28.9389 241.132 29.2667C242.632 31.5817 243.401 34.4438 243.401 37.6138C243.401 46.4537 237.026 52.9137 224.786 52.9137C221.52 52.9137 218.671 52.4599 216.248 51.6281C215.951 51.5264 215.661 51.419 215.378 51.3061C215.193 51.565 215.021 51.816 214.862 52.0616C213.809 53.6845 213.311 55.0686 213.311 56.9087C213.311 59.6287 215.181 61.3287 219.686 61.3287H232.181C244.846 61.3287 249.861 66.3438 249.861 73.7388C249.861 82.4938 240.256 91.0788 223.256 91.0788C208.551 91.0788 204.131 86.0638 204.131 79.8587C204.131 75.9705 206.627 72.5926 211.804 70.0033C212.162 69.8241 212.533 69.6487 212.917 69.4772C212.521 69.3363 212.143 69.1833 211.785 69.0184C208.474 67.4953 206.766 64.9543 206.766 61.4987C206.766 58.0488 208.355 54.7312 212.932 51.1372C213.184 50.9399 213.444 50.7419 213.713 50.5429C213.421 50.3897 213.138 50.2299 212.862 50.0635ZM212.11 50.6494C211.436 50.2231 210.809 49.7572 210.229 49.2538C206.876 46.3439 205.193 42.2604 205.193 37.6138C205.193 32.8462 206.871 28.7175 210.239 25.7933C213.593 22.8814 218.521 21.25 224.871 21.25C230.709 21.25 235.305 22.6669 238.51 25.1538L249.194 21.2411L251.52 22.6625V30.0802L242.233 29.3529C243.606 31.7216 244.295 34.55 244.295 37.6138C244.295 42.2602 242.612 46.3431 239.271 49.2528C235.941 52.1519 231.057 53.8075 224.786 53.8075C221.333 53.8075 218.301 53.3122 215.716 52.389C214.647 53.996 214.205 55.2387 214.205 56.9087C214.205 58.042 214.58 58.8555 215.342 59.4211C216.152 60.0222 217.522 60.435 219.686 60.435H232.181C238.609 60.435 243.257 61.7039 246.315 64.0517C249.414 66.4312 250.755 69.8209 250.755 73.7388C250.755 83.2399 240.452 91.9725 223.256 91.9725C215.831 91.9725 210.834 90.7115 207.672 88.5314C204.448 86.3085 203.238 83.2046 203.238 79.8587C203.238 75.663 205.839 72.1673 210.789 69.5236C209.612 68.9029 208.625 68.1365 207.848 67.2186C206.527 65.657 205.873 63.7239 205.873 61.4987C205.873 57.7595 207.595 54.2764 212.11 50.6494ZM214.667 70.2655C214.428 70.5171 214.2 70.7639 213.985 71.0077C212.063 73.1839 211.101 75.1229 211.101 78.0737C211.101 84.2787 215.606 87.5087 223.341 87.5087C234.901 87.5087 240.681 83.4287 240.681 77.1387C240.681 74.0787 238.641 70.8488 232.436 70.8488H222.661C219.512 70.8488 217.484 70.8039 215.698 70.4859C215.347 70.4236 215.006 70.3506 214.667 70.2655ZM214.967 71.2529C214.172 72.1177 213.552 72.909 213.087 73.7172C212.364 74.9737 211.995 76.3054 211.995 78.0737C211.995 80.9355 213.02 83.0135 214.86 84.4053C216.739 85.8266 219.579 86.615 223.341 86.615C229.038 86.615 233.182 85.6063 235.873 83.9246C238.516 82.2728 239.788 79.9592 239.788 77.1387C239.788 75.807 239.347 74.4913 238.279 73.5021C237.206 72.5095 235.389 71.7425 232.436 71.7425H222.661C219.199 71.7425 217.005 71.6917 214.967 71.2529ZM219.365 46.3638C220.625 48.3239 222.432 49.385 224.786 49.385C227.097 49.385 228.93 48.3245 230.223 46.3561C231.54 44.3518 232.308 41.377 232.308 37.6138C232.308 33.6784 231.518 30.662 230.202 28.6589C228.91 26.6919 227.098 25.6725 224.871 25.6725C222.557 25.6725 220.726 26.7157 219.436 28.6891C218.12 30.7019 217.35 33.718 217.35 37.6138C217.35 41.3857 218.079 44.3612 219.365 46.3638ZM258.632 69.8725V65.7079L264.775 65.0705C264.873 60.2513 264.922 53.5459 264.922 49.0887V42.6287C264.922 37.3943 264.848 34.1668 264.7 30.4438L258.037 29.8459V26.2263L275.754 21.2547L277.561 22.5057L277.938 28.5915C280.007 26.4518 282.024 24.848 284.053 23.6938C287.133 21.9419 290.199 21.25 293.441 21.25C297.551 21.25 301.075 22.5754 303.555 25.4726C306.017 28.3481 307.34 32.6458 307.34 38.3787V49.0887C307.34 53.7457 307.439 60.3747 307.56 65.1402L313.12 65.7064V69.8725H288.042V65.7095L294.016 65.0777C294.113 60.3201 294.162 53.731 294.162 49.0887V37.6138C294.162 34.0592 293.591 31.8476 292.651 30.5378C291.762 29.298 290.442 28.7325 288.511 28.7325C285.999 28.7325 282.229 30.2513 278.185 33.9598V49.0887C278.185 53.5678 278.235 60.3171 278.333 65.1412L283.795 65.7079V69.8725H258.632ZM282.901 68.9787V66.5137L277.457 65.9488C277.45 65.6569 277.444 65.3563 277.438 65.0482C277.34 60.2192 277.291 53.5319 277.291 49.0887V33.5705C277.59 33.2898 277.888 33.0202 278.185 32.7617C282.115 29.3391 285.838 27.8387 288.511 27.8387C292.761 27.8387 295.056 30.3887 295.056 37.6138V49.0887C295.056 53.693 295.008 60.2218 294.912 64.983C294.906 65.291 294.899 65.5915 294.893 65.8837L288.936 66.5137V68.9787H312.226V66.5137L306.688 65.9497C306.68 65.6576 306.672 65.357 306.664 65.0489C306.543 60.2821 306.446 53.7143 306.446 49.0887V38.3787C306.446 27.1587 301.261 22.1437 293.441 22.1437C288.093 22.1437 283.314 24.1011 278.014 29.8114C277.736 30.1108 277.457 30.4204 277.176 30.7407L276.696 22.9937L275.591 22.2287L258.931 26.9037V29.0287L265.561 29.6237C265.731 33.7037 265.816 37.0187 265.816 42.6287V49.0887C265.816 53.5103 265.768 60.1541 265.671 64.9775C265.665 65.2855 265.659 65.586 265.652 65.878L259.526 66.5137V68.9787H282.901ZM346.061 69.8725V65.4698L355.09 64.3412L355.308 10.4803L346.996 9.69725V5.18501H369.328L387.004 51.0812L404.565 5.18501H426.388V9.70385L418.524 10.3809C418.313 18.6745 418.313 27.0864 418.313 35.5737V39.5687C418.313 48.0308 418.313 56.4787 418.522 64.6614L426.643 65.4473V69.8725H396.551V65.4489L404.405 64.6738C404.499 60.2992 404.515 55.9771 404.53 51.8507C404.544 48.1249 404.557 44.5586 404.626 41.2574C404.626 41.2549 404.626 41.2524 404.626 41.2499L404.842 18.9071L385.481 69.8725H380.344L360.46 18.8477L360.768 38.3646L360.769 38.3787L360.768 64.301L370.118 65.4698V69.8725H346.061ZM369.225 68.9787V66.2587L359.875 65.09V38.3787L359.488 13.8916L380.955 68.9787H384.865L405.784 13.9105L405.52 41.2687C405.451 44.5347 405.438 48.0927 405.424 51.8189C405.409 55.9252 405.393 60.2359 405.301 64.5854C405.295 64.8852 405.288 65.1853 405.281 65.4854L397.445 66.2587V68.9787H425.75V66.2587L417.65 65.4749C417.642 65.1752 417.634 64.8751 417.626 64.5747C417.42 56.4114 417.42 47.9901 417.42 39.5687V35.5737C417.42 27.1231 417.42 18.7338 417.628 10.458C417.636 10.1582 417.644 9.85851 417.652 9.55896L425.495 8.88375V6.07875H405.18L387.007 53.575L368.715 6.07875H347.89V8.88375L356.205 9.66709L355.98 65.1305L346.955 66.2587V68.9787H369.225ZM458.69 72.9453L458.689 72.9486C455.951 80.2207 453.114 85.2004 450.001 88.3689C446.853 91.5726 443.438 92.9075 439.662 92.9075C437.316 92.9075 435 92.323 433.209 91.2112C431.411 90.0948 430.084 88.3996 429.931 86.211L429.923 86.1002L429.943 85.9909C430.641 82.1032 434.043 80.41 437.367 80.41C440.743 80.41 443.266 82.4482 445.356 84.8871L445.364 84.8965L446.112 85.7938C449.05 83.2192 451.432 79.2079 453.839 73.3634L434.832 27.323L429.759 26.7704V22.61H455.856V26.7687L449.053 27.5246L460.005 57.5062L464.913 44.1202L470.37 27.5486L462.314 26.7814V22.61H481.526V26.7601L475.601 27.4827L458.69 72.9453ZM474.953 26.6614L480.632 25.9687V23.5037H463.207V25.9687L471.569 26.765L465.757 44.4137L460.003 60.1067L447.823 26.7621L454.962 25.9687V23.5037H430.652V25.9687L435.456 26.4919L454.805 73.362C454.644 73.7588 454.482 74.148 454.32 74.5296C452.007 79.9858 449.643 83.8953 446.684 86.4807C446.458 86.6782 446.229 86.868 445.995 87.0502L444.677 85.4688C442.637 83.0888 440.342 81.3038 437.367 81.3038C434.307 81.3038 431.417 82.8337 430.822 86.1487C431.077 89.8037 435.242 92.0137 439.662 92.0137C441.12 92.0137 442.52 91.8033 443.871 91.3418C444.125 91.2551 444.377 91.1596 444.628 91.0549C445.224 90.8058 445.811 90.505 446.389 90.1489C446.617 90.009 446.843 89.8606 447.067 89.7034C447.277 89.5564 447.486 89.4018 447.694 89.2394C447.95 89.0401 448.203 88.8291 448.455 88.6059C451.788 85.6551 454.859 80.5861 457.852 72.6337L474.953 26.6614ZM565.112 62.7121C559.574 68.4909 552.003 71.4875 543.875 71.4875C535.834 71.4875 528.263 68.5348 522.705 62.7783C517.143 57.019 513.656 48.5177 513.656 37.5288C513.656 26.6649 517.144 18.1657 522.703 12.3766C528.259 6.59024 535.828 3.57 543.875 3.57C551.96 3.57 559.531 6.54463 565.079 12.3123C570.629 18.0823 574.094 26.583 574.094 37.5288C574.094 48.4312 570.651 56.9314 565.112 62.7121ZM532.132 58.454C534.787 63.6013 538.69 66.555 543.875 66.555C549.105 66.555 553.006 63.5996 555.65 58.4552C558.311 53.2764 559.641 45.9559 559.641 37.5288C559.641 29.1447 558.311 21.8236 555.649 16.6335C553.004 11.4764 549.102 8.50249 543.875 8.50249C538.692 8.50249 534.789 11.4748 532.132 16.6347C529.46 21.8254 528.109 29.1467 528.109 37.5288C528.109 45.954 529.46 53.2746 532.132 58.454ZM600.037 70.2125L584.842 27.332L579.97 26.7644V22.61H605.217V26.7826L598.405 27.4212L607.054 55.1736L616.341 27.4437L610.315 26.7679V22.61H633.182V26.767L626.629 27.5089L636.104 54.9167L644.321 27.5899L637.175 26.7653V22.61H656.302V26.7439L649.92 27.6556L635.393 70.2125H629.185L617.949 37.4542L606.141 70.2125H600.037ZM617.97 34.7605L629.823 69.3187H634.753L649.252 26.8483L655.408 25.9687V23.5037H638.068V25.9687L645.485 26.8245L636.163 57.8233L625.419 26.7464L632.288 25.9687V23.5037H611.208V25.9687L617.54 26.6788L607.023 58.0792L597.224 26.6343L604.323 25.9687V23.5037H580.863V25.9687L585.498 26.5087L600.668 69.3187H605.513L617.97 34.7605ZM662.167 69.8725V65.7079L668.31 65.0705C668.407 60.2513 668.457 53.5459 668.457 49.0887V42.6287C668.457 37.3943 668.382 34.1667 668.234 30.4438L661.572 29.8459V26.2263L679.289 21.2547L681.096 22.5057L681.473 28.5915C683.541 26.4518 685.558 24.848 687.587 23.6938C690.667 21.9419 693.733 21.25 696.975 21.25C701.085 21.25 704.609 22.5754 707.089 25.4726C709.551 28.3481 710.874 32.6458 710.874 38.3787V49.0887C710.874 53.7457 710.973 60.3747 711.095 65.1402L716.654 65.7064V69.8725H691.577V65.7095L697.55 65.0777C697.648 60.3201 697.697 53.731 697.697 49.0887V37.6138C697.697 34.0592 697.125 31.8476 696.185 30.5378C695.296 29.298 693.976 28.7325 692.045 28.7325C689.533 28.7325 685.763 30.2514 681.719 33.9598V49.0887C681.719 53.5678 681.769 60.3171 681.867 65.1412L687.329 65.7079V69.8725H662.167ZM686.435 68.9787V66.5137L680.991 65.9488C680.984 65.6569 680.978 65.3563 680.972 65.0482C680.874 60.2192 680.825 53.5319 680.825 49.0887V33.5705C681.124 33.2898 681.422 33.0203 681.719 32.7617C685.649 29.3391 689.372 27.8387 692.045 27.8387C696.295 27.8387 698.59 30.3887 698.59 37.6138V49.0887C698.59 53.693 698.542 60.2218 698.446 64.983C698.44 65.291 698.433 65.5916 698.427 65.8837L692.47 66.5137V68.9787H715.76V66.5137L710.222 65.9497C710.214 65.6576 710.206 65.357 710.198 65.0489C710.077 60.2821 709.98 53.7143 709.98 49.0887V38.3787C709.98 27.1587 704.795 22.1437 696.975 22.1437C691.627 22.1437 686.848 24.1011 681.548 29.8114C681.27 30.1108 680.991 30.4204 680.71 30.7407L680.23 22.9937L679.125 22.2287L662.465 26.9037V29.0287L669.095 29.6237C669.265 33.7037 669.35 37.0187 669.35 42.6287V49.0887C669.35 53.5103 669.302 60.1541 669.205 64.9775C669.199 65.2855 669.193 65.586 669.186 65.878L663.06 66.5137V68.9787H686.435ZM189.118 7.09874C189.118 10.7537 186.228 13.3037 182.573 13.3037C179.003 13.3037 176.113 10.7537 176.113 7.09874C176.113 3.52874 179.003 0.893744 182.573 0.893744C186.228 0.893744 189.118 3.52874 189.118 7.09874ZM216.456 37.6138C216.456 45.3487 219.431 50.2787 224.786 50.2787C230.056 50.2787 233.201 45.3487 233.201 37.6138C233.201 29.5387 229.971 24.7787 224.871 24.7787C219.601 24.7787 216.456 29.6237 216.456 37.6138ZM573.2 37.5288C573.2 58.9487 559.685 70.5938 543.875 70.5938C528.235 70.5938 514.55 59.1187 514.55 37.5288C514.55 16.1937 528.235 4.46374 543.875 4.46374C559.6 4.46374 573.2 16.0237 573.2 37.5288ZM527.215 37.5288C527.215 54.5288 532.655 67.4487 543.875 67.4487C555.18 67.4487 560.535 54.5288 560.535 37.5288C560.535 20.6137 555.18 7.60874 543.875 7.60874C532.655 7.60874 527.215 20.6137 527.215 37.5288Z" fill="#979E8A"/>
</svg>
