<svg width="74" height="368" viewBox="0 0 74 368" fill="none" xmlns="http://www.w3.org/2000/svg">
<path fill-rule="evenodd" clip-rule="evenodd" d="M66.9644 0.691894L66.9644 26.9156C66.9644 35.9787 65.1641 42.5854 61.7598 46.9416C58.3242 51.3379 53.3609 53.3094 47.3706 53.3094C41.8865 53.3094 36.8286 51.4425 33.1635 46.9567C29.5208 42.4983 27.3519 35.5714 27.3519 25.6406L27.3519 22.5394C21.196 22.5399 14.4973 22.55 7.64221 22.768L6.78975 31.8894L2.10689 31.8894L2.10689 0.691891L6.78871 0.691892L7.55521 8.78265C15.7047 8.93686 24.0128 8.93689 32.4106 8.93689L36.5756 8.93689C44.8137 8.93689 53.122 8.93687 61.4311 8.78236L62.1976 0.691894L66.9644 0.691894ZM62.2456 9.66064C53.6606 9.83064 45.0756 9.83064 36.5756 9.83064L32.4106 9.83064C23.7406 9.83064 15.1556 9.83064 6.74063 9.66063L5.97563 1.58563L3.00064 1.58563L3.00064 30.9956L5.97563 30.9956L6.82564 21.9006C13.971 21.657 20.9613 21.6461 27.3519 21.6456C27.6511 21.6456 27.9491 21.6456 28.2456 21.6456L28.2456 25.6406C28.2456 45.2756 36.8306 52.4156 47.3706 52.4156C58.9306 52.4156 66.0706 44.8506 66.0706 26.9156L66.0706 1.58564L63.0106 1.58564L62.2456 9.66064ZM58.2128 36.8358C60.5679 34.6255 61.8619 31.2228 61.8619 26.4056L61.8619 22.7691C53.5702 22.5394 45.12 22.5394 36.5756 22.5394L32.4544 22.5394L32.4544 25.8106C32.4544 30.9809 34.0073 34.5351 36.5547 36.8103C39.1199 39.1013 42.8286 40.2169 47.3706 40.2169C52.2591 40.2169 55.8471 39.0561 58.2128 36.8358ZM62.7556 21.9006L62.7556 26.4056C62.7556 36.3506 57.4006 41.1106 47.3706 41.1106C38.0206 41.1106 31.5606 36.5206 31.5606 25.8106L31.5606 21.6456L36.5756 21.6456C45.4156 21.6456 54.1706 21.6456 62.7556 21.9006ZM49.4935 79.6257L41.0513 80.1723C47.2106 83.2844 50.7294 88.278 50.7294 93.043C50.7294 94.9398 50.3465 96.7816 49.3656 98.3075C48.372 99.8531 46.813 100.998 44.6167 101.559L44.4785 101.594L44.3362 101.585C42.3334 101.451 40.5045 100.956 39.1636 99.8533C37.784 98.7187 37.0419 97.042 37.0419 94.828C37.0419 91.5946 38.9515 89.5755 41.4218 87.445L41.8079 87.091C39.2285 84.0888 35.797 82.0534 30.4089 80.4217L22.9756 80.4217C18.6313 80.4217 12.2228 80.498 7.44212 80.5784L6.42038 88.4117L2.10688 88.4117L2.10689 61.0392L6.42596 61.0392L7.19261 67.2577C11.9887 67.338 18.5518 67.4142 22.9756 67.4142L29.0956 67.4142C34.2595 67.4142 37.2544 67.3399 40.948 67.122L41.6328 60.3592L45.2195 60.3592L50.7297 77.7028L49.4935 79.6257ZM41.7606 67.968C37.6806 68.223 34.6206 68.308 29.0956 68.308L22.9756 68.308C18.3006 68.308 11.2456 68.223 6.40063 68.138L5.63563 61.933L3.00064 61.933L3.00064 87.518L5.63563 87.518L6.65564 79.698C11.5006 79.613 18.3856 79.528 22.9756 79.528L30.5406 79.528C36.4906 81.313 40.2306 83.608 43.0356 87.178L42.0156 88.113C39.5506 90.238 37.9356 92.023 37.9356 94.828C37.9356 98.823 40.5706 100.438 44.3956 100.693C48.3906 99.673 49.8356 96.613 49.8356 93.043C49.8356 88.3812 46.0715 83.2222 39.1924 80.2927C38.5458 80.0173 37.8717 79.7617 37.1706 79.528L48.9856 78.763L49.7506 77.573L44.5656 61.253L42.4406 61.253L41.7606 67.968ZM7.3861 147.216C3.05266 142.916 0.746881 136.94 0.746882 130.23C0.746882 123.435 3.07405 117.457 7.42044 113.177C11.7678 108.897 18.0623 106.386 25.8656 106.386C33.6892 106.386 39.9203 109.101 44.1955 113.476C48.4646 117.845 50.7294 123.814 50.7294 130.23C50.7294 136.602 48.4867 142.57 44.229 146.95C39.9645 151.336 33.7327 154.074 25.8656 154.074C18.0166 154.074 11.7217 151.518 7.3861 147.216ZM10.4126 122.89C7.18481 124.612 5.67938 127.069 5.67938 130.23C5.67938 133.3 7.18014 135.761 10.4163 137.508C13.7112 139.286 18.7865 140.301 25.7806 140.301C32.7316 140.301 37.7854 139.286 41.0696 137.508C44.2956 135.762 45.7969 133.301 45.7969 130.23C45.7969 127.069 44.2909 124.612 41.0733 122.89C37.7903 121.133 32.737 120.159 25.7806 120.159C18.7811 120.159 13.7063 121.133 10.4126 122.89ZM71.8506 208.515L58.4206 208.26L6.14562 208.26L5.63563 214.635L3.00077 214.635L2.06563 197.89L7.76063 197.295C7.45779 197.031 7.16516 196.763 6.88296 196.488C3.52155 193.217 1.64063 189.138 1.64063 184.12C1.64063 172.985 10.6506 164.655 25.2706 164.655C40.6556 164.655 49.8356 173.58 49.8356 185.225C49.8356 189.506 48.3388 193.288 44.8883 196.571C44.5707 196.873 44.2366 197.171 43.8856 197.465L65.9856 197.465L66.5806 190.155L68.9606 190.155L72.6156 207.325L71.8506 208.515ZM65.1617 196.571L65.7567 189.261L69.6841 189.261L73.5664 207.499L72.3326 209.418L58.4206 209.154L6.97072 209.154L6.46073 215.529L2.1554 215.529L1.1258 197.089L5.74238 196.607C2.54428 193.268 0.746879 189.134 0.746879 184.12C0.746879 178.295 3.11048 173.179 7.39368 169.531C11.6673 165.892 17.7944 163.761 25.2706 163.761C33.1339 163.761 39.4984 166.043 43.9107 169.9C48.3304 173.763 50.7294 179.154 50.7294 185.225C50.7294 189.476 49.3201 193.271 46.1547 196.571L65.1617 196.571ZM10.4806 197.04L41.2506 197.04C43.6306 194.235 44.4806 191.6 44.4806 188.965C44.4806 182.25 39.7206 176.555 25.7806 176.555C12.2656 176.555 7.08063 181.74 7.08063 188.795C7.08063 191.855 8.01563 194.405 10.4806 197.04ZM7.97437 188.795C7.97437 191.513 8.75481 193.775 10.8743 196.146L40.8307 196.146C42.8818 193.613 43.5869 191.277 43.5869 188.965C43.5869 185.837 42.4903 183.016 39.8121 180.949C37.0979 178.855 32.6489 177.449 25.7806 177.449C19.1149 177.449 14.6585 178.731 11.8892 180.751C9.16518 182.739 7.97437 185.512 7.97437 188.795ZM48.3906 269.329L34.7906 269.074L6.14562 269.074L5.55063 274.854L3.00063 274.854L2.06563 258.534L10.5656 257.939C10.2246 257.671 9.88984 257.395 9.56199 257.113C4.90484 253.107 1.64063 247.75 1.64063 241.874C1.64063 233.714 6.14562 228.614 18.8956 228.784L43.5456 229.124L44.7356 222.749L47.1156 222.749L49.3256 239.579L48.3906 240.514L34.7906 240.004L18.3006 240.004C10.8206 240.004 8.35563 242.639 8.35563 247.314C8.35563 251.139 10.2256 254.709 13.3706 257.854L43.6306 258.024L44.7356 251.989L46.9456 251.989L49.3256 268.394L48.3906 269.329ZM42.8864 257.126L43.9907 251.095L47.7191 251.095L50.2744 268.709L48.7539 270.23L34.7906 269.968L6.95209 269.968L6.35709 275.748L2.15662 275.748L1.12287 257.704L8.31362 257.201C3.87646 253.147 0.746876 247.798 0.746877 241.874C0.746877 237.63 1.92393 234.019 4.91367 231.52C7.87062 229.048 12.4387 227.804 18.9075 227.89L42.8052 228.22L43.9933 221.855L47.8997 221.855L50.2691 239.899L48.7468 241.422L34.7738 240.898L18.3006 240.898C14.6305 240.898 12.3951 241.551 11.082 242.603C9.81829 243.616 9.24936 245.133 9.24936 247.314C9.24936 250.729 10.8691 253.994 13.7469 256.962L42.8864 257.126ZM12.6906 326.104C5.63562 322.619 1.64063 316.499 1.64063 307.574C1.64063 294.739 10.4806 284.964 25.6106 284.964C40.9956 284.964 49.8356 296.014 49.8356 309.104C49.8356 318.114 44.3956 324.829 37.0856 326.104C34.3656 325.339 33.0906 323.724 33.0906 321.174C33.0906 317.944 34.8756 315.564 39.6356 315.054L46.2656 313.779C46.6056 312.674 46.6906 311.569 46.6906 310.464C46.6906 302.389 39.3806 296.694 26.7156 296.694C14.3906 296.694 7.25063 302.899 7.25063 312.079C7.25063 317.179 9.54563 321.259 13.6256 324.319L12.6906 326.104ZM45.5487 313.007L39.5028 314.17C37.0171 314.442 35.1684 315.215 33.9398 316.469C32.6937 317.74 32.1969 319.392 32.1969 321.174C32.1969 322.603 32.5569 323.857 33.372 324.869C34.1812 325.874 35.365 326.549 36.8436 326.965L37.0391 327.02L37.2392 326.985C45.0439 325.624 50.7294 318.477 50.7294 309.104C50.7294 302.36 48.4509 296.097 44.1438 291.514C39.8285 286.921 33.5296 284.071 25.6106 284.071C17.8482 284.071 11.6175 286.582 7.32404 290.82C3.0322 295.056 0.746874 300.948 0.746874 307.574C0.746874 312.173 1.77725 316.101 3.75713 319.345C5.73769 322.59 8.63735 325.099 12.2948 326.906L13.0773 327.292L14.7701 324.061L14.1619 323.604C10.28 320.693 8.14436 316.866 8.14437 312.079C8.14437 307.741 9.82123 304.157 12.9244 301.638C16.0471 299.104 20.6938 297.588 26.7156 297.588C32.927 297.588 37.7198 298.986 40.9335 301.279C44.1211 303.553 45.7969 306.73 45.7969 310.464C45.7969 311.344 45.7403 312.185 45.5487 313.007ZM10.4801 364.511L7.78108 367.068L7.19148 366.688C3.07868 364.038 0.746872 359.74 0.746872 353.697C0.746872 349.654 1.7357 346.348 4.00163 344.058C6.26922 341.767 9.66292 340.648 14.1356 340.648C15.4278 340.648 16.6434 340.667 17.9184 340.687L18.1446 340.691C19.504 340.712 20.9431 340.733 22.6356 340.733L44.0119 340.733L44.0119 333.423L48.5134 333.423L49.3841 341.521L62.7994 345.195L62.7994 354.098L49.3694 353.843L49.3694 365.046L44.0119 365.046L44.0119 353.741L13.4556 353.741C11.1903 353.741 9.76138 354.248 8.90443 355.004C8.0682 355.742 7.63437 356.844 7.63437 358.372C7.63437 360.281 8.33342 361.613 10.0088 363.875L10.4801 364.511ZM48.4756 352.932L61.9056 353.187L61.9056 345.877L48.5606 342.222L47.7106 334.317L44.9056 334.317L44.9056 341.627L22.6356 341.627C20.8409 341.627 19.3304 341.603 17.904 341.581C16.6283 341.561 15.4198 341.542 14.1356 341.542C5.46562 341.542 1.64063 345.877 1.64062 353.697C1.64062 359.477 3.85062 363.472 7.67563 365.937L9.29062 364.407C7.59061 362.112 6.74062 360.582 6.74062 358.372C6.74062 354.972 8.69562 352.847 13.4556 352.847L44.9056 352.847L44.9056 364.152L48.4756 364.152L48.4756 352.932ZM25.8656 153.18C10.5656 153.18 1.64063 143.235 1.64063 130.23C1.64064 117.055 10.6506 107.28 25.8656 107.28C41.0806 107.28 49.8356 117.82 49.8356 130.23C49.8356 142.555 41.1656 153.18 25.8656 153.18ZM25.7806 119.265C11.6706 119.265 4.78564 123.175 4.78564 130.23C4.78564 137.115 11.6706 141.195 25.7806 141.195C39.8056 141.195 46.6906 137.115 46.6906 130.23C46.6906 123.175 39.8056 119.265 25.7806 119.265Z" fill="#979E8A"/>
</svg>
