<svg width="899" height="635" viewBox="0 0 899 635" fill="none" xmlns="http://www.w3.org/2000/svg">
<path d="M780.802 125.184C790.664 142.265 790.862 163.917 782.664 188.517C774.466 213.115 757.89 240.602 734.304 269.278C687.133 326.626 611.995 388.646 520.063 441.722C428.132 494.799 336.852 528.861 263.601 541.038C226.974 547.126 194.882 547.738 169.48 542.538C144.078 537.338 125.426 526.341 115.564 509.259C105.702 492.178 105.504 470.526 113.701 445.927C121.899 421.328 138.475 393.841 162.061 365.166C209.232 307.817 284.37 245.797 376.302 192.721C468.234 139.644 559.513 105.582 632.764 93.4053C669.391 87.3168 701.483 86.7048 726.885 91.9048C752.287 97.1049 770.94 108.102 780.802 125.184Z" stroke="#21402F"/>
<path d="M69.6875 237.4C99.0409 237.4 113.718 253.04 113.718 284.32C113.718 297.58 111.168 309.707 106.068 320.7C100.968 331.58 93.4309 340.25 83.4575 346.71C73.5975 353.17 61.8109 356.4 48.0975 356.4C18.7442 356.4 4.06755 340.703 4.06755 309.31C4.06755 296.05 6.61755 283.98 11.7175 273.1C16.8175 262.22 24.2975 253.55 34.1575 247.09C44.1309 240.63 55.9742 237.4 69.6875 237.4ZM67.4775 249.3C61.4709 249.3 56.5409 253.323 52.6875 261.37C48.9475 269.303 45.8875 282.11 43.5075 299.79C41.8075 312.37 40.9575 322.287 40.9575 329.54C40.9575 334.3 41.5809 337.983 42.8275 340.59C44.0742 343.083 46.5109 344.33 50.1375 344.33C56.2575 344.33 61.1875 340.363 64.9275 332.43C68.7809 324.383 71.8976 311.52 74.2776 293.84C75.9775 281.26 76.8275 271.343 76.8275 264.09C76.8275 259.33 76.1475 255.703 74.7875 253.21C73.5409 250.603 71.1042 249.3 67.4775 249.3ZM176.695 262.9C188.481 262.9 197.378 265.903 203.385 271.91C209.505 277.803 212.565 286.983 212.565 299.45C212.565 310.103 210.411 319.737 206.105 328.35C201.798 336.963 195.508 343.82 187.235 348.92C179.075 353.907 169.385 356.4 158.165 356.4C134.025 356.4 121.955 344.047 121.955 319.34C121.955 308.687 124.108 299.11 128.415 290.61C132.835 281.997 139.181 275.253 147.455 270.38C155.728 265.393 165.475 262.9 176.695 262.9ZM173.975 273.1C169.328 273.1 165.588 276.103 162.755 282.11C160.035 288.003 157.711 297.92 155.785 311.86C154.425 321.607 153.745 329.313 153.745 334.98C153.745 338.72 154.198 341.553 155.105 343.48C156.125 345.293 157.995 346.2 160.715 346.2C165.248 346.2 168.875 343.253 171.595 337.36C174.428 331.353 176.808 321.38 178.735 307.44C180.095 297.693 180.775 289.987 180.775 284.32C180.775 280.58 180.321 277.803 179.415 275.99C178.508 274.063 176.695 273.1 173.975 273.1ZM303.588 329.71C300.981 343.083 297.751 353.85 293.898 362.01C290.044 370.17 284.548 376.347 277.408 380.54C270.268 384.847 260.748 387 248.848 387C238.761 387 230.034 385.47 222.668 382.41C215.301 379.463 211.618 374.477 211.618 367.45C211.618 362.577 213.431 358.723 217.058 355.89C220.571 353.057 224.878 351.64 229.978 351.64C233.604 351.64 236.948 352.207 240.008 353.34C243.181 354.587 245.731 356.457 247.658 358.95C245.051 361.783 243.748 364.73 243.748 367.79C243.748 369.717 244.258 371.417 245.278 372.89C246.411 374.477 248.054 375.27 250.208 375.27C255.194 375.27 259.388 371.927 262.788 365.24C266.188 358.553 269.191 347.673 271.798 332.6C268.738 336 264.771 338.607 259.898 340.42C255.138 342.233 250.151 343.14 244.938 343.14C228.958 343.14 220.968 334.357 220.968 316.79C220.968 307.383 223.121 298.543 227.428 290.27C231.734 281.997 237.854 275.367 245.788 270.38C253.721 265.393 262.844 262.9 273.158 262.9C279.278 262.9 284.491 263.863 288.798 265.79L316.338 263.07L303.588 329.71ZM280.978 275.48C279.051 273.893 276.614 273.1 273.668 273.1C268.794 273.1 264.884 275.763 261.938 281.09C258.991 286.417 256.894 292.707 255.648 299.96C254.401 307.1 253.778 313.73 253.778 319.85C253.778 323.137 254.174 325.687 254.968 327.5C255.874 329.2 257.574 330.05 260.068 330.05C267.094 330.05 271.911 323.137 274.518 309.31L280.978 275.48ZM403.913 327.67C403.346 330.73 403.063 333.11 403.063 334.81C403.063 337.19 403.743 339.23 405.103 340.93C406.463 342.63 408.446 343.593 411.053 343.82C409.806 347.9 407.086 351.017 402.893 353.17C398.7 355.323 394.223 356.4 389.463 356.4C385.496 356.4 381.926 355.55 378.753 353.85C375.693 352.263 373.596 349.883 372.463 346.71C369.63 349.77 365.89 352.15 361.243 353.85C356.71 355.55 351.723 356.4 346.283 356.4C336.65 356.4 329.68 353.567 325.373 347.9C321.18 342.233 319.083 333.903 319.083 322.91C319.083 311.463 321.18 301.207 325.373 292.14C329.566 282.96 335.63 275.82 343.563 270.72C351.61 265.507 361.186 262.9 372.293 262.9C379.32 262.9 385.043 263.977 389.463 266.13L416.153 262.9L403.913 327.67ZM380.453 276.16C379.32 275.14 377.903 274.403 376.203 273.95C374.503 273.383 372.916 273.1 371.443 273.1C368.383 273.1 365.72 274.29 363.453 276.67C361.3 279.05 359.373 283.073 357.673 288.74C355.973 294.293 354.386 302 352.913 311.86C351.553 321.153 350.873 328.803 350.873 334.81C350.873 338.323 351.27 340.987 352.063 342.8C352.97 344.613 354.726 345.52 357.333 345.52C361.413 345.52 364.586 343.423 366.853 339.23C369.233 334.923 370.933 329.937 371.953 324.27L380.453 276.16ZM517.207 237.4C526.501 237.4 534.377 238.93 540.837 241.99C547.297 245.05 550.527 250.32 550.527 257.8C550.527 263.693 548.487 268.227 544.407 271.4C540.327 274.573 535.511 276.16 529.957 276.16C526.557 276.16 523.271 275.593 520.097 274.46C521.797 270.72 522.647 266.3 522.647 261.2C522.647 252.473 519.417 248.11 512.957 248.11C508.537 248.11 504.571 249.867 501.057 253.38C497.657 256.78 495.957 260.633 495.957 264.94C495.957 267.773 496.751 270.323 498.337 272.59C500.037 274.857 502.077 276.84 504.457 278.54C506.951 280.127 510.407 282.167 514.827 284.66C516.187 285.34 518.227 286.473 520.947 288.06C527.294 291.8 532.224 295.823 535.737 300.13C539.364 304.437 541.177 309.933 541.177 316.62C541.177 324.667 538.514 331.693 533.187 337.7C527.974 343.707 521.004 348.353 512.277 351.64C503.551 354.813 494.201 356.4 484.227 356.4C475.274 356.4 467.567 354.87 461.107 351.81C454.647 348.75 451.417 343.197 451.417 335.15C451.417 329.483 453.174 324.837 456.687 321.21C460.201 317.583 465.017 315.77 471.137 315.77C475.217 315.77 479.241 316.507 483.207 317.98C481.394 322.627 480.487 327.557 480.487 332.77C480.487 336.737 481.167 339.74 482.527 341.78C484.001 343.82 486.551 344.84 490.177 344.84C494.597 344.84 498.451 343.537 501.737 340.93C505.137 338.323 506.837 334.923 506.837 330.73C506.837 326.537 505.194 323.023 501.907 320.19C498.734 317.243 493.974 313.9 487.627 310.16L482.357 306.93C476.124 303.077 471.251 298.883 467.737 294.35C464.224 289.817 462.467 284.093 462.467 277.18C462.467 269.36 464.847 262.447 469.607 256.44C474.367 250.32 480.884 245.617 489.157 242.33C497.544 239.043 506.894 237.4 517.207 237.4ZM603.415 266.3H616.675L615.145 273.95H602.055L591.855 327.67C591.288 330.73 591.005 333.11 591.005 334.81C591.005 337.19 591.685 339.23 593.045 340.93C594.405 342.63 596.388 343.593 598.995 343.82C597.748 347.9 595.028 351.017 590.835 353.17C586.755 355.323 582.165 356.4 577.065 356.4C571.171 356.4 566.411 354.927 562.785 351.98C559.271 348.92 557.515 344.557 557.515 338.89C557.515 333.45 559.328 321.663 562.955 303.53L563.805 299.28L568.735 273.95H558.705L559.385 268.85C572.985 264.77 586.358 257.743 599.505 247.77H607.495L603.415 266.3ZM667.012 262.9C678.798 262.9 687.695 265.903 693.702 271.91C699.822 277.803 702.882 286.983 702.882 299.45C702.882 310.103 700.728 319.737 696.422 328.35C692.115 336.963 685.825 343.82 677.552 348.92C669.392 353.907 659.702 356.4 648.482 356.4C624.342 356.4 612.272 344.047 612.272 319.34C612.272 308.687 614.425 299.11 618.732 290.61C623.152 281.997 629.498 275.253 637.772 270.38C646.045 265.393 655.792 262.9 667.012 262.9ZM664.292 273.1C659.645 273.1 655.905 276.103 653.072 282.11C650.352 288.003 648.028 297.92 646.102 311.86C644.742 321.607 644.062 329.313 644.062 334.98C644.062 338.72 644.515 341.553 645.422 343.48C646.442 345.293 648.312 346.2 651.032 346.2C655.565 346.2 659.192 343.253 661.912 337.36C664.745 331.353 667.125 321.38 669.052 307.44C670.412 297.693 671.092 289.987 671.092 284.32C671.092 280.58 670.638 277.803 669.732 275.99C668.825 274.063 667.012 273.1 664.292 273.1ZM749.535 279.56C755.315 268.453 765.685 262.9 780.645 262.9C796.965 262.9 805.125 269.53 805.125 282.79C805.125 286.19 804.671 290.213 803.765 294.86C802.858 299.393 801.611 304.89 800.025 311.35C798.551 317.243 797.475 321.947 796.795 325.46C796.115 328.86 795.775 331.75 795.775 334.13C795.775 339.91 798.438 343.14 803.765 343.82C802.518 347.9 799.798 351.017 795.605 353.17C791.411 355.323 786.821 356.4 781.835 356.4C775.941 356.4 771.181 354.927 767.555 351.98C764.041 348.92 762.285 344.557 762.285 338.89C762.285 336.057 762.625 332.713 763.305 328.86C764.098 325.007 765.345 319.453 767.045 312.2C768.631 305.513 769.878 299.96 770.785 295.54C771.691 291.12 772.145 287.38 772.145 284.32C772.145 278.767 770.161 275.99 766.195 275.99C762.001 275.99 758.715 278.427 756.335 283.3C754.068 288.06 752.198 294.067 750.725 301.32L740.695 353L706.695 356.4L724.375 266.3L752.255 262.9L749.535 279.56ZM870.334 262.9C889.261 262.9 898.724 269.813 898.724 283.64C898.724 292.253 895.041 299.11 887.674 304.21C880.421 309.197 869.541 312.087 855.034 312.88C853.221 312.993 850.331 313.05 846.364 313.05C846.024 315.43 845.854 317.81 845.854 320.19C845.854 325.177 846.931 328.917 849.084 331.41C851.238 333.79 854.808 334.98 859.794 334.98C864.328 334.98 868.748 334.017 873.054 332.09C877.474 330.163 880.761 327.557 882.914 324.27C885.748 325.97 887.164 328.69 887.164 332.43C887.164 337.19 885.408 341.44 881.894 345.18C878.381 348.807 873.678 351.583 867.784 353.51C862.004 355.437 855.884 356.4 849.424 356.4C838.091 356.4 829.308 353.34 823.074 347.22C816.954 340.987 813.894 331.637 813.894 319.17C813.894 308.97 815.991 299.62 820.184 291.12C824.378 282.62 830.668 275.82 839.054 270.72C847.554 265.507 857.981 262.9 870.334 262.9ZM866.594 271.57C862.514 271.57 858.774 274.403 855.374 280.07C852.088 285.623 849.481 294.18 847.554 305.74C855.261 305.74 861.381 303.417 865.914 298.77C870.448 294.123 872.714 288.117 872.714 280.75C872.714 277.803 872.261 275.537 871.354 273.95C870.448 272.363 868.861 271.57 866.594 271.57Z" fill="#21402F"/>
<circle cx="297.5" cy="485.5" r="59.9999" fill="#FDF1E8" stroke="#21402F"/>
<path d="M286.439 459.132C287.019 459.042 287.176 458.841 287.243 458.529L283.78 458.193V475.707C283.78 475.997 283.646 476.131 283.222 476.131C282.686 476.131 279.916 475.953 279.916 475.953V476.265C281.212 476.466 281.77 476.779 282.194 477.181C282.596 477.606 282.753 478.231 282.842 479.102C286.037 478.812 286.439 477.762 286.439 475.886V459.132ZM274.957 464.716L275.158 465.364H281.323V464.716H274.957ZM280.251 464.716C279.625 469.139 277.838 473.83 274.421 476.734L274.622 476.98C279.558 474.434 281.815 470.122 282.842 465.744C283.356 465.699 283.557 465.61 283.736 465.386L281.346 463.354L280.005 464.716H280.251ZM286.439 461.433L286.26 461.522C287.243 469.832 289.611 473.808 293.341 476.913C293.721 475.684 294.548 474.746 295.642 474.545L295.754 474.322C291.8 472.378 287.779 468.916 286.439 461.433ZM292.157 461.946C291.331 463.622 289.521 466.392 287.958 468.201L288.181 468.424C290.482 467.218 292.85 465.453 294.369 464.18C294.905 464.27 295.128 464.158 295.24 463.934L292.157 461.946ZM304.801 459.556V468.223H305.158C306.208 468.223 307.303 467.665 307.303 467.419V460.182H314.876V459.556H307.437L304.801 458.506V459.556ZM314.004 459.556V468.067H314.429C315.255 468.067 316.529 467.598 316.551 467.442V460.606C316.998 460.517 317.333 460.316 317.467 460.159L314.965 458.238L313.781 459.556H314.004ZM306.208 466.124V466.771H315.345V466.124H306.208ZM306.208 462.795V463.421H315.345V462.795H306.208ZM301.182 469.363V479.058H301.562C302.612 479.058 303.662 478.477 303.662 478.231V470.011H308.129V469.363H303.773L301.182 468.335V469.363ZM307.124 469.363V478.879H307.526C308.397 478.879 309.604 478.32 309.626 478.142V470.435C310.073 470.346 310.385 470.145 310.542 469.966L308.085 468.067L306.901 469.363H307.124ZM302.098 476.511V477.159H308.085V476.511H302.098ZM311.413 469.363V479.058H311.793C312.843 479.058 313.915 478.477 313.915 478.231V470.011H318.896V469.363H314.027L311.413 468.335V469.363ZM317.467 469.363V478.879H317.891C318.74 478.879 319.991 478.387 320.013 478.231V470.435C320.482 470.346 320.773 470.145 320.929 469.966L318.427 468.067L317.243 469.363H317.467ZM312.642 476.511V477.159H318.963V476.511H312.642ZM302.098 472.915V473.54H308.085V472.915H302.098ZM312.642 472.915V473.54H318.963V472.915H312.642ZM293.23 496.924L290.638 496.656V501.838H291.04C291.733 501.838 292.582 501.57 292.582 501.459V497.438C293.029 497.371 293.207 497.17 293.23 496.924ZM292.046 500.386H287.757V501.034H292.046V500.386ZM289.454 496.924L286.863 496.678V501.928H287.265C287.958 501.928 288.807 501.682 288.807 501.57V497.46C289.253 497.393 289.432 497.192 289.454 496.924ZM287.757 492.948L287.578 493.082C288.069 493.64 288.606 494.601 288.695 495.472C290.795 496.902 292.85 493.059 287.757 492.948ZM293.967 501.012L292.962 502.285H284.897L285.076 502.911H295.218C295.53 502.911 295.731 502.799 295.776 502.553C295.106 501.905 293.967 501.012 293.967 501.012ZM293.743 497.281L292.85 498.532H285.121L285.299 499.18H294.816C295.106 499.18 295.329 499.068 295.374 498.823C294.771 498.175 293.743 497.281 293.743 497.281ZM290.705 504.296H288.829V509.456H290.705V504.296ZM290.393 511.578L287.667 509.97C286.796 511.176 284.875 512.762 283.021 513.655L283.155 513.946C285.5 513.544 287.824 512.673 289.209 511.779C289.834 511.913 290.214 511.824 290.393 511.578ZM290.348 510.305L290.236 510.617C291.845 511.377 292.783 512.405 293.252 513.231C294.927 515.152 298.814 510.997 290.348 510.305ZM292.023 504.05H292.247V510.327H292.604C293.274 510.327 294.324 509.925 294.347 509.769V504.988C294.771 504.899 295.039 504.72 295.173 504.586L293.029 502.955L292.023 504.05ZM287.31 510.215V504.675H293.319V504.05H287.444L285.322 503.156V510.863H285.612C286.461 510.863 287.31 510.416 287.31 510.215ZM293.185 509.098H286.506V509.724H293.185V509.098ZM293.185 506.463H286.506V507.11H293.185V506.463ZM293.632 494.087L292.448 495.584H283.981V496.232H295.173C295.486 496.232 295.687 496.12 295.754 495.874C294.95 495.115 293.632 494.087 293.632 494.087ZM282.686 495.36V501.66C282.686 505.904 282.485 510.506 280.318 514.147L280.586 514.348C284.652 510.908 284.897 505.681 284.897 501.66V495.584H285.255L282.686 494.623V495.36ZM278.017 512.382V501.905H278.308L277.057 501.414L275.962 503.045V513.008H276.342C277.369 513.008 278.017 512.539 278.017 512.382ZM279.268 501.905H279.469V512.025H279.804C280.474 512.025 281.435 511.623 281.457 511.466V502.821C281.837 502.732 282.127 502.576 282.239 502.419L280.229 500.856L279.268 501.905ZM280.742 509.992H277.146V510.64H280.742V509.992ZM280.742 501.905H277.191V502.553H280.742V501.905ZM279.648 495.651V495.293H277.28C276.744 498.979 275.783 503.693 274.51 506.909L274.823 507.133C277.079 503.983 278.888 500.051 279.648 495.651ZM280.474 493.707L279.223 495.293H274.599L274.778 495.919H282.127C282.44 495.919 282.664 495.807 282.731 495.561C281.882 494.802 280.474 493.707 280.474 493.707ZM300.378 495.584L300.557 496.232H320.438C320.773 496.232 321.019 496.12 321.086 495.874C319.969 494.936 318.115 493.551 318.115 493.551L316.506 495.584H300.378ZM305.806 503.067V503.715H317.221V503.067H305.806ZM306.097 511.288V511.913H317.355V511.288H306.097ZM316.238 503.067V513.946H316.663C317.556 513.946 318.874 513.432 318.919 513.276V504.229C319.41 504.117 319.768 503.916 319.946 503.715L317.266 501.637L315.992 503.067H316.238ZM307.191 495.584C306.409 499.94 303.595 505.1 299.909 508.518L300.087 508.719C305.315 505.748 309.068 500.655 310.609 495.584H307.191ZM307.638 503.067H307.928L306.007 502.352L305.024 503.804V514.102H305.493C306.834 514.102 307.638 513.521 307.638 513.343V503.067Z" fill="#21402F"/>
<circle cx="448.5" cy="485.5" r="59.9999" fill="#FDF1E8" stroke="#21402F"/>
<path d="M430.38 458.193C429.486 459.981 427.52 462.728 425.666 464.493L425.845 464.716C428.459 463.577 430.983 461.768 432.569 460.293C433.083 460.383 433.284 460.249 433.418 460.025L430.38 458.193ZM441.683 471.753C441.102 472.892 440.298 473.897 439.315 474.813C438.131 474.344 437.037 473.763 436.076 473.071C436.5 472.646 436.925 472.2 437.305 471.753H441.683ZM442.487 463.8V465.632H436.769V463.8H442.487ZM436.769 468.179V466.28H442.487V468.179H436.769ZM443.202 469.809L441.728 471.105H437.818C438.109 470.725 438.377 470.323 438.623 469.966C439.203 469.988 439.382 469.899 439.471 469.653L436.769 469.028V469.005V468.804H442.487V469.497H442.889C443.716 469.497 444.9 468.983 444.922 468.827V464.18C445.347 464.091 445.682 463.89 445.816 463.733L443.403 461.902L442.264 463.153H436.903L435.875 462.751C436.143 462.304 436.411 461.857 436.657 461.388H446.061C446.352 461.388 446.597 461.276 446.664 461.03C445.704 460.137 444.096 458.864 444.096 458.864L442.688 460.74H436.992C437.171 460.36 437.349 459.958 437.528 459.534C438.019 459.534 438.31 459.355 438.399 459.065L434.937 458.126C434.602 460.271 433.999 462.505 433.261 464.314L430.514 462.795C429.598 465.096 427.587 468.581 425.51 470.859L425.733 471.083C426.783 470.48 427.811 469.765 428.749 468.983V479.169H429.218C430.313 479.169 431.296 478.521 431.296 478.276V467.754C431.72 467.687 431.921 467.531 431.988 467.352L430.938 466.972C431.675 466.235 432.301 465.498 432.815 464.828C432.904 464.828 432.971 464.85 433.06 464.85C432.882 465.275 432.703 465.655 432.524 466.012L432.815 466.191C433.328 465.766 433.865 465.275 434.356 464.716V469.765H434.691C435.138 469.765 435.585 469.653 435.964 469.519C435.674 470.346 435.272 471.217 434.825 472.043C434.267 471.485 433.775 470.882 433.395 470.189L433.105 470.39C433.462 471.284 433.887 472.088 434.378 472.825C433.775 473.83 433.083 474.746 432.413 475.416L432.614 475.617C433.485 475.171 434.356 474.568 435.183 473.897C435.897 474.746 436.702 475.483 437.617 476.131C435.897 477.271 433.842 478.186 431.519 478.812L431.653 479.147C434.49 478.767 436.97 478.052 439.047 477.025C440.678 477.941 442.577 478.611 444.654 479.102C444.944 477.874 445.659 477.047 446.731 476.779L446.754 476.533C444.944 476.332 443.157 476.02 441.46 475.528C442.711 474.59 443.738 473.473 444.542 472.177C445.078 472.155 445.324 472.066 445.481 471.865L443.202 469.809ZM466.345 470.011V476.399H456.962V470.011H466.345ZM467.618 463.398H462.994V459.109C463.597 459.02 463.753 458.797 463.82 458.462L460.179 458.149V463.398H451.445L451.624 464.046H460.179V469.363H457.119L454.193 468.246V479.08H454.595C455.734 479.08 456.962 478.454 456.962 478.186V477.025H466.345V478.924H466.814C467.707 478.924 469.115 478.432 469.137 478.276V470.524C469.651 470.435 469.986 470.212 470.142 470.011L467.395 467.933L466.099 469.363H462.994V464.046H471.371C471.706 464.046 471.952 463.934 472.019 463.689C470.969 462.751 469.204 461.343 469.204 461.343L467.618 463.398ZM438.288 496.522V498.242H433.82V496.522H438.288ZM427.074 496.522H431.229V500.007H431.675C432.681 500.007 433.82 499.605 433.82 499.448V498.89H438.288V499.828H438.734C439.762 499.828 440.923 499.448 440.923 499.27V496.522H445.279C445.615 496.522 445.86 496.41 445.927 496.164C444.922 495.316 443.314 494.132 443.314 494.132L441.906 495.896H440.923V494.065C441.527 493.975 441.705 493.73 441.75 493.439L438.288 493.149V495.896H433.82V494.065C434.423 493.975 434.602 493.73 434.646 493.439L431.229 493.149V495.896H426.895L427.074 496.522ZM425.867 514.125C428.995 513.745 432.435 512.851 434.445 511.846C435.16 512.025 435.607 511.913 435.808 511.667L432.792 509.612C431.363 510.997 428.414 512.829 425.778 513.857L425.867 514.125ZM437.327 508.652V506.239H440.789V508.652H437.327ZM431.407 506.239H434.758V508.652H431.407V506.239ZM434.758 503.335V505.591H431.407V503.335H434.758ZM440.789 503.335V505.591H437.327V503.335H440.789ZM441.236 510.104C442.107 510.104 443.448 509.635 443.47 509.478V503.782C443.939 503.693 444.23 503.491 444.386 503.313L441.795 501.369L440.566 502.71H431.586L428.771 501.593V510.528H429.173C430.246 510.528 431.407 509.947 431.407 509.702V509.277H440.789V510.104H441.236ZM437.483 510.595C440.209 511.466 442.13 512.762 443.113 513.7C445.525 515.577 450.194 510.729 437.55 510.305L437.483 510.595ZM442.487 500.476H425.711L425.912 501.124H446.061C446.374 501.124 446.62 501.012 446.687 500.766C445.659 499.895 443.984 498.644 443.984 498.644L442.487 500.476ZM466.345 502.241V507.512H465.004V502.241H466.345ZM466.345 508.16V509.523H466.59C467.126 509.523 467.886 509.165 467.908 508.987V502.464C468.31 502.397 468.623 502.241 468.757 502.062L466.97 500.699L466.144 501.593H465.094L463.575 500.9V510.014H463.798C464.401 510.014 465.004 509.679 465.004 509.545V508.16H466.345ZM469.762 493.618L468.645 494.914H462.77L460.336 493.864V509.59C459.062 509.836 457.811 510.081 456.627 510.305V503.737H459.621C459.934 503.737 460.157 503.648 460.202 503.402C459.487 502.62 458.213 501.459 458.213 501.459L457.097 503.112H456.627V500.364H458.973C459.286 500.364 459.509 500.252 459.576 500.007C458.839 499.225 457.566 498.153 457.566 498.153L456.426 499.716H453.009C454.371 498.331 455.51 496.701 456.248 495.204C457.141 496.209 457.789 497.348 458.079 498.13C459.799 499.448 462.19 496.075 456.583 494.668C457.119 494.601 457.342 494.444 457.432 494.176L454.215 493.149C453.746 495.472 452.338 499.158 450.685 501.28L450.931 501.459C451.624 500.99 452.271 500.431 452.875 499.828L453.031 500.364H454.461V503.112H451.4L451.579 503.737H454.461V510.684C453.031 510.953 451.847 511.131 451.11 511.243L452.629 514.058C452.897 513.991 453.098 513.79 453.187 513.477C456.516 511.98 458.772 510.819 460.336 509.947V514.125H460.738C461.788 514.125 462.659 513.544 462.659 513.253V495.561H468.869V498.555C468.087 497.818 467.037 496.902 467.037 496.902L465.831 498.599H463.039L463.217 499.225H468.578C468.69 499.225 468.78 499.203 468.869 499.18V510.953C468.869 511.243 468.78 511.399 468.422 511.399C467.998 511.399 466.144 511.265 466.144 511.265V511.6C467.082 511.757 467.529 512.025 467.819 512.405C468.087 512.762 468.199 513.387 468.243 514.214C470.924 513.946 471.237 512.963 471.237 511.243V495.963C471.684 495.874 472.019 495.673 472.175 495.494L469.762 493.618ZM451.825 504.742C452.137 506.016 452.361 507.758 452.137 509.21C453.545 510.93 455.779 507.691 452.115 504.675L451.825 504.742ZM457.298 509.232C458.012 508.294 458.75 506.999 459.308 505.837C459.777 505.837 460.045 505.636 460.157 505.368L457.543 504.586C457.387 506.127 457.141 507.937 456.918 509.076L457.298 509.232Z" fill="#21402F"/>
<circle cx="599.5" cy="485.5" r="59.9999" fill="#FDF1E8" stroke="#21402F"/>
<path d="M593.443 470.39H588.684V466.213H596.19C596.525 466.213 596.771 466.101 596.838 465.856C595.788 464.962 594.09 463.666 594.09 463.666L592.571 465.565H588.684V461.567C590.628 461.343 592.415 461.075 593.912 460.762C594.693 461.053 595.207 461.008 595.453 460.807L592.705 458.149C589.466 459.578 583.1 461.142 577.85 461.79L577.917 462.147C580.464 462.17 583.212 462.058 585.803 461.857V465.565H577.783L577.962 466.213H585.803V470.39H576.555L576.733 471.038H585.803V475.55C585.803 475.863 585.646 476.042 585.244 476.042C584.529 476.042 581.045 475.819 581.045 475.819V476.109C582.653 476.355 583.301 476.667 583.837 477.092C584.351 477.494 584.529 478.186 584.596 479.102C588.126 478.857 588.684 477.539 588.684 475.662V471.038H597.173C597.508 471.038 597.754 470.926 597.821 470.681C596.726 469.765 595.006 468.491 595.006 468.491L593.443 470.39ZM618.596 476.645H614.016V462.304H621.12C621.433 462.304 621.701 462.192 621.768 461.946C620.673 460.986 618.864 459.601 618.864 459.601L617.255 461.656H603.651L603.83 462.304H611.135V476.645H602.177L602.356 477.271H622.482C622.84 477.271 623.063 477.159 623.13 476.913C622.036 475.953 620.226 474.568 620.226 474.568L618.596 476.645ZM592.415 494.78C592.973 494.69 593.107 494.489 593.152 494.199L590.203 493.908V501.995H590.606C591.454 501.995 592.415 501.615 592.415 501.436V494.78ZM593.241 506.664C592.705 507.334 591.678 508.339 590.673 509.121C589.645 508.473 588.774 507.669 588.126 506.686L588.148 506.664H596.883C597.218 506.664 597.441 506.552 597.508 506.306C596.771 505.658 595.699 504.854 595.23 504.519C596.011 504.095 596.145 503.402 596.145 502.375V494.243C596.637 494.176 596.86 493.998 596.927 493.663L593.755 493.372V502.352C593.755 502.598 593.666 502.687 593.375 502.687C592.996 502.687 591.231 502.576 591.231 502.576V502.866C592.147 503 592.527 503.268 592.795 503.536C593.085 503.849 593.152 504.363 593.197 504.988C593.778 504.943 594.247 504.854 594.626 504.742L593.599 506.016H588.595C589.154 505.39 588.997 504.229 587.456 504.05C588.707 503.782 588.885 503.201 588.885 502.263V501.124C589.355 501.034 589.69 500.833 589.824 500.677L587.5 498.957L586.518 500.096H584.641V498.532H589.198C589.489 498.532 589.734 498.421 589.779 498.175C588.975 497.46 587.657 496.433 587.657 496.433L586.473 497.907H584.641V496.097H588.439C588.751 496.097 588.975 495.986 589.042 495.74C588.193 495.003 586.942 494.065 586.942 494.065L585.78 495.45H584.641V494.02C585.177 493.953 585.356 493.73 585.378 493.439L582.363 493.149V495.45H580.442C580.643 495.159 580.821 494.847 581 494.556C581.491 494.556 581.715 494.377 581.804 494.087L578.945 493.238C578.766 494.824 578.386 496.5 577.917 497.572L578.23 497.773C578.856 497.326 579.436 496.768 579.972 496.097H582.363V497.907H576.912L577.091 498.532H582.363V500.096H580.732L578.498 499.203V504.497H578.788C579.66 504.497 580.598 504.072 580.598 503.894V500.744H582.363V505.078H582.787C583.636 505.078 584.641 504.653 584.641 504.43V500.744H586.741V502.151C586.741 502.375 586.696 502.509 586.428 502.509C586.093 502.509 585.423 502.442 585.423 502.442V502.754C586.004 502.844 586.183 503.045 586.339 503.201C586.451 503.38 586.518 503.67 586.518 504.05C586.227 504.072 585.914 504.117 585.602 504.206L585.423 504.385C586.004 504.698 586.696 505.368 587.054 506.016H577.024L577.202 506.664H584.351C582.653 508.272 580.062 509.702 577.068 510.617L577.18 510.93C579.057 510.64 580.844 510.238 582.474 509.702V510.662C582.474 511.064 582.34 511.288 581.491 511.757L582.787 514.37C583.033 514.259 583.301 514.035 583.502 513.723C585.847 512.472 587.813 511.243 588.863 510.55L588.796 510.282C587.478 510.573 586.183 510.841 585.043 511.087V508.719C586.071 508.227 586.964 507.646 587.746 506.999C589.221 510.751 591.968 512.762 595.632 514.08C595.922 512.851 596.615 512.002 597.642 511.757L597.664 511.489C595.498 511.154 593.375 510.573 591.588 509.635C592.973 509.322 594.358 508.875 595.252 508.406C595.766 508.473 595.967 508.361 596.078 508.138L593.241 506.664ZM607.136 499.694C608.097 498.197 608.968 496.544 609.727 494.735C610.219 494.757 610.509 494.578 610.621 494.288L607.069 493.104C605.952 497.572 603.875 502.107 601.886 504.899L602.154 505.1C603.182 504.34 604.143 503.447 605.036 502.419V514.102H605.528C606.555 514.102 607.627 513.544 607.672 513.343V500.588C608.097 500.498 608.298 500.342 608.365 500.141L607.136 499.694ZM622.639 498.532C622.952 498.532 623.197 498.421 623.264 498.175C622.259 497.304 620.606 496.008 620.606 496.008L619.132 497.929H613.882C614.485 496.969 615.021 495.919 615.535 494.824C616.049 494.869 616.339 494.69 616.451 494.4L612.855 493.126C611.849 497.08 609.973 501.146 608.253 503.67L608.499 503.849C610.375 502.509 612.05 500.722 613.502 498.532H614.039V514.08H614.53C615.915 514.08 616.741 513.544 616.741 513.387V508.16H622.192C622.527 508.16 622.773 508.049 622.84 507.803C621.812 506.909 620.159 505.591 620.159 505.591L618.663 507.535H616.741V503.313H621.768C622.08 503.313 622.326 503.201 622.393 502.955C621.433 502.107 619.891 500.878 619.891 500.878L618.529 502.665H616.741V498.532H622.639Z" fill="#21402F"/>
<path d="M421.739 209.137C420.821 209.137 420.078 209.885 420.078 210.798C420.078 211.719 420.821 212.459 421.739 212.459C438.451 212.459 452.524 200.938 456.43 185.406C455.431 184.752 454.457 184.026 453.522 183.254C450.473 198.014 437.384 209.137 421.739 209.137Z" fill="#213F2E"/>
<path d="M499.114 132.611C498.042 131.537 496.867 130.52 495.619 129.585C495.114 129.209 494.812 128.622 494.812 127.992C494.812 127.366 495.114 126.772 495.619 126.396C496.867 125.457 498.042 124.44 499.117 123.373C505.18 117.299 508.526 109.237 508.526 100.655C508.526 92.0806 505.18 84.0168 499.114 77.9538C493.047 71.8838 484.984 68.5416 476.403 68.5416C467.829 68.5416 459.76 71.8838 453.691 77.9468C452.621 79.0209 451.607 80.2009 450.669 81.4486C450.288 81.9501 449.698 82.2451 449.076 82.2451C448.446 82.2451 447.852 81.9501 447.474 81.4486C446.539 80.2009 445.52 79.0244 444.453 77.9538C438.388 71.8838 430.315 68.5416 421.741 68.5416C413.161 68.5416 405.097 71.8838 399.028 77.9468C392.967 84.0168 389.625 92.0789 389.625 100.662C389.625 109.236 392.967 117.299 399.028 123.373C400.103 124.44 401.276 125.457 402.534 126.396C403.03 126.765 403.328 127.359 403.328 127.992C403.328 128.622 403.03 129.205 402.534 129.585C401.276 130.527 400.104 131.544 399.028 132.611C392.967 138.674 389.625 146.74 389.625 155.323C389.625 163.905 392.967 171.967 399.028 178.03C405.097 184.097 413.161 187.439 421.741 187.439C430.322 187.439 438.388 184.097 444.453 178.03C445.529 176.956 446.544 175.78 447.477 174.532C447.852 174.034 448.446 173.736 449.076 173.736C449.698 173.736 450.288 174.034 450.669 174.532C451.607 175.78 452.621 176.955 453.691 178.03C453.834 178.18 453.99 178.325 454.143 178.471C455.126 179.42 456.162 180.298 457.237 181.102C462.755 185.216 469.408 187.439 476.403 187.439C484.984 187.439 493.047 184.097 499.117 178.03C501.642 175.506 503.664 172.62 505.201 169.509V185.451C505.201 186.363 505.947 187.108 506.865 187.108C507.78 187.108 508.526 186.363 508.526 185.451V155.939C508.526 155.897 508.505 155.861 508.502 155.821C508.503 155.654 508.526 155.491 508.526 155.324C508.526 146.742 505.18 138.674 499.114 132.611ZM457.191 129.585C455.935 130.527 454.764 131.544 453.691 132.611C452.614 133.689 451.6 134.866 450.669 136.11C450.288 136.611 449.698 136.91 449.076 136.91C448.446 136.91 447.852 136.611 447.474 136.11C446.544 134.866 445.529 133.689 444.453 132.611C443.382 131.537 442.207 130.52 440.951 129.585C440.453 129.209 440.154 128.622 440.154 127.992C440.154 127.366 440.453 126.772 440.951 126.396C442.207 125.457 443.38 124.44 444.453 123.373C445.529 122.299 446.544 121.122 447.477 119.871C447.852 119.366 448.446 119.075 449.076 119.075C449.698 119.075 450.288 119.366 450.669 119.871C451.607 121.122 452.621 122.295 453.691 123.373C454.762 124.44 455.944 125.457 457.191 126.396C457.698 126.765 457.99 127.359 457.99 127.992C457.988 128.622 457.698 129.205 457.191 129.585Z" fill="#213F2E"/>
</svg>
