<svg width="610" height="95" viewBox="0 0 610 95" fill="none" xmlns="http://www.w3.org/2000/svg">
<path fill-rule="evenodd" clip-rule="evenodd" d="M0.254395 71.8937V67.4695L8.2577 66.6849C8.41435 58.4996 8.4144 50.05 8.4144 41.5899V37.595C8.4144 29.1024 8.41436 20.7437 8.25587 12.4058L0.254395 11.726V7.20621H39.3908L39.2327 6.59298L40.4591 7.20621H49.9772L50.0715 25.3137H44.0606L40.6848 12.2237H22.4329C22.2808 20.0804 22.2724 28.1788 22.2719 36.6162H33.4586L34.7099 27.6062H40.2069V50.4737H34.707L33.478 41.3787H22.2719C22.272 50.2842 22.277 58.5074 22.4283 66.5759L31.7069 67.468V71.8937H0.254395ZM30.8131 71V68.28L21.5502 67.3893C21.5442 67.0896 21.5384 66.7898 21.5328 66.4897C21.3832 58.4439 21.3783 50.2449 21.3781 41.3787C21.3781 41.0815 21.3781 40.7836 21.3781 40.485H34.2591L35.4881 49.58H39.3131V28.5H35.4881L34.2367 37.5099H21.3781C21.3781 37.2116 21.3781 36.9137 21.3782 36.6162C21.3786 28.1861 21.3871 20.0854 21.539 12.2237C21.5448 11.9254 21.5507 11.6275 21.5569 11.3299H41.3773L44.7531 24.4199H49.1728L49.0881 8.09995H1.14814V10.9049L9.13364 11.5835C9.1397 11.8829 9.14556 12.1824 9.15121 12.4819C9.30814 20.7997 9.30814 29.1358 9.30814 37.595V41.5899C9.30814 50.0117 9.30814 58.4335 9.15328 66.5971C9.14758 66.8974 9.14168 67.1973 9.13556 67.4969L1.14814 68.28V71H30.8131ZM57.6174 71.8937V67.7292L63.6753 67.1005C63.7732 62.2807 63.8224 55.5699 63.8224 51.11V44.82C63.8224 39.5871 63.7484 35.9889 63.6004 32.2209L56.8524 31.7084V28.0604L75.6201 23.2782L77.3487 24.5746L77.0849 38.1137V51.11C77.0849 55.5946 77.1347 62.3415 77.271 67.1579L82.8649 67.7276V71.8937H57.6174ZM81.9712 71V68.535L76.4012 67.9676C76.3919 67.6756 76.383 67.3748 76.3744 67.0665C76.24 62.2377 76.1912 55.5523 76.1912 51.11V38.1049L76.4462 25.0149L75.4262 24.25L57.7462 28.755V30.8799L64.4612 31.3899C64.6312 35.4699 64.7162 39.2099 64.7162 44.82V51.11C64.7162 55.5342 64.6678 62.1834 64.5711 67.0076C64.5649 67.3155 64.5585 67.616 64.552 67.9081L58.5112 68.535V71H81.9712ZM77.4249 9.11995C77.4249 13.3303 74.0706 16.2187 69.9862 16.2187C65.9788 16.2187 62.6324 13.323 62.6324 9.11995C62.6324 5.00978 65.9705 2.0212 69.9862 2.0212C74.079 2.0212 77.4249 5.0024 77.4249 9.11995ZM91.1612 71.8937V67.7292L97.3043 67.0917C97.4021 62.2725 97.4512 55.5671 97.4512 51.11V44.65C97.4512 39.4155 97.3771 36.188 97.2289 32.465L90.5662 31.8671V28.2475L108.283 23.2759L110.09 24.5269L110.467 30.6127C112.536 28.473 114.553 26.8692 116.582 25.715C119.661 23.9631 122.728 23.2712 125.97 23.2712C130.079 23.2712 133.604 24.5966 136.084 27.4938C138.545 30.3693 139.869 34.667 139.869 40.4V51.11C139.869 55.7669 139.967 62.3959 140.089 67.1614L145.649 67.7276V71.8937H120.571V67.7308L126.545 67.0989C126.642 62.3413 126.691 55.7522 126.691 51.11V39.635C126.691 36.0804 126.119 33.8688 125.18 32.559C124.291 31.3192 122.97 30.7537 121.04 30.7537C118.528 30.7537 114.758 32.2725 110.714 35.981V51.11C110.714 55.589 110.763 62.3383 110.862 67.1624L116.324 67.7292V71.8937H91.1612ZM115.43 71V68.535L109.986 67.97C109.979 67.6781 109.973 67.3775 109.966 67.0694C109.869 62.2404 109.82 55.5532 109.82 51.11V35.5917C110.119 35.311 110.417 35.0415 110.714 34.7829C114.643 31.3603 118.367 29.8599 121.04 29.8599C125.29 29.8599 127.585 32.4099 127.585 39.635V51.11C127.585 55.7142 127.537 62.243 127.441 67.0042C127.434 67.3122 127.428 67.6128 127.421 67.905L121.465 68.535V71H144.755V68.535L139.217 67.9709C139.209 67.6788 139.201 67.3782 139.193 67.0701C139.072 62.3033 138.975 55.7355 138.975 51.11V40.4C138.975 29.18 133.79 24.165 125.97 24.165C120.622 24.165 115.842 26.1223 110.543 31.8326C110.265 32.132 109.986 32.4416 109.705 32.7619L109.225 25.0149L108.12 24.25L91.46 28.9249V31.0499L98.09 31.6449C98.26 35.7249 98.345 39.04 98.345 44.65V51.11C98.345 55.5315 98.2967 62.1753 98.2 66.9987C98.1939 67.3067 98.1875 67.6072 98.1809 67.8992L92.055 68.535V71H115.43ZM187.388 63.8008V32.4697C187.264 32.3616 187.139 32.2567 187.015 32.1549C186.866 32.0325 186.717 31.9145 186.568 31.8009C184.287 30.0608 182.065 29.3499 179.653 29.3499C172.768 29.3499 167.073 34.11 167.073 48.305C167.073 61.82 172.258 67.09 179.228 67.09C181.945 67.09 184.269 66.3515 186.535 64.5373C186.687 64.4157 186.839 64.2892 186.99 64.1578C187.007 64.1436 187.023 64.1293 187.039 64.1149C187.156 64.0132 187.272 63.9084 187.388 63.8008ZM186.495 63.4042V32.8838C184.174 30.9672 181.998 30.2437 179.653 30.2437C176.435 30.2437 173.575 31.3441 171.49 34.0499C169.375 36.7942 167.967 41.3055 167.967 48.305C167.967 54.97 169.249 59.4506 171.262 62.243C173.243 64.9905 175.997 66.1962 179.228 66.1962C181.927 66.1962 184.201 65.4253 186.495 63.4042ZM187.813 30.1923C187.52 29.838 187.222 29.5003 186.92 29.179C183.675 25.7276 179.947 24.165 175.488 24.165C164.268 24.165 154.833 33.5149 154.833 48.6449C154.833 63.4349 163.248 72.4449 174.298 72.4449C179.125 72.4449 183.369 70.5948 186.824 67.2281C187.099 66.9603 187.369 66.6828 187.634 66.396L188.238 72.0199L205.153 71V68.535L198.863 68.11V15.5799L199.118 2.23495L197.843 1.46995L180.588 4.69995V6.99495L187.813 7.50495V30.1923ZM186.92 27.9044V8.33783L179.695 7.82783V3.95798L198.012 0.529053L200.022 1.73475L199.757 15.5799V67.2746L206.047 67.6996V71.8414L187.441 72.9634L186.944 68.3434C183.432 71.5552 179.152 73.3387 174.298 73.3387C168.515 73.3387 163.398 70.9738 159.741 66.6699C156.092 62.3753 153.94 56.2061 153.94 48.6449C153.94 33.1227 163.679 23.2712 175.488 23.2712C178.477 23.2712 181.187 23.9426 183.655 25.3917C184.803 26.0658 185.888 26.9021 186.92 27.9044ZM238.787 71.8937V67.491L247.816 66.3624L248.034 12.5015L239.722 11.7185V7.20621H262.054L279.73 53.1024L297.291 7.20621H319.114V11.7251L311.25 12.4021C311.04 20.6957 311.039 29.1076 311.039 37.595V41.5899C311.039 50.052 311.04 58.4999 311.248 66.6826L319.369 67.4685V71.8937H289.277V67.4701L297.131 66.695C297.225 62.3204 297.241 57.9983 297.256 53.8719C297.27 50.1461 297.283 46.5798 297.352 43.2786C297.352 43.2761 297.352 43.2736 297.352 43.2711L297.568 20.9283L278.207 71.8937H273.07L253.186 20.8688L253.494 40.3858L253.495 40.4L253.494 66.3222L262.844 67.491V71.8937H238.787ZM261.951 71V68.28L252.601 67.1112V40.4L252.214 15.9128L273.681 71H277.591L298.51 15.9317L298.246 43.29C298.177 46.5559 298.164 50.1139 298.15 53.8401C298.135 57.9464 298.119 62.2571 298.027 66.6066C298.021 66.9064 298.014 67.2065 298.007 67.5066L290.171 68.28V71H318.476V68.28L310.376 67.4961C310.368 67.1964 310.36 66.8963 310.352 66.5959C310.146 58.4326 310.146 50.0113 310.146 41.5899V37.595C310.146 29.1443 310.146 20.755 310.354 12.4792C310.362 12.1794 310.37 11.8797 310.378 11.5802L318.221 10.9049V8.09995H297.906L279.733 55.5962L261.441 8.09995H240.616V10.9049L248.931 11.6883L248.706 67.1517L239.681 68.28V71H261.951ZM351.416 74.9665L351.415 74.9698C348.677 82.2419 345.84 87.2215 342.727 90.3901C339.579 93.5938 336.164 94.9287 332.388 94.9287C330.042 94.9287 327.726 94.3443 325.935 93.2324C324.137 92.116 322.81 90.4208 322.657 88.2321L322.649 88.1214L322.669 88.0121C323.367 84.1244 326.769 82.4312 330.094 82.4312C333.469 82.4312 335.992 84.4694 338.082 86.9083L338.09 86.9177L338.838 87.815C341.776 85.2404 344.159 81.2291 346.565 75.3847L327.558 29.3442L322.485 28.7916V24.6312H348.582V28.7899L341.779 29.5458L352.731 59.5274L357.639 46.1414L363.096 29.5698L355.04 28.8026V24.6312H374.252V28.7813L368.327 29.5039L351.416 74.9665ZM367.679 28.6826L373.359 27.9899V25.5249H355.934V27.9899L364.295 28.7862L358.483 46.4349L352.729 62.1279L340.549 28.7833L347.689 27.9899V25.5249H323.379V27.9899L328.182 28.5131L347.531 75.3832C347.37 75.78 347.208 76.1692 347.047 76.5508C344.733 82.007 342.369 85.9165 339.41 88.5019C339.184 88.6994 338.955 88.8893 338.721 89.0714L337.404 87.4899C335.363 85.1099 333.069 83.325 330.094 83.325C327.034 83.325 324.143 84.855 323.548 88.17C323.803 91.825 327.969 94.035 332.388 94.035C333.846 94.035 335.246 93.8245 336.597 93.3631C336.851 93.2764 337.103 93.1808 337.354 93.0761C337.95 92.827 338.537 92.5262 339.115 92.1701C339.343 92.0302 339.569 91.8818 339.793 91.7246C340.004 91.5776 340.213 91.423 340.421 91.2606C340.676 91.0613 340.929 90.8503 341.181 90.6271C344.514 87.6763 347.585 82.6073 350.578 74.655L367.679 28.6826ZM457.838 64.7333C452.301 70.5121 444.729 73.5087 436.601 73.5087C428.56 73.5087 420.989 70.556 415.431 64.7995C409.869 59.0402 406.382 50.5389 406.382 39.55C406.382 28.6861 409.871 20.1869 415.429 14.3978C420.985 8.61145 428.554 5.5912 436.601 5.5912C444.686 5.5912 452.257 8.56583 457.805 14.3335C463.355 20.1035 466.82 28.6042 466.82 39.55C466.82 50.4524 463.377 58.9526 457.838 64.7333ZM424.858 60.4752C427.513 65.6225 431.416 68.5762 436.601 68.5762C441.831 68.5762 445.732 65.6208 448.376 60.4765C451.037 55.2976 452.367 47.9771 452.367 39.55C452.367 31.1659 451.037 23.8448 448.375 18.6547C445.73 13.4976 441.828 10.5237 436.601 10.5237C431.418 10.5237 427.515 13.496 424.858 18.6559C422.186 23.8466 420.835 31.1679 420.835 39.55C420.835 47.9752 422.186 55.2958 424.858 60.4752ZM492.763 72.2337L477.568 29.3532L472.696 28.7856V24.6312H497.943V28.8038L491.131 29.4424L499.78 57.1948L509.067 29.4649L503.041 28.7891V24.6312H525.908V28.7882L519.355 29.5301L528.83 56.9379L537.047 29.6111L529.901 28.7865V24.6312H549.028V28.7651L542.646 29.6768L528.119 72.2337H521.911L510.676 39.4754L498.867 72.2337H492.763ZM510.697 36.7817L522.549 71.34H527.479L541.978 28.8695L548.134 27.9899V25.5249H530.794V27.9899L538.211 28.8457L528.889 59.8445L518.145 28.7676L525.014 27.9899V25.5249H503.934V27.9899L510.266 28.7L499.749 60.1005L489.95 28.6555L497.049 27.9899V25.5249H473.589V27.9899L478.224 28.5299L493.394 71.34H498.239L510.697 36.7817ZM554.893 71.8937V67.7292L561.036 67.0917C561.134 62.2725 561.183 55.5671 561.183 51.11V44.65C561.183 39.4155 561.109 36.188 560.96 32.465L554.298 31.8671V28.2475L572.015 23.2759L573.822 24.5269L574.199 30.6127C576.268 28.473 578.284 26.8692 580.313 25.715C583.393 23.9631 586.459 23.2712 589.701 23.2712C593.811 23.2712 597.335 24.5966 599.815 27.4938C602.277 30.3693 603.6 34.667 603.6 40.4V51.11C603.6 55.7669 603.699 62.3959 603.821 67.1614L609.38 67.7276V71.8937H584.303V67.7308L590.276 67.0989C590.374 62.3413 590.423 55.7522 590.423 51.11V39.635C590.423 36.0804 589.851 33.8688 588.911 32.559C588.022 31.3192 586.702 30.7537 584.771 30.7537C582.259 30.7537 578.489 32.2726 574.445 35.981V51.11C574.445 55.589 574.495 62.3383 574.594 67.1624L580.055 67.7292V71.8937H554.893ZM579.161 71V68.535L573.717 67.97C573.71 67.6781 573.704 67.3775 573.698 67.0694C573.6 62.2404 573.551 55.5532 573.551 51.11V35.5917C573.85 35.311 574.148 35.0415 574.445 34.7829C578.375 31.3603 582.098 29.8599 584.771 29.8599C589.021 29.8599 591.316 32.4099 591.316 39.635V51.11C591.316 55.7142 591.268 62.243 591.172 67.0042C591.166 67.3122 591.159 67.6128 591.153 67.905L585.196 68.535V71H608.486V68.535L602.948 67.9709C602.94 67.6788 602.932 67.3782 602.924 67.0701C602.804 62.3033 602.706 55.7355 602.706 51.11V40.4C602.706 29.18 597.521 24.165 589.701 24.165C584.354 24.165 579.574 26.1223 574.274 31.8326C573.996 32.132 573.717 32.4416 573.436 32.7619L572.956 25.0149L571.851 24.25L555.191 28.9249V31.0499L561.821 31.6449C561.991 35.7249 562.076 39.04 562.076 44.65V51.11C562.076 55.5315 562.028 62.1753 561.931 66.9987C561.925 67.3067 561.919 67.6072 561.912 67.8992L555.786 68.535V71H579.161ZM76.5312 9.11995C76.5312 12.7749 73.6412 15.3249 69.9862 15.3249C66.4162 15.3249 63.5262 12.7749 63.5262 9.11995C63.5262 5.54995 66.4162 2.91495 69.9862 2.91495C73.6412 2.91495 76.5312 5.54995 76.5312 9.11995ZM465.926 39.55C465.926 60.97 452.411 72.6149 436.601 72.6149C420.961 72.6149 407.276 61.1399 407.276 39.55C407.276 18.2149 420.961 6.48494 436.601 6.48494C452.326 6.48494 465.926 18.0449 465.926 39.55ZM419.941 39.55C419.941 56.55 425.381 69.47 436.601 69.47C447.906 69.47 453.261 56.55 453.261 39.55C453.261 22.6349 447.906 9.62994 436.601 9.62994C425.381 9.62994 419.941 22.6349 419.941 39.55Z" fill="#979E8A"/>
</svg>
