<svg width="683" height="460" viewBox="0 0 683 460" fill="none" xmlns="http://www.w3.org/2000/svg">
<path fill-rule="evenodd" clip-rule="evenodd" d="M675.19 101.359C683.361 76.8373 683.134 55.3471 673.369 38.4339C663.604 21.5206 645.107 10.5782 619.785 5.39457C594.464 0.211228 562.439 0.815676 525.846 6.89848C452.668 19.0629 361.445 53.099 269.552 106.154C177.659 159.208 102.571 221.192 55.4476 278.483C31.8833 307.132 15.347 334.565 7.1757 359.085C-0.996093 383.606 -0.768252 405.096 8.99663 422.009C18.7615 438.923 37.2586 449.865 62.5805 455.049C87.9009 460.232 119.927 459.627 156.519 453.545C229.697 441.38 320.92 407.344 412.813 354.289C504.707 301.235 579.794 239.251 626.918 181.96C650.482 153.311 667.018 125.878 675.19 101.359ZM413.313 355.155C597.253 248.958 714.071 106.933 674.235 37.9339C634.398 -31.0652 452.992 -0.909864 269.052 105.288C85.1125 211.485 -31.706 353.51 8.1306 422.509C47.9672 491.508 229.374 461.353 413.313 355.155Z" fill="#21402F"/>
</svg>
