<svg width="69" height="281" viewBox="0 0 69 281" fill="none" xmlns="http://www.w3.org/2000/svg">
<path fill-rule="evenodd" clip-rule="evenodd" d="M18 0.418485L21.9308 0.418486L22.7807 7.2178L62.7483 7.37984L63.3378 1.12249L67.36 1.12249L67.36 18.489L33.3884 31.5726L67.36 44.5704L67.36 61.5545L63.3304 61.5545L62.82 55.6258C56.6753 55.4746 50.4436 55.4745 44.152 55.4745L41.144 55.4745C34.8713 55.4745 28.6138 55.4746 22.5483 55.6244L21.9559 61.7465L18 61.7465L18 38.4345L21.9542 38.4345L22.5384 44.3546C25.7289 44.4199 28.8745 44.4313 31.8854 44.4422C34.6913 44.4523 37.3802 44.4621 39.8793 44.5146L54.8725 44.6595L18 30.6523L18 26.3349L54.9321 11.9431L42.0479 12.1465L22.8108 12.1465L21.9308 19.1865L18 19.1865L18 0.418485ZM19 18.1865L21.048 18.1865L21.928 11.1465L42.04 11.1465L60.4774 10.8554L19 27.0185L19 29.9625L60.4632 45.7135L39.864 45.5145C37.4048 45.4627 34.7257 45.4528 31.92 45.4425C28.9319 45.4314 25.8002 45.4199 22.6373 45.3566C22.3019 45.3499 21.9662 45.3426 21.6302 45.3347L21.048 39.4345L19 39.4345L19 60.7465L21.048 60.7465L21.6382 54.6477C21.9733 54.6386 22.3091 54.6299 22.6454 54.6218C28.6889 54.4745 34.9164 54.4745 41.144 54.4745L44.152 54.4745C50.4029 54.4745 56.6092 54.4745 62.7337 54.6234C63.0692 54.6316 63.4045 54.6402 63.7396 54.6493L64.248 60.5545L66.36 60.5545L66.36 45.2585L30.5981 31.5757L66.36 17.8025L66.36 2.12249L64.248 2.12249L63.6582 8.38354L21.8975 8.21423L21.048 1.41849L19 1.41849L19 18.1865ZM15.8956 85.8539C10.403 83.786 6.60434 81.63 4.17114 79.2393C1.69851 76.8099 0.65598 74.1556 0.65598 71.222C0.65598 69.4052 1.10772 67.5992 1.98243 66.1905C2.86213 64.7737 4.22233 63.6926 6.00239 63.5684L6.12634 63.5598L6.24865 63.5817C9.38533 64.1447 10.72 66.8944 10.72 69.494C10.72 72.1824 9.09266 74.1648 7.23478 75.7572L7.22422 75.7663L6.80992 76.1114C8.68603 78.1338 11.5484 79.8233 15.6986 81.5423L50.0602 67.3568L50.487 63.438L54.24 63.438L54.24 83.742L50.4889 83.742L49.9334 78.7425L28.5898 86.5393L37.8247 89.9254L49.9076 93.9039L50.4747 87.95L54.24 87.95L54.24 103.07L50.4985 103.07L49.9435 98.5187L15.8956 85.8539ZM50.8625 97.7936L51.384 102.07L53.24 102.07L53.24 88.95L51.384 88.95L50.7844 95.2454L37.496 90.87L25.6801 86.5375L50.7867 77.3662L51.384 82.742L53.24 82.742L53.24 64.438L51.384 64.438L50.9901 68.0548L15.6996 82.6237C15.2537 82.4422 14.8205 82.2606 14.4 82.0784C10.6586 80.4574 7.91687 78.7915 6.04056 76.7525C5.81202 76.5042 5.59632 76.2503 5.39322 75.9903L6.58398 74.998C8.37598 73.462 9.71998 71.734 9.71998 69.494C9.71998 67.19 8.56798 65.014 6.07198 64.566C3.31998 64.758 1.65598 67.894 1.65598 71.222C1.65598 72.19 1.77926 73.124 2.04672 74.0291C2.13948 74.343 2.2496 74.6534 2.37793 74.9606C2.70807 75.7507 3.15878 76.5192 3.74492 77.2696C3.95897 77.5436 4.1911 77.8153 4.44201 78.0847C6.07339 79.8362 8.49897 81.4931 11.9176 83.1032C12.5764 83.4134 13.2721 83.722 14.0061 84.0291C14.717 84.3266 15.4639 84.6228 16.248 84.918L50.8625 97.7936ZM23.4921 165.914C19.0714 161.678 16.784 155.89 16.784 149.688C16.784 143.552 19.0379 137.765 23.4413 133.513C27.848 129.257 34.3349 126.608 42.68 126.608C50.9317 126.608 57.4163 129.259 61.8446 133.511C66.2698 137.76 68.576 143.546 68.576 149.688C68.576 155.857 66.3053 161.645 61.8932 165.889C57.4785 170.135 50.9921 172.768 42.68 172.768C34.4007 172.768 27.9149 170.152 23.4921 165.914ZM27.0744 141.137C23.2749 143.097 21.152 145.939 21.152 149.688C21.152 153.471 23.2767 156.312 27.073 158.263C30.9079 160.233 36.3615 161.232 42.68 161.232C48.9658 161.232 54.42 160.233 58.2636 158.262C62.0703 156.31 64.208 153.468 64.208 149.688C64.208 145.942 62.0721 143.099 58.2622 141.137C54.418 139.158 48.9636 138.144 42.68 138.144C36.3637 138.144 30.9099 139.158 27.0744 141.137ZM17.744 191.743L50.0562 180.293L50.4937 176.538L54.24 176.538L54.24 196.202L50.4733 196.202L50.0024 191.178L30.4578 197.269L48.245 203.226L48.48 203.146L48.48 203.305L49.9935 203.812L50.4899 199.386L54.24 199.386L54.24 217.258L50.4908 217.258L49.9453 212.439L30.6515 219.109L49.8832 224.892L50.4927 219.61L54.24 219.61L54.24 234.666L50.5167 234.666L49.8185 229.779L17.744 218.829L17.744 213.688L41.7504 205.454L17.744 196.801L17.744 191.743ZM44.7643 205.477L18.744 214.402L18.744 218.114L50.7217 229.03L51.384 233.666L53.24 233.666L53.24 220.61L51.384 220.61L50.7397 226.194L27.3993 219.175L50.7985 211.086L51.384 216.258L53.24 216.258L53.24 200.386L51.384 200.386L50.8493 205.153L27.2067 197.235L50.8828 189.857L51.384 195.202L53.24 195.202L53.24 177.538L51.384 177.538L50.9774 181.028L18.744 192.45L18.744 196.098L44.7643 205.477ZM18 238.427L21.7576 238.427L22.2382 243.059C25.8374 243.128 30.7077 243.163 33.976 243.163L38.84 243.163C42.6416 243.163 45.0343 243.112 47.7145 243.008L48.1657 237.979L51.438 237.979L55.2898 251.706L54.17 253.324L50.1575 253.572C51.5305 254.969 52.5911 256.344 53.3812 257.733C54.7309 260.106 55.264 262.471 55.264 264.964C55.264 268.131 54.2398 270.884 51.9703 272.827C49.7249 274.749 46.4016 275.755 42.04 275.755L33.976 275.755C30.5645 275.755 25.7463 275.826 22.1864 275.914L21.7593 280.108L18 280.108L18 260.572L21.7558 260.572L22.2321 265.075C25.7841 265.145 30.573 265.18 33.976 265.18L42.616 265.18C45.2711 265.18 46.8514 264.75 47.7531 264.103C48.5765 263.512 48.976 262.634 48.976 261.251C48.976 259.49 47.9088 256.769 45.2229 253.803L33.976 253.803C30.6916 253.803 25.7893 253.839 22.1849 253.909L21.7576 258.027L18 258.027L18 238.427ZM19 257.027L20.856 257.027L21.2814 252.928C21.6041 252.921 21.9408 252.914 22.2889 252.907C25.8947 252.838 30.7304 252.803 33.976 252.803L45.6603 252.803C45.9165 253.076 46.1603 253.348 46.392 253.618C46.4102 253.64 46.4283 253.661 46.4464 253.682C46.4787 253.72 46.5108 253.758 46.5426 253.796C48.9264 256.637 49.976 259.311 49.976 261.251C49.976 264.452 48.056 266.18 42.616 266.18L33.976 266.18C30.6143 266.18 25.8901 266.145 22.3381 266.077C21.9902 266.071 21.6534 266.064 21.3303 266.056L20.856 261.572L19 261.572L19 279.108L20.856 279.108L21.2807 274.937C21.6036 274.929 21.9403 274.92 22.2885 274.911C25.8461 274.824 30.5986 274.755 33.976 274.755L42.04 274.755C50.488 274.755 54.264 270.852 54.264 264.964C54.264 261.041 52.8652 257.524 48.8172 253.655C48.4924 253.345 48.1505 253.032 47.791 252.717L53.624 252.355L54.2 251.523L50.68 238.979L49.08 238.979L48.632 243.971C45.56 244.099 43.064 244.163 38.84 244.163L33.976 244.163C30.7464 244.163 25.9422 244.129 22.3422 244.061C21.9942 244.054 21.6576 244.047 21.3346 244.04L20.856 239.427L19 239.427L19 257.027ZM42.68 171.768C26.552 171.768 17.784 161.592 17.784 149.688C17.784 137.912 26.424 127.608 42.68 127.608C58.744 127.608 67.576 137.912 67.576 149.688C67.576 161.528 58.872 171.768 42.68 171.768ZM42.68 137.144C29.88 137.144 20.152 141.24 20.152 149.688C20.152 158.2 29.88 162.232 42.68 162.232C55.416 162.232 65.208 158.2 65.208 149.688C65.208 141.24 55.416 137.144 42.68 137.144Z" fill="#979E8A"/>
</svg>
