<svg width="67" height="279" viewBox="0 0 67 279" fill="none" xmlns="http://www.w3.org/2000/svg">
<path d="M18 0.418497L18 -0.581503L17 -0.581503L17 0.418497L18 0.418497ZM18 17.1865L17 17.1865L17 18.1865L18 18.1865L18 17.1865ZM20.048 17.1865L20.048 18.1865L20.9308 18.1865L21.0403 17.3105L20.048 17.1865ZM21.008 9.5065L22.0003 9.63053L22.008 9.56875L22.008 9.5065L21.008 9.5065ZM21.008 8.0985L22.008 8.0985L22.008 8.03624L22.0003 7.97446L21.008 8.0985ZM20.048 0.418497L21.0403 0.294462L20.9308 -0.581503L20.048 -0.581503L20.048 0.418497ZM63.248 1.1225L63.248 0.122499L62.3378 0.122499L62.2524 1.02871L63.248 1.1225ZM62.416 9.9545L61.4204 9.86071L61.416 9.9075L61.416 9.9545L62.416 9.9545ZM62.416 10.7865L61.416 10.7865L61.416 11.7865L62.416 11.7865L62.416 10.7865ZM65.36 10.7865L65.36 11.7865L66.36 11.7865L66.36 10.7865L65.36 10.7865ZM65.36 1.1225L66.36 1.1225L66.36 0.122499L65.36 0.122499L65.36 1.1225ZM18 7.2025L18.0041 6.20251L17 6.19843L17 7.2025L18 7.2025ZM18 10.1465L17 10.1465L17 11.1465L18 11.1465L18 10.1465ZM41.04 10.1465L41.04 11.1465L41.0479 11.1465L41.0558 11.1464L41.04 10.1465ZM65.36 9.7625L65.3758 10.7624L66.36 10.7468L66.36 9.7625L65.36 9.7625ZM65.36 7.3945L66.36 7.3945L66.36 6.39855L65.3641 6.39451L65.36 7.3945ZM18 26.0185L17.6369 25.0867L17 25.3349L17 26.0185L18 26.0185ZM18 28.9625L17 28.9625L17 29.6523L17.6449 29.8973L18 28.9625ZM60.624 45.1545L60.2689 46.0893L60.2729 46.0908L60.624 45.1545ZM62.672 45.9225L63.672 45.9225L63.672 45.2295L63.0231 44.9862L62.672 45.9225ZM62.672 47.5865L61.672 47.5865L61.672 48.5865L62.672 48.5865L62.672 47.5865ZM65.36 47.5865L65.36 48.5865L66.36 48.5865L66.36 47.5865L65.36 47.5865ZM65.36 44.2585L66.36 44.2585L66.36 43.5704L65.7173 43.3245L65.36 44.2585ZM28.56 30.1785L28.1793 31.1032L28.1909 31.108L28.2027 31.1125L28.56 30.1785ZM27.472 29.7305L27.8528 28.8058L26.472 28.2373L26.472 29.7305L27.472 29.7305ZM27.472 31.3945L26.472 31.3945L26.472 32.8512L27.8314 32.3277L27.472 31.3945ZM65.36 16.8025L65.7194 17.7357L66.36 17.489L66.36 16.8025L65.36 16.8025ZM65.36 8.1625L66.36 8.1625L66.36 7.1625L65.36 7.1625L65.36 8.1625ZM62.672 8.1625L62.672 7.1625L61.672 7.1625L61.672 8.1625L62.672 8.1625ZM62.672 8.6105L63.0351 9.54225L63.672 9.29406L63.672 8.6105L62.672 8.6105ZM18 38.4345L18 37.4345L17 37.4345L17 38.4345L18 38.4345ZM18 59.7465L17 59.7465L17 60.7465L18 60.7465L18 59.7465ZM20.048 59.7465L20.048 60.7465L20.9559 60.7465L21.0433 59.8428L20.048 59.7465ZM21.008 49.8265L22.0033 49.9228L22.008 49.8748L22.008 49.8265L21.008 49.8265ZM21.008 48.1625L22.008 48.1625L22.008 48.1133L22.0032 48.0643L21.008 48.1625ZM20.048 38.4345L21.0432 38.3363L20.9542 37.4345L20.048 37.4345L20.048 38.4345ZM18 44.2585L18.0348 43.2591L17 43.2231L17 44.2585L18 44.2585ZM18 53.7305L17 53.7305L17 54.7669L18.0357 54.7299L18 53.7305ZM65.36 53.7305L65.3249 54.7299L66.36 54.7662L66.36 53.7305L65.36 53.7305ZM65.36 44.7705L66.36 44.7705L66.36 43.7801L65.3697 43.7705L65.36 44.7705ZM38.864 44.5145L38.8429 45.5143L38.8543 45.5145L38.864 44.5145ZM62.416 48.9305L62.416 47.9305L61.416 47.9305L61.416 48.9305L62.416 48.9305ZM62.416 49.8905L61.416 49.8905L61.416 49.9335L61.4197 49.9763L62.416 49.8905ZM63.248 59.5545L62.2517 59.6403L62.3304 60.5545L63.248 60.5545L63.248 59.5545ZM65.36 59.5545L65.36 60.5545L66.36 60.5545L66.36 59.5545L65.36 59.5545ZM65.36 48.9305L66.36 48.9305L66.36 47.9305L65.36 47.9305L65.36 48.9305ZM17 0.418497L17 17.1865L19 17.1865L19 0.418497L17 0.418497ZM18 18.1865L20.048 18.1865L20.048 16.1865L18 16.1865L18 18.1865ZM21.0403 17.3105L22.0003 9.63053L20.0157 9.38246L19.0557 17.0625L21.0403 17.3105ZM22.008 9.5065L22.008 8.0985L20.008 8.0985L20.008 9.5065L22.008 9.5065ZM22.0003 7.97446L21.0403 0.294462L19.0557 0.542532L20.0157 8.22253L22.0003 7.97446ZM20.048 -0.581503L18 -0.581503L18 1.4185L20.048 1.4185L20.048 -0.581503ZM62.2524 1.02871L61.4204 9.86071L63.4116 10.0483L64.2436 1.21629L62.2524 1.02871ZM61.416 9.9545L61.416 10.7865L63.416 10.7865L63.416 9.9545L61.416 9.9545ZM62.416 11.7865L65.36 11.7865L65.36 9.7865L62.416 9.7865L62.416 11.7865ZM66.36 10.7865L66.36 1.1225L64.36 1.1225L64.36 10.7865L66.36 10.7865ZM65.36 0.122499L63.248 0.122499L63.248 2.1225L65.36 2.1225L65.36 0.122499ZM17 7.2025L17 10.1465L19 10.1465L19 7.2025L17 7.2025ZM18 11.1465L41.04 11.1465L41.04 9.1465L18 9.1465L18 11.1465ZM41.0558 11.1464L65.3758 10.7624L65.3442 8.76262L41.0242 9.14662L41.0558 11.1464ZM66.36 9.7625L66.36 7.3945L64.36 7.3945L64.36 9.7625L66.36 9.7625ZM65.3641 6.39451L18.0041 6.20251L17.9959 8.20249L65.3559 8.39449L65.3641 6.39451ZM17 26.0185L17 28.9625L19 28.9625L19 26.0185L17 26.0185ZM17.6449 29.8973L60.2689 46.0893L60.9791 44.2197L18.3551 28.0277L17.6449 29.8973ZM60.2729 46.0908L62.3209 46.8588L63.0231 44.9862L60.9751 44.2182L60.2729 46.0908ZM61.672 45.9225L61.672 47.5865L63.672 47.5865L63.672 45.9225L61.672 45.9225ZM62.672 48.5865L65.36 48.5865L65.36 46.5865L62.672 46.5865L62.672 48.5865ZM66.36 47.5865L66.36 44.2585L64.36 44.2585L64.36 47.5865L66.36 47.5865ZM65.7173 43.3245L28.9173 29.2445L28.2027 31.1125L65.0027 45.1925L65.7173 43.3245ZM28.9407 29.2538L27.8528 28.8058L27.0912 30.6552L28.1793 31.1032L28.9407 29.2538ZM26.472 29.7305L26.472 31.3945L28.472 31.3945L28.472 29.7305L26.472 29.7305ZM27.8314 32.3277L65.7194 17.7357L65.0006 15.8693L27.1126 30.4613L27.8314 32.3277ZM66.36 16.8025L66.36 8.1625L64.36 8.1625L64.36 16.8025L66.36 16.8025ZM65.36 7.1625L62.672 7.1625L62.672 9.1625L65.36 9.1625L65.36 7.1625ZM61.672 8.1625L61.672 8.6105L63.672 8.6105L63.672 8.1625L61.672 8.1625ZM62.3089 7.67874L17.6369 25.0867L18.3631 26.9503L63.0351 9.54225L62.3089 7.67874ZM17 38.4345L17 59.7465L19 59.7465L19 38.4345L17 38.4345ZM18 60.7465L20.048 60.7465L20.048 58.7465L18 58.7465L18 60.7465ZM21.0433 59.8428L22.0033 49.9228L20.0126 49.7302L19.0526 59.6502L21.0433 59.8428ZM22.008 49.8265L22.008 48.1625L20.008 48.1625L20.008 49.8265L22.008 49.8265ZM22.0032 48.0643L21.0432 38.3363L19.0528 38.5327L20.0128 48.2607L22.0032 48.0643ZM20.048 37.4345L18 37.4345L18 39.4345L20.048 39.4345L20.048 37.4345ZM17 44.2585L17 53.7305L19 53.7305L19 44.2585L17 44.2585ZM18.0357 54.7299C25.1827 54.4746 32.6524 54.4745 40.144 54.4745L40.144 52.4745C32.6596 52.4745 25.1533 52.4744 17.9643 52.7311L18.0357 54.7299ZM40.144 54.4745L43.152 54.4745L43.152 52.4745L40.144 52.4745L40.144 54.4745ZM43.152 54.4745C50.6432 54.4745 58.0495 54.4746 65.3249 54.7299L65.3951 52.7311C58.0785 52.4744 50.6368 52.4745 43.152 52.4745L43.152 54.4745ZM66.36 53.7305L66.36 44.7705L64.36 44.7705L64.36 53.7305L66.36 53.7305ZM65.3697 43.7705L38.8737 43.5145L38.8543 45.5145L65.3503 45.7705L65.3697 43.7705ZM38.885 43.5147C32.7253 43.385 25.4121 43.5157 18.0348 43.2591L17.9652 45.2579C25.3079 45.5133 32.8427 45.388 38.843 45.5143L38.885 43.5147ZM61.416 48.9305L61.416 49.8905L63.416 49.8905L63.416 48.9305L61.416 48.9305ZM61.4197 49.9763L62.2517 59.6403L64.2443 59.4687L63.4123 49.8047L61.4197 49.9763ZM63.248 60.5545L65.36 60.5545L65.36 58.5545L63.248 58.5545L63.248 60.5545ZM66.36 59.5545L66.36 48.9305L64.36 48.9305L64.36 59.5545L66.36 59.5545ZM65.36 47.9305L62.416 47.9305L62.416 49.9305L65.36 49.9305L65.36 47.9305ZM15.248 83.918L14.8957 84.8539L14.8994 84.8553L15.248 83.918ZM52.24 97.678L51.8914 98.6153L53.24 99.1169L53.24 97.678L52.24 97.678ZM52.24 95.054L53.24 95.054L53.24 94.3305L52.5527 94.1042L52.24 95.054ZM36.496 89.87L36.1517 90.8089L36.1674 90.8146L36.1832 90.8198L36.496 89.87ZM21.136 84.238L21.4803 83.2991L21.4663 83.294L21.4522 83.2893L21.136 84.238ZM19.6 83.726L19.2045 84.6445L19.2435 84.6613L19.2838 84.6747L19.6 83.726ZM14.992 81.742L15.3875 80.8235L15.3763 80.8187L15.365 80.8141L14.992 81.742ZM2.89599 72.462L3.81514 72.0681L3.19703 70.6258L2.15075 71.7952L2.89599 72.462ZM1.808 73.678L1.06276 73.0112L0.549893 73.5844L0.972287 74.2272L1.808 73.678ZM3.28 75.918L2.44429 76.4672L3.05954 77.4034L3.92018 76.6862L3.28 75.918ZM5.584 73.998L6.22424 74.7663L6.23479 74.7573L5.584 73.998ZM5.072 63.566L5.24866 62.5817L5.12636 62.5598L5.0024 62.5684L5.072 63.566ZM13.328 82.19L12.9464 81.2657L10.6249 82.224L12.9698 83.1236L13.328 82.19ZM23.504 86.094L23.1458 87.0276L23.5772 87.1932L23.9829 86.9719L23.504 86.094ZM24.208 85.71L23.8649 84.7707L23.7947 84.7963L23.7291 84.8321L24.208 85.71ZM52.24 75.47L52.5831 76.4093L53.24 76.1693L53.24 75.47L52.24 75.47ZM52.24 66.126L53.24 66.126L53.24 64.6313L51.8584 65.2017L52.24 66.126ZM50.384 63.438L50.384 62.438L49.487 62.438L49.3899 63.3297L50.384 63.438ZM49.68 69.902L48.6859 69.7937L48.68 69.8477L48.68 69.902L49.68 69.902ZM49.68 75.406L48.68 75.406L48.68 75.4614L48.6861 75.5164L49.68 75.406ZM50.384 81.742L49.3901 81.8524L49.489 82.742L50.384 82.742L50.384 81.742ZM52.24 81.742L52.24 82.742L53.24 82.742L53.24 81.742L52.24 81.742ZM52.24 63.438L53.24 63.438L53.24 62.438L52.24 62.438L52.24 63.438ZM50.384 87.95L50.384 86.95L49.4747 86.95L49.3885 87.8552L50.384 87.95ZM49.744 94.67L48.7485 94.5752L48.744 94.6225L48.744 94.67L49.744 94.67ZM49.744 95.822L48.744 95.822L48.744 95.8827L48.7513 95.9431L49.744 95.822ZM50.384 101.07L49.3914 101.191L49.4985 102.07L50.384 102.07L50.384 101.07ZM52.24 101.07L52.24 102.07L53.24 102.07L53.24 101.07L52.24 101.07ZM52.24 87.95L53.24 87.95L53.24 86.95L52.24 86.95L52.24 87.95ZM-0.344005 70.222C-0.344005 73.1556 0.698529 75.8099 3.17115 78.2393C5.60435 80.63 9.40299 82.786 14.8957 84.8539L15.6003 82.9821C10.213 80.9539 6.71563 78.918 4.57284 76.8127C2.46946 74.7461 1.65599 72.6004 1.656 70.222L-0.344005 70.222ZM14.8994 84.8553L51.8914 98.6153L52.5886 96.7407L15.5966 82.9807L14.8994 84.8553ZM53.24 97.678L53.24 95.054L51.24 95.054L51.24 97.678L53.24 97.678ZM52.5527 94.1042L36.8087 88.9202L36.1832 90.8198L51.9272 96.0038L52.5527 94.1042ZM36.8403 88.9311L21.4803 83.2991L20.7917 85.1769L36.1517 90.8089L36.8403 88.9311ZM21.4522 83.2893L19.9162 82.7773L19.2838 84.6747L20.8198 85.1867L21.4522 83.2893ZM19.9955 82.8075L15.3875 80.8235L14.5965 82.6605L19.2045 84.6445L19.9955 82.8075ZM15.365 80.8141C8.87729 78.2064 5.37588 75.7098 3.81514 72.0681L1.97685 72.8559C3.87211 77.2782 8.0507 80.0296 14.619 82.6698L15.365 80.8141ZM2.15075 71.7952L1.06276 73.0112L2.55323 74.3448L3.64124 73.1288L2.15075 71.7952ZM0.972287 74.2272L2.44429 76.4672L4.1157 75.3688L2.6437 73.1288L0.972287 74.2272ZM3.92018 76.6862L6.22418 74.7662L4.94381 73.2298L2.63981 75.1498L3.92018 76.6862ZM6.23479 74.7573C8.09268 73.1648 9.72 71.1824 9.72 68.494L7.72 68.494C7.72 70.2856 6.65931 71.7592 4.9332 73.2387L6.23479 74.7573ZM9.72 68.494C9.72 65.8944 8.38534 63.1447 5.24866 62.5817L4.89533 64.5503C6.75065 64.8833 7.72 66.4856 7.72 68.494L9.72 68.494ZM5.0024 62.5684C3.22235 62.6926 1.86215 63.7737 0.982442 65.1905C0.107739 66.5992 -0.344005 68.4053 -0.344005 70.222L1.656 70.222C1.656 68.7107 2.03625 67.2848 2.68155 66.2455C3.32184 65.2143 4.16965 64.6314 5.1416 64.5636L5.0024 62.5684ZM12.9698 83.1236L23.1458 87.0276L23.8622 85.1603L13.6862 81.2563L12.9698 83.1236ZM23.9829 86.9719L24.6868 86.5879L23.7291 84.8321L23.0251 85.2161L23.9829 86.9719ZM24.5511 86.6493L52.5831 76.4093L51.8969 74.5307L23.8649 84.7707L24.5511 86.6493ZM53.24 75.47L53.24 66.126L51.24 66.126L51.24 75.47L53.24 75.47ZM51.8584 65.2017L12.9464 81.2657L13.7096 83.1143L52.6216 67.0503L51.8584 65.2017ZM49.3899 63.3297L48.6859 69.7937L50.6741 70.0103L51.3781 63.5463L49.3899 63.3297ZM48.68 69.902L48.68 75.406L50.68 75.406L50.68 69.902L48.68 69.902ZM48.6861 75.5164L49.3901 81.8524L51.3779 81.6316L50.6739 75.2956L48.6861 75.5164ZM50.384 82.742L52.24 82.742L52.24 80.742L50.384 80.742L50.384 82.742ZM53.24 81.742L53.24 63.438L51.24 63.438L51.24 81.742L53.24 81.742ZM52.24 62.438L50.384 62.438L50.384 64.438L52.24 64.438L52.24 62.438ZM49.3885 87.8552L48.7485 94.5752L50.7395 94.7648L51.3795 88.0448L49.3885 87.8552ZM48.744 94.67L48.744 95.822L50.744 95.822L50.744 94.67L48.744 94.67ZM48.7513 95.9431L49.3914 101.191L51.3766 100.949L50.7366 95.7009L48.7513 95.9431ZM50.384 102.07L52.24 102.07L52.24 100.07L50.384 100.07L50.384 102.07ZM53.24 101.07L53.24 87.95L51.24 87.95L51.24 101.07L53.24 101.07ZM52.24 86.95L50.384 86.95L50.384 88.95L52.24 88.95L52.24 86.95ZM15.784 148.688C15.784 154.89 18.0715 160.678 22.4921 164.914C26.9149 169.152 33.4007 171.768 41.68 171.768L41.68 169.768C33.8313 169.768 27.8691 167.296 23.8758 163.47C19.8805 159.642 17.784 154.39 17.784 148.688L15.784 148.688ZM41.68 171.768C49.9922 171.768 56.4785 169.135 60.8932 164.889C65.3053 160.645 67.576 154.857 67.576 148.688L65.576 148.688C65.576 154.359 63.4947 159.611 59.5067 163.447C55.5215 167.281 49.5598 169.768 41.68 169.768L41.68 171.768ZM67.576 148.688C67.576 142.546 65.2698 136.76 60.8446 132.511C56.4163 128.259 49.9317 125.608 41.68 125.608L41.68 127.608C49.4923 127.608 55.4557 130.109 59.4594 133.953C63.4662 137.8 65.576 143.054 65.576 148.688L67.576 148.688ZM41.68 125.608C33.335 125.608 26.848 128.257 22.4413 132.513C18.0379 136.765 15.784 142.552 15.784 148.688L17.784 148.688C17.784 143.048 19.8501 137.795 23.8306 133.951C27.8079 130.111 33.769 127.608 41.68 127.608L41.68 125.608ZM20.152 148.688C20.152 144.939 22.2749 142.097 26.0745 140.137C29.9099 138.158 35.3637 137.144 41.68 137.144L41.68 135.144C35.1963 135.144 29.3861 136.178 25.1575 138.359C20.8931 140.559 18.152 143.989 18.152 148.688L20.152 148.688ZM41.68 137.144C47.9636 137.144 53.418 138.158 57.2623 140.137C61.0721 142.099 63.208 144.942 63.208 148.688L65.208 148.688C65.208 143.986 62.4479 140.557 58.1777 138.359C53.942 136.178 48.1324 135.144 41.68 135.144L41.68 137.144ZM63.208 148.688C63.208 152.468 61.0703 155.31 57.2636 157.262C53.42 159.233 47.9658 160.232 41.68 160.232L41.68 162.232C48.1302 162.232 53.94 161.215 58.1763 159.042C62.4497 156.85 65.208 153.42 65.208 148.688L63.208 148.688ZM41.68 160.232C35.3615 160.232 29.9079 159.233 26.0731 157.263C22.2767 155.312 20.152 152.471 20.152 148.688L18.152 148.688C18.152 153.417 20.8913 156.848 25.1589 159.041C29.3881 161.215 35.1985 162.232 41.68 162.232L41.68 160.232ZM17.744 191.45L17.41 190.507L16.744 190.743L16.744 191.45L17.744 191.45ZM17.744 195.098L16.744 195.098L16.744 195.801L17.4049 196.039L17.744 195.098ZM45.264 205.018L45.6097 204.08L45.6031 204.077L45.264 205.018ZM46.48 205.466L46.1343 206.404L47.48 206.9L47.48 205.466L46.48 205.466ZM46.48 203.546L47.48 203.546L47.48 202.146L46.1556 202.6L46.48 203.546ZM17.744 213.402L17.4196 212.456L16.744 212.688L16.744 213.402L17.744 213.402ZM17.744 217.114L16.744 217.114L16.744 217.829L17.4209 218.06L17.744 217.114ZM52.24 228.89L51.9169 229.836L53.24 230.288L53.24 228.89L52.24 228.89ZM52.24 225.946L53.24 225.946L53.24 225.202L52.528 224.988L52.24 225.946ZM25.424 217.882L25.1078 218.831L25.1218 218.835L25.136 218.84L25.424 217.882ZM24.656 217.626L24.9722 216.677L23.656 216.239L23.656 217.626L24.656 217.626ZM24.656 218.778L23.656 218.778L23.656 220.182L24.9827 219.723L24.656 218.778ZM52.24 209.242L52.5667 210.187L53.24 209.954L53.24 209.242L52.24 209.242ZM52.24 204.954L53.24 204.954L53.24 204.234L52.5576 204.006L52.24 204.954ZM25.488 195.994L25.8056 195.046L25.7939 195.042L25.7821 195.038L25.488 195.994ZM24.656 195.738L24.9501 194.782L23.5616 194.355L23.6582 195.805L24.656 195.738ZM24.72 196.698L23.7222 196.765L23.8066 198.03L25.0175 197.653L24.72 196.698ZM52.24 188.122L52.5375 189.077L53.24 188.858L53.24 188.122L52.24 188.122ZM52.24 179.226L53.24 179.226L53.24 177.811L51.906 178.283L52.24 179.226ZM50.384 176.538L50.384 175.538L49.4937 175.538L49.3907 176.422L50.384 176.538ZM49.616 183.13L48.6227 183.014L48.616 183.072L48.616 183.13L49.616 183.13ZM49.616 186.01L48.616 186.01L48.616 186.057L48.6204 186.103L49.616 186.01ZM50.384 194.202L49.3884 194.295L49.4734 195.202L50.384 195.202L50.384 194.202ZM52.24 194.202L52.24 195.202L53.24 195.202L53.24 194.202L52.24 194.202ZM52.24 176.538L53.24 176.538L53.24 175.538L52.24 175.538L52.24 176.538ZM50.384 199.386L50.384 198.386L49.4899 198.386L49.3902 199.275L50.384 199.386ZM49.616 206.234L48.6222 206.123L48.616 206.178L48.616 206.234L49.616 206.234ZM49.616 208.474L48.616 208.474L48.616 208.53L48.6223 208.586L49.616 208.474ZM50.384 215.258L49.3903 215.37L49.4908 216.258L50.384 216.258L50.384 215.258ZM52.24 215.258L52.24 216.258L53.24 216.258L53.24 215.258L52.24 215.258ZM52.24 199.386L53.24 199.386L53.24 198.386L52.24 198.386L52.24 199.386ZM50.384 219.61L50.384 218.61L49.4927 218.61L49.3906 219.495L50.384 219.61ZM49.616 226.266L48.6226 226.151L48.616 226.209L48.616 226.266L49.616 226.266ZM49.616 227.29L48.616 227.29L48.616 227.361L48.626 227.431L49.616 227.29ZM50.384 232.666L49.394 232.807L49.5167 233.666L50.384 233.666L50.384 232.666ZM52.24 232.666L52.24 233.666L53.24 233.666L53.24 232.666L52.24 232.666ZM52.24 219.61L53.24 219.61L53.24 218.61L52.24 218.61L52.24 219.61ZM16.744 191.45L16.744 195.098L18.744 195.098L18.744 191.45L16.744 191.45ZM17.4049 196.039L44.9249 205.959L45.6031 204.077L18.0831 194.157L17.4049 196.039ZM44.9183 205.956L46.1343 206.404L46.8257 204.528L45.6097 204.08L44.9183 205.956ZM47.48 205.466L47.48 203.546L45.48 203.546L45.48 205.466L47.48 205.466ZM46.1556 202.6L17.4196 212.456L18.0684 214.348L46.8044 204.492L46.1556 202.6ZM16.744 213.402L16.744 217.114L18.744 217.114L18.744 213.402L16.744 213.402ZM17.4209 218.06L51.9169 229.836L52.5631 227.944L18.0671 216.168L17.4209 218.06ZM53.24 228.89L53.24 225.946L51.24 225.946L51.24 228.89L53.24 228.89ZM52.528 224.988L25.712 216.924L25.136 218.84L51.952 226.904L52.528 224.988ZM25.7402 216.933L24.9722 216.677L24.3398 218.575L25.1078 218.831L25.7402 216.933ZM23.656 217.626L23.656 218.778L25.656 218.778L25.656 217.626L23.656 217.626ZM24.9827 219.723L52.5667 210.187L51.9133 208.297L24.3293 217.833L24.9827 219.723ZM53.24 209.242L53.24 204.954L51.24 204.954L51.24 209.242L53.24 209.242ZM52.5576 204.006L25.8056 195.046L25.1704 196.942L51.9224 205.902L52.5576 204.006ZM25.7821 195.038L24.9501 194.782L24.3619 196.694L25.1939 196.95L25.7821 195.038ZM23.6582 195.805L23.7222 196.765L25.7178 196.631L25.6538 195.671L23.6582 195.805ZM25.0175 197.653L52.5375 189.077L51.9425 187.167L24.4225 195.743L25.0175 197.653ZM53.24 188.122L53.24 179.226L51.24 179.226L51.24 188.122L53.24 188.122ZM51.906 178.283L17.41 190.507L18.078 192.393L52.574 180.169L51.906 178.283ZM49.3907 176.422L48.6227 183.014L50.6093 183.246L51.3773 176.654L49.3907 176.422ZM48.616 183.13L48.616 186.01L50.616 186.01L50.616 183.13L48.616 183.13ZM48.6204 186.103L49.3884 194.295L51.3796 194.109L50.6116 185.917L48.6204 186.103ZM50.384 195.202L52.24 195.202L52.24 193.202L50.384 193.202L50.384 195.202ZM53.24 194.202L53.24 176.538L51.24 176.538L51.24 194.202L53.24 194.202ZM52.24 175.538L50.384 175.538L50.384 177.538L52.24 177.538L52.24 175.538ZM49.3902 199.275L48.6222 206.123L50.6098 206.345L51.3778 199.497L49.3902 199.275ZM48.616 206.234L48.616 208.474L50.616 208.474L50.616 206.234L48.616 206.234ZM48.6223 208.586L49.3903 215.37L51.3776 215.146L50.6096 208.362L48.6223 208.586ZM50.384 216.258L52.24 216.258L52.24 214.258L50.384 214.258L50.384 216.258ZM53.24 215.258L53.24 199.386L51.24 199.386L51.24 215.258L53.24 215.258ZM52.24 198.386L50.384 198.386L50.384 200.386L52.24 200.386L52.24 198.386ZM49.3906 219.495L48.6226 226.151L50.6094 226.381L51.3774 219.725L49.3906 219.495ZM48.616 226.266L48.616 227.29L50.616 227.29L50.616 226.266L48.616 226.266ZM48.626 227.431L49.394 232.807L51.3739 232.525L50.6059 227.149L48.626 227.431ZM50.384 233.666L52.24 233.666L52.24 231.666L50.384 231.666L50.384 233.666ZM53.24 232.666L53.24 219.61L51.24 219.61L51.24 232.666L53.24 232.666ZM52.24 218.61L50.384 218.61L50.384 220.61L52.24 220.61L52.24 218.61ZM18 238.428L18 237.428L17 237.428L17 238.428L18 238.428ZM18 256.027L17 256.027L17 257.027L18 257.027L18 256.027ZM19.856 256.027L19.856 257.027L20.7576 257.027L20.8507 256.131L19.856 256.027ZM20.56 249.243L21.5546 249.347L21.56 249.295L21.56 249.243L20.56 249.243ZM20.56 245.211L21.56 245.211L21.56 245.16L21.5546 245.108L20.56 245.211ZM19.856 238.428L20.8507 238.324L20.7576 237.428L19.856 237.428L19.856 238.428ZM18 242.971L18.04 241.972L17 241.931L17 242.971L18 242.971ZM18 251.995L17 251.995L17 253.036L18.04 252.995L18 251.995ZM45.392 251.803L45.392 252.803L45.4229 252.803L45.4538 252.802L45.392 251.803ZM52.624 251.355L52.6858 252.354L53.17 252.324L53.4462 251.925L52.624 251.355ZM53.2 250.523L54.0222 251.093L54.2898 250.706L54.1628 250.253L53.2 250.523ZM49.68 237.98L50.6428 237.709L50.438 236.98L49.68 236.98L49.68 237.98ZM48.08 237.98L48.08 236.98L47.1657 236.98L47.084 237.89L48.08 237.98ZM47.632 242.971L47.6736 243.971L48.5496 243.934L48.628 243.061L47.632 242.971ZM18 260.571L18 259.571L17 259.571L17 260.571L18 260.571ZM18 278.108L17 278.108L17 279.108L18 279.108L18 278.108ZM19.856 278.108L19.856 279.108L20.7593 279.108L20.8508 278.209L19.856 278.108ZM20.56 271.195L21.5548 271.297L21.56 271.246L21.56 271.195L20.56 271.195ZM20.56 267.228L21.56 267.228L21.56 267.175L21.5544 267.122L20.56 267.228ZM19.856 260.571L20.8504 260.466L20.7558 259.571L19.856 259.571L19.856 260.571ZM18 264.987L18.04 263.988L17 263.947L17 264.987L18 264.987ZM18 274.012L17 274.012L17 275.052L18.04 275.011L18 274.012ZM45.2 250.396L44.2 250.396L44.2 250.88L44.5803 251.18L45.2 250.396ZM45.2 249.435L46.2 249.435L46.2 248.309L45.0818 248.443L45.2 249.435ZM42.512 249.755L42.3938 248.763L40.1347 249.031L41.8603 250.514L42.512 249.755ZM17 238.428L17 256.027L19 256.027L19 238.428L17 238.428ZM18 257.027L19.856 257.027L19.856 255.027L18 255.027L18 257.027ZM20.8507 256.131L21.5546 249.347L19.5653 249.14L18.8613 255.924L20.8507 256.131ZM21.56 249.243L21.56 245.211L19.56 245.211L19.56 249.243L21.56 249.243ZM21.5546 245.108L20.8507 238.324L18.8613 238.531L19.5653 245.315L21.5546 245.108ZM19.856 237.428L18 237.428L18 239.428L19.856 239.428L19.856 237.428ZM17 242.971L17 251.995L19 251.995L19 242.971L17 242.971ZM18.04 252.995C21.2177 252.868 28.5595 252.803 32.976 252.803L32.976 250.803C28.5605 250.803 21.1823 250.867 17.96 250.996L18.04 252.995ZM32.976 252.803L45.392 252.803L45.392 250.803L32.976 250.803L32.976 252.803ZM45.4538 252.802L52.6858 252.354L52.5622 250.357L45.3302 250.805L45.4538 252.802ZM53.4462 251.925L54.0222 251.093L52.3778 249.954L51.8018 250.786L53.4462 251.925ZM54.1628 250.253L50.6428 237.709L48.7172 238.25L52.2372 250.794L54.1628 250.253ZM49.68 236.98L48.08 236.98L48.08 238.98L49.68 238.98L49.68 236.98ZM47.084 237.89L46.636 242.882L48.628 243.061L49.076 238.069L47.084 237.89ZM47.5904 241.972C44.5322 242.1 42.0501 242.163 37.84 242.163L37.84 244.163C42.0779 244.163 44.5878 244.099 47.6736 243.971L47.5904 241.972ZM37.84 242.163L32.976 242.163L32.976 244.163L37.84 244.163L37.84 242.163ZM32.976 242.163C28.5595 242.163 21.2177 242.099 18.04 241.972L17.96 243.971C21.1823 244.1 28.5605 244.163 32.976 244.163L32.976 242.163ZM17 260.571L17 278.108L19 278.108L19 260.571L17 260.571ZM18 279.108L19.856 279.108L19.856 277.108L18 277.108L18 279.108ZM20.8508 278.209L21.5548 271.297L19.5651 271.094L18.8611 278.006L20.8508 278.209ZM21.56 271.195L21.56 267.228L19.56 267.228L19.56 271.195L21.56 271.195ZM21.5544 267.122L20.8504 260.466L18.8615 260.677L19.5655 267.333L21.5544 267.122ZM19.856 259.571L18 259.571L18 261.571L19.856 261.571L19.856 259.571ZM17 264.987L17 274.012L19 274.012L19 264.987L17 264.987ZM18.04 275.011C21.2233 274.883 28.3775 274.755 32.976 274.755L32.976 272.755C28.3584 272.755 21.1766 272.884 17.96 273.012L18.04 275.011ZM32.976 274.755L41.04 274.755L41.04 272.755L32.976 272.755L32.976 274.755ZM41.04 274.755C45.4016 274.755 48.7249 273.749 50.9703 271.827C53.2398 269.884 54.264 267.131 54.264 263.963L52.264 263.963C52.264 266.684 51.4002 268.827 49.6697 270.308C47.9151 271.81 45.1264 272.755 41.04 272.755L41.04 274.755ZM54.264 263.963C54.264 261.471 53.7309 259.106 52.3812 256.733C51.0408 254.377 48.9217 252.06 45.8196 249.611L44.5803 251.18C47.5582 253.531 49.4712 255.662 50.6428 257.722C51.8051 259.765 52.264 261.784 52.264 263.963L54.264 263.963ZM46.2 250.396L46.2 249.435L44.2 249.435L44.2 250.396L46.2 250.396ZM45.0818 248.443L42.3938 248.763L42.6302 250.748L45.3182 250.428L45.0818 248.443ZM41.8603 250.514C46.2994 254.328 47.976 258.044 47.976 260.251L49.976 260.251C49.976 257.211 47.8125 252.991 43.1637 248.997L41.8603 250.514ZM47.976 260.251C47.976 261.634 47.5765 262.512 46.7532 263.103C45.8514 263.75 44.2712 264.18 41.616 264.18L41.616 266.18C44.4008 266.18 46.5006 265.745 47.9188 264.728C49.4155 263.655 49.976 262.069 49.976 260.251L47.976 260.251ZM41.616 264.18L32.976 264.18L32.976 266.18L41.616 266.18L41.616 264.18ZM32.976 264.18C28.3677 264.18 21.2178 264.115 18.04 263.988L17.96 265.987C21.1822 266.116 28.3683 266.18 32.976 266.18L32.976 264.18Z" fill="#979E8A"/>
</svg>
