<svg width="10" height="18" viewBox="0 0 10 18" fill="none" xmlns="http://www.w3.org/2000/svg">
<path d="M1.53033 0.46967C1.23744 0.176776 0.762564 0.176776 0.46967 0.46967C0.176777 0.762563 0.176777 1.23744 0.46967 1.53033L1.53033 0.46967ZM0.46967 16.4697C0.176776 16.7626 0.176776 17.2374 0.46967 17.5303C0.762563 17.8232 1.23744 17.8232 1.53033 17.5303L0.46967 16.4697ZM8.29289 9.70711L7.76256 9.17678L8.29289 9.70711ZM0.46967 1.53033L7.76256 8.82322L8.82322 7.76256L1.53033 0.46967L0.46967 1.53033ZM7.76256 9.17678L0.46967 16.4697L1.53033 17.5303L8.82322 10.2374L7.76256 9.17678ZM7.76256 8.82322C7.86019 8.92085 7.86019 9.07914 7.76256 9.17678L8.82322 10.2374C9.50664 9.55402 9.50664 8.44598 8.82322 7.76256L7.76256 8.82322Z" fill="#979E8A"/>
</svg>
