<svg width="161" height="40" viewBox="0 0 161 40" fill="none" xmlns="http://www.w3.org/2000/svg">
<path fill-rule="evenodd" clip-rule="evenodd" d="M0.0209961 0H160.021V15.2C156.707 15.2 154.021 17.8863 154.021 21.2C154.021 24.5137 156.707 27.2 160.021 27.2V40H0.0209961V27.2C3.3347 27.2 6.021 24.5137 6.021 21.2C6.021 17.8863 3.3347 15.2 0.0209961 15.2V0ZM1.021 14.2709C4.41329 14.7561 7.021 17.6735 7.021 21.2C7.021 24.7265 4.41329 27.6439 1.021 28.1291V39H159.021V28.1291C155.629 27.6439 153.021 24.7265 153.021 21.2C153.021 17.6735 155.629 14.7561 159.021 14.2709V1H1.021V14.2709Z" fill="#21402F"/>
</svg>
