<svg width="10" height="18" viewBox="0 0 10 18" fill="none" xmlns="http://www.w3.org/2000/svg">
<path d="M8.46967 0.46967C8.76256 0.176776 9.23744 0.176776 9.53033 0.46967C9.82322 0.762563 9.82322 1.23744 9.53033 1.53033L8.46967 0.46967ZM9.53033 16.4697C9.82322 16.7626 9.82322 17.2374 9.53033 17.5303C9.23744 17.8232 8.76256 17.8232 8.46967 17.5303L9.53033 16.4697ZM1.70711 9.70711L2.23744 9.17678L1.70711 9.70711ZM9.53033 1.53033L2.23744 8.82322L1.17678 7.76256L8.46967 0.46967L9.53033 1.53033ZM2.23744 9.17678L9.53033 16.4697L8.46967 17.5303L1.17678 10.2374L2.23744 9.17678ZM2.23744 8.82322C2.13981 8.92085 2.13981 9.07914 2.23744 9.17678L1.17678 10.2374C0.49336 9.55402 0.493358 8.44598 1.17678 7.76256L2.23744 8.82322Z" fill="#979E8A"/>
</svg>
