<svg width="88" height="88" viewBox="0 0 88 88" fill="none" xmlns="http://www.w3.org/2000/svg">
<g filter="url(#filter0_d_953_7333)">
<path d="M82 42C82 64.0914 64.0914 82 42 82C19.9086 82 2 64.0914 2 42C2 19.9086 19.9086 2 42 2C64.0914 2 82 19.9086 82 42Z" fill="#21402F"/>
<path fill-rule="evenodd" clip-rule="evenodd" d="M38.667 45.3333L38.667 65.3333H22.0003C20.1594 65.3333 18.667 63.8409 18.667 61.9999V45.3333H38.667ZM45.3337 45.3333L45.3337 65.3333H62.0003C63.8413 65.3333 65.3337 63.8409 65.3337 61.9999V45.3333H45.3337Z" fill="#FDF1E8"/>
<path fill-rule="evenodd" clip-rule="evenodd" d="M56.3901 20.4967C57.3106 22.091 56.7643 24.1297 55.17 25.0501C54.9 25.206 54.2139 25.3979 53.0683 25.524C51.997 25.6419 50.7455 25.6821 49.5299 25.6796C48.8068 25.6781 48.1081 25.6616 47.4832 25.6391C47.7762 25.0868 48.1113 24.4734 48.4715 23.8465C49.0772 22.7924 49.7376 21.7287 50.3755 20.8598C51.0575 19.9308 51.5667 19.4325 51.8367 19.2766C53.431 18.3562 55.4696 18.9024 56.3901 20.4967ZM43.6648 25.7781C43.7552 25.5962 43.8624 25.3823 43.9843 25.1431C44.3833 24.36 44.9427 23.2971 45.5814 22.1857C46.2168 21.0798 46.947 19.8973 47.6884 18.8873C48.3856 17.9376 49.2443 16.9243 50.17 16.3899C53.3587 14.5489 57.4359 15.6414 59.2769 18.8301C61.1178 22.0187 60.0253 26.0959 56.8367 27.9369C56.2178 28.2942 55.4286 28.5186 54.6235 28.6666H65.3335C67.1744 28.6666 68.6668 30.159 68.6668 31.9999V35.3333C68.6668 37.1742 67.1744 38.6666 65.3335 38.6666H18.6668C16.8259 38.6666 15.3335 37.1742 15.3335 35.3333V31.9999C15.3335 30.159 16.8259 28.6666 18.6668 28.6666H29.3768C28.5717 28.5186 27.7825 28.2942 27.1636 27.9369C23.975 26.0959 22.8825 22.0187 24.7235 18.8301C26.5644 15.6414 30.6417 14.5489 33.8303 16.3899C34.756 16.9243 35.6147 17.9376 36.3119 18.8873C37.0534 19.8973 37.7835 21.0798 38.419 22.1857C39.0576 23.2971 39.617 24.36 40.016 25.1431C40.1379 25.3823 40.2451 25.5961 40.3355 25.778C40.8253 25.4951 41.3938 25.3333 42.0002 25.3333C42.6065 25.3333 43.175 25.4952 43.6648 25.7781ZM28.8303 25.0501C27.236 24.1297 26.6897 22.091 27.6102 20.4967C28.5307 18.9024 30.5693 18.3562 32.1636 19.2766C32.4337 19.4325 32.9428 19.9308 33.6249 20.8598C34.2627 21.7287 34.9231 22.7924 35.5288 23.8465C35.889 24.4734 36.2241 25.0868 36.5171 25.6391C35.8923 25.6616 35.1935 25.6781 34.4705 25.6796C33.2548 25.6821 32.0034 25.6419 30.932 25.524C29.7864 25.3979 29.1003 25.206 28.8303 25.0501Z" fill="#FDF1E8"/>
</g>
<defs>
<filter id="filter0_d_953_7333" x="0" y="0" width="88" height="88" filterUnits="userSpaceOnUse" color-interpolation-filters="sRGB">
<feFlood flood-opacity="0" result="BackgroundImageFix"/>
<feColorMatrix in="SourceAlpha" type="matrix" values="0 0 0 0 0 0 0 0 0 0 0 0 0 0 0 0 0 0 127 0" result="hardAlpha"/>
<feOffset dx="2" dy="2"/>
<feGaussianBlur stdDeviation="2"/>
<feComposite in2="hardAlpha" operator="out"/>
<feColorMatrix type="matrix" values="0 0 0 0 0 0 0 0 0 0 0 0 0 0 0 0 0 0 0.25 0"/>
<feBlend mode="normal" in2="BackgroundImageFix" result="effect1_dropShadow_953_7333"/>
<feBlend mode="normal" in="SourceGraphic" in2="effect1_dropShadow_953_7333" result="shape"/>
</filter>
</defs>
</svg>
