<svg width="20" height="20" viewBox="0 0 16 16" fill="none" xmlns="http://www.w3.org/2000/svg">
<path d="M2.31313 10.3131C2.11787 10.5084 2.11787 10.825 2.31313 11.0202C2.5084 11.2155 2.82498 11.2155 3.02024 11.0202L2.31313 10.3131ZM12.9798 11.0202C13.1751 11.2155 13.4916 11.2155 13.6869 11.0202C13.8822 10.825 13.8822 10.5084 13.6869 10.3131L12.9798 11.0202ZM3.02024 11.0202L7.88217 6.15829L7.17506 5.45118L2.31313 10.3131L3.02024 11.0202ZM8.11787 6.15829L12.9798 11.0202L13.6869 10.3131L8.82498 5.45118L8.11787 6.15829ZM7.88217 6.15829C7.94726 6.0932 8.05278 6.0932 8.11787 6.15829L8.82498 5.45118C8.36937 4.99557 7.63067 4.99557 7.17506 5.45118L7.88217 6.15829Z" fill="#FDF1E8"/>
</svg>
