<svg width="246" height="40" viewBox="0 0 246 40" fill="none" xmlns="http://www.w3.org/2000/svg">
<g filter="url(#filter0_b_956_10299)">
<path fill-rule="evenodd" clip-rule="evenodd" d="M27.4656 22.5124L27.4643 22.5152C26.1043 25.4408 24.0882 27.7809 21.4248 29.521C18.7673 31.2763 15.6116 32.1373 11.9927 32.1373C8.11993 32.1373 5.07689 31.0906 3.0133 28.865C0.958859 26.6493 0 23.3984 0 19.2574C0 15.7478 0.66993 12.5317 2.02241 9.62213C3.38153 6.69827 5.38202 4.35816 8.01676 2.61742L8.02015 2.61519C10.7051 0.861467 13.874 0 17.494 0C21.366 0 24.4087 1.04258 26.4724 3.2603C28.5275 5.4687 29.4867 8.70914 29.4867 12.8362C29.4867 16.3459 28.8167 19.5754 27.4656 22.5124ZM21.0027 28.8674C23.544 27.2075 25.4644 24.9797 26.7639 22.1841C28.0634 19.3593 28.7132 16.2434 28.7132 12.8362C28.7132 4.79875 24.9734 0.780031 17.494 0.780031C13.9997 0.780031 10.982 1.60998 8.44067 3.26989C5.92827 4.9298 4.02232 7.15756 2.7228 9.9532C1.42328 12.7488 0.773522 15.8502 0.773522 19.2574C0.773522 27.324 4.51324 31.3573 11.9927 31.3573C15.4869 31.3573 18.4903 30.5273 21.0027 28.8674ZM11.5897 16.9157C11.1583 20.1351 10.9469 22.6432 10.9469 24.4555C10.9469 25.6234 11.1007 26.4335 11.3445 26.9517C11.4913 27.2431 11.782 27.4758 12.5125 27.4758C13.6476 27.4758 14.6925 26.7669 15.5814 24.8655L15.5834 24.8612C16.5107 22.9087 17.2928 19.7043 17.8969 15.1783C18.3284 11.9589 18.5398 9.45037 18.5398 7.63807C18.5398 6.46779 18.3704 5.68911 18.1144 5.21595L18.1046 5.19772L18.0957 5.17898C18.0045 4.98665 17.883 4.86211 17.7248 4.77674C17.5561 4.68579 17.304 4.61778 16.9309 4.61778C15.8328 4.61778 14.7844 5.33026 13.8609 7.27401C12.9616 9.1989 12.1939 12.3895 11.5897 16.9157ZM10.6499 27.2948C10.3322 26.6251 10.1734 25.6786 10.1734 24.4555C10.1734 22.5918 10.39 20.0437 10.8231 16.8112C11.4296 12.2683 12.2093 8.97764 13.1623 6.93916C14.1441 4.87155 15.4003 3.83775 16.9309 3.83775C17.855 3.83775 18.4758 4.17265 18.7935 4.84243C19.14 5.4831 19.3133 6.41498 19.3133 7.63807C19.3133 9.50182 19.0967 12.0499 18.6635 15.2824C18.0571 19.8253 17.263 23.1305 16.2811 25.1981C15.3281 27.2366 14.0719 28.2558 12.5125 28.2558C11.5884 28.2558 10.9675 27.9355 10.6499 27.2948ZM49.5844 30.0993L49.5819 30.1008C47.3615 31.4691 44.7475 32.1373 41.7713 32.1373C38.5719 32.1373 36.0313 31.3106 34.2981 29.5217C32.568 27.7362 31.7712 25.1246 31.7712 21.8346C31.7712 18.9894 32.3423 16.4056 33.5007 14.0999L33.5025 14.0963C34.6945 11.754 36.4126 9.91184 38.6464 8.58415C40.8926 7.21982 43.5178 6.55226 46.4928 6.55226C49.6172 6.55226 52.1112 7.35543 53.8353 9.0905C55.6013 10.8089 56.4063 13.4111 56.4063 16.7239C56.4063 19.5693 55.8352 22.166 54.6786 24.4986C53.5162 26.8429 51.8139 28.7134 49.5844 30.0993ZM41.9311 20.0194L41.9309 20.0204C41.5863 22.511 41.4185 24.4502 41.4185 25.8534C41.4185 26.7486 41.5265 27.3326 41.6786 27.6769C41.7634 27.8147 41.9343 27.9563 42.421 27.9563C43.1485 27.9563 43.8613 27.5138 44.491 26.138L44.4937 26.1321C45.1622 24.7029 45.757 22.241 46.2464 18.6701L46.2466 18.6691C46.5912 16.1785 46.7589 14.2393 46.7589 12.8362C46.7589 11.9105 46.6432 11.3453 46.4941 11.0446L46.4899 11.0363L46.486 11.0279C46.4388 10.9268 46.3809 10.8693 46.3032 10.8277C46.2143 10.7801 46.0593 10.7332 45.7998 10.7332C45.0397 10.7332 44.2989 11.1951 43.6419 12.598C43.0008 14.0003 42.4205 16.4485 41.9311 20.0194ZM40.9916 28.0374C40.7605 27.5424 40.645 26.8144 40.645 25.8534C40.645 24.3973 40.8183 22.4171 41.1648 19.9126C41.6558 16.3307 42.2478 13.7826 42.9408 12.2683C43.6628 10.7249 44.6158 9.9532 45.7998 9.9532C46.4928 9.9532 46.9549 10.2007 47.1859 10.6958C47.4169 11.1617 47.5325 11.8752 47.5325 12.8362C47.5325 14.2923 47.3592 16.2725 47.0126 18.7769C46.5217 22.3588 45.9153 24.9215 45.1933 26.4649C44.5002 27.9792 43.5761 28.7363 42.421 28.7363C41.7279 28.7363 41.2515 28.5034 40.9916 28.0374ZM81.318 24.6485C80.6471 28.1195 79.8086 30.9549 78.7892 33.1318C77.7478 35.3556 76.2471 37.0664 74.2834 38.2304C72.3032 39.4336 69.7246 40 66.6106 40C63.9667 40 61.6392 39.5962 59.6479 38.7629C58.6148 38.3455 57.7806 37.7597 57.2059 36.9751C56.6255 36.1827 56.3507 35.2429 56.3507 34.1966C56.3507 32.7227 56.9084 31.5006 58.0295 30.6152C59.0791 29.7635 60.3527 29.3541 61.8024 29.3541C62.8081 29.3541 63.7521 29.5128 64.6268 29.8395L64.6339 29.8422L64.641 29.845C65.5686 30.2124 66.3362 30.7743 66.9195 31.5355L67.3186 32.0563L66.8767 32.5406C66.3086 33.1633 66.0847 33.7402 66.0847 34.2839C66.0847 34.6305 66.1723 34.9084 66.3337 35.1455C66.4602 35.3218 66.6308 35.4259 66.9572 35.4259C67.8033 35.4259 68.6648 34.8783 69.4732 33.2752C70.1288 31.9749 70.7446 29.9624 71.3061 27.2009C70.8128 27.5045 70.2765 27.7642 69.6992 27.9811C68.397 28.4809 67.0337 28.7301 65.6144 28.7301C63.4394 28.7301 61.6716 28.1239 60.4614 26.7823C59.2637 25.4547 58.7331 23.5392 58.7331 21.1794C58.7331 18.6381 59.3113 16.2429 60.4666 14.0049C61.6277 11.7556 63.2821 9.94858 65.4193 8.59389C67.5763 7.22663 70.0466 6.55226 72.805 6.55226C74.3568 6.55226 75.7332 6.78534 76.9128 7.27885L84.7619 6.4971L81.318 24.6485ZM76.7902 8.07488C75.6928 7.57982 74.3644 7.33229 72.805 7.33229C70.1771 7.33229 67.8524 7.97296 65.8309 9.25429C63.8095 10.5356 62.25 12.2392 61.1527 14.3651C60.0553 16.4909 59.5066 18.7623 59.5066 21.1794C59.5066 25.6932 61.5425 27.9501 65.6144 27.9501C66.9428 27.9501 68.2134 27.7171 69.4263 27.2512C70.2169 26.9545 70.9139 26.5752 71.5172 26.1133C71.8615 25.8497 72.1752 25.5592 72.4585 25.2418C72.3815 25.6904 72.3033 26.1246 72.2236 26.5443C71.6156 29.7481 70.9287 32.1096 70.1627 33.6287C69.2963 35.3469 68.2278 36.2059 66.9572 36.2059C66.4085 36.2059 65.9898 36.0021 65.701 35.5944C65.4411 35.2158 65.3111 34.779 65.3111 34.2839C65.3111 33.4977 65.6432 32.7405 66.3074 32.0125C65.8165 31.3718 65.1667 30.8913 64.3582 30.571C63.5784 30.2798 62.7265 30.1342 61.8024 30.1342C60.5029 30.1342 59.4055 30.4982 58.5103 31.2262C57.5862 31.9542 57.1242 32.9444 57.1242 34.1966C57.1242 36.0021 58.0627 37.2834 59.9398 38.0406C61.8169 38.8268 64.0405 39.22 66.6106 39.22C69.6429 39.22 72.0686 38.6667 73.8879 37.5601C75.7073 36.4826 77.1079 34.8955 78.0897 32.7987C79.0716 30.702 79.8946 27.9355 80.5588 24.4992L83.8076 7.37597L76.7902 8.07488ZM73.1516 19.2574L74.7976 10.5647C74.3067 10.157 73.6858 9.9532 72.935 9.9532C71.6932 9.9532 70.6969 10.6375 69.9461 12.0062C69.1952 13.3749 68.661 14.9912 68.3433 16.8549C68.0257 18.6895 67.8669 20.3931 67.8669 21.9657C67.8669 22.8102 67.9679 23.4654 68.1701 23.9314C68.4011 24.3682 68.8343 24.5866 69.4696 24.5866C71.26 24.5866 72.4874 22.8102 73.1516 19.2574ZM68.8655 23.5873C68.9264 23.6888 69.0537 23.8066 69.4696 23.8066C70.0594 23.8066 70.5964 23.5347 71.0982 22.8084C71.6211 22.0516 72.0678 20.8442 72.3914 19.1129L72.3918 19.1111L73.9402 10.9338C73.6683 10.805 73.3391 10.7332 72.935 10.7332C72.0483 10.7332 71.2774 11.1908 70.6229 12.3838C69.9217 13.662 69.4116 15.1919 69.1057 16.987L69.1053 16.9891C68.794 18.7872 68.6404 20.4454 68.6404 21.9657C68.6404 22.7391 68.7324 23.2616 68.8655 23.5873ZM109.362 28.8724C108.982 29.5623 108.394 30.1139 107.595 30.5273C106.527 31.0806 105.386 31.3573 104.173 31.3573C103.162 31.3573 102.253 31.1388 101.444 30.702C100.922 30.4288 100.509 30.064 100.207 29.6077C100.059 29.3831 99.9367 29.1363 99.8414 28.8674C99.6552 29.0702 99.4536 29.2614 99.2366 29.441C98.6124 29.9575 97.8611 30.3779 96.9825 30.702C95.8273 31.1388 94.5567 31.3573 93.1706 31.3573C90.7159 31.3573 88.9399 30.6292 87.8425 29.1732C86.774 27.7171 86.2398 25.5767 86.2398 22.752C86.2398 19.8107 86.774 17.1752 87.8425 14.8456C88.911 12.4867 90.456 10.6521 92.4775 9.34165C94.5278 8.00208 96.968 7.33229 99.7981 7.33229C101.589 7.33229 103.047 7.60894 104.173 8.16225L110.974 7.33229L107.855 23.975C107.711 24.7613 107.639 25.3729 107.639 25.8097C107.639 26.4212 107.812 26.9454 108.158 27.3822C108.359 27.6346 108.612 27.8238 108.918 27.9498C109.142 28.0419 109.394 28.1002 109.674 28.1248C109.594 28.3898 109.49 28.639 109.362 28.8724ZM104.299 7.36111L111.93 6.42986L108.616 24.1171C108.616 24.1177 108.615 24.1183 108.615 24.1189C108.474 24.8891 108.412 25.4448 108.412 25.8097C108.412 26.2617 108.536 26.6096 108.762 26.8949C108.95 27.1321 109.242 27.3039 109.741 27.3477L110.693 27.4312L110.414 28.3527C110.029 29.6249 109.181 30.5827 107.949 31.2212C106.77 31.8317 105.508 32.1373 104.173 32.1373C103.05 32.1373 102.014 31.8939 101.084 31.3921C100.481 31.0764 99.9917 30.6531 99.6235 30.1283C98.9462 30.6678 98.1519 31.1009 97.2511 31.4335C95.9998 31.9062 94.6369 32.1373 93.1706 32.1373C90.5661 32.1373 88.5182 31.3588 87.2267 29.6451L87.2207 29.6372C86.0123 27.9905 85.4663 25.6564 85.4663 22.752C85.4663 19.7148 86.0183 16.9656 87.1397 14.5197C88.2651 12.0362 89.9041 10.0829 92.058 8.68626C94.2523 7.25303 96.8435 6.55226 99.7981 6.55226C101.556 6.55226 103.069 6.80781 104.299 7.36111ZM100.572 10.9192L100.55 10.9116C100.179 10.787 99.8581 10.7332 99.5815 10.7332C99.0332 10.7332 98.5543 10.9366 98.1126 11.4012C97.6834 11.8836 97.235 12.7799 96.8137 14.1961L96.8125 14.2002C96.3958 15.5729 95.9983 17.5089 95.6252 20.0264C95.2815 22.3949 95.1136 24.3191 95.1136 25.8097C95.1136 26.6574 95.2097 27.2083 95.3434 27.5299C95.407 27.6488 95.5361 27.7816 95.9862 27.7816C96.6883 27.7816 97.2616 27.4511 97.7315 26.5745L97.7349 26.5681C98.2941 25.5478 98.7025 24.3501 98.95 22.9644C98.95 22.964 98.9501 22.9636 98.9502 22.9632L101.03 11.0914C100.904 11.0258 100.76 10.9697 100.595 10.9253L100.572 10.9192ZM101.877 10.7395L99.7115 23.1014C99.4516 24.5575 99.0184 25.8388 98.4119 26.9454C97.8344 28.0229 97.0258 28.5616 95.9862 28.5616C95.322 28.5616 94.8744 28.3287 94.6433 27.8627C94.4412 27.3968 94.3401 26.7124 94.3401 25.8097C94.3401 24.2662 94.5134 22.3006 94.8599 19.9126C95.2353 17.3791 95.6396 15.3989 96.0728 13.9719C96.506 12.5159 96.9969 11.4821 97.5456 10.8705C98.1232 10.259 98.8018 9.9532 99.5815 9.9532C99.9569 9.9532 100.361 10.026 100.794 10.1716C101.228 10.2881 101.589 10.4774 101.877 10.7395ZM139.873 10.752L140.221 9.97987C140.599 9.14162 140.801 8.12073 140.801 6.89547C140.801 5.84774 140.605 5.20363 140.336 4.83695C140.099 4.51419 139.736 4.31201 139.106 4.31201C138.211 4.31201 137.39 4.66138 136.621 5.43768C135.881 6.18367 135.548 6.9817 135.548 7.85647C135.548 8.42428 135.701 8.91938 136.007 9.36476C136.386 9.87149 136.84 10.3179 137.373 10.7043C137.987 11.0977 138.843 11.6072 139.946 12.2348C140.315 12.4219 140.847 12.7206 141.531 13.1234L141.534 13.1252C143.204 14.1175 144.538 15.2057 145.506 16.4012C146.566 17.673 147.07 19.2723 147.07 21.1357C147.07 23.3921 146.323 25.3808 144.842 27.0666C143.416 28.722 141.527 29.9824 139.205 30.8641L139.197 30.8673C136.882 31.7159 134.41 32.1373 131.785 32.1373C129.417 32.1373 127.335 31.7294 125.563 30.8828C124.615 30.4301 123.872 29.775 123.374 28.9101C122.878 28.051 122.651 27.0342 122.651 25.897C122.651 24.2653 123.16 22.868 124.212 21.7724C125.283 20.6575 126.729 20.1373 128.45 20.1373C129.585 20.1373 130.701 20.3443 131.795 20.754L132.532 21.0301L132.246 21.7688C131.82 22.8683 131.606 24.0385 131.606 25.2855C131.606 26.2253 131.767 26.8138 131.987 27.155C132.163 27.3925 132.522 27.6069 133.301 27.6069C134.263 27.6069 135.073 27.3253 135.766 26.7711L135.771 26.7671L135.776 26.7632C136.456 26.2373 136.773 25.5901 136.773 24.7613C136.773 23.9197 136.459 23.2296 135.785 22.6438L135.774 22.6344L135.764 22.6246C135.015 21.9231 133.856 21.0972 132.259 20.1478L132.253 20.1444L130.902 19.3094C129.256 18.2832 127.937 17.1471 126.972 15.8912C125.951 14.5633 125.467 12.9143 125.467 11.0016C125.467 8.82123 126.129 6.87407 127.452 5.19034C128.761 3.49418 130.54 2.20944 132.756 1.32188L132.759 1.32054C134.998 0.435732 137.478 0 140.189 0C142.638 0 144.765 0.406271 146.541 1.25449C147.478 1.70209 148.219 2.33165 148.721 3.15713C149.222 3.98039 149.452 4.94732 149.452 6.02184C149.452 7.73857 148.85 9.14691 147.594 10.1321C146.409 11.0621 145.011 11.5195 143.438 11.5195C142.483 11.5195 141.558 11.3588 140.665 11.0372L139.873 10.752ZM131.352 27.6006C131.005 27.0764 130.832 26.3047 130.832 25.2855C130.832 24.0616 131.025 22.8985 131.411 21.7962C131.447 21.692 131.485 21.5883 131.525 21.4852C131.281 21.3935 131.035 21.313 130.789 21.2435C130.017 21.026 129.238 20.9173 128.45 20.9173C126.89 20.9173 125.663 21.3833 124.768 22.3151C123.873 23.247 123.425 24.441 123.425 25.897C123.425 27.9646 124.248 29.3916 125.894 30.1779C127.54 30.9641 129.504 31.3573 131.785 31.3573C134.326 31.3573 136.709 30.9496 138.933 30.1342C141.156 29.2897 142.932 28.0957 144.261 26.5523C145.618 25.0088 146.296 23.2033 146.296 21.1357C146.296 19.4176 145.834 18.0052 144.91 16.8986C144.015 15.792 142.759 14.7582 141.142 13.7972C140.449 13.3895 139.929 13.0983 139.582 12.9236C138.456 12.2829 137.575 11.7587 136.94 11.351C136.333 10.9142 135.814 10.4046 135.381 9.82215C134.976 9.23973 134.774 8.5845 134.774 7.85647C134.774 6.74987 135.207 5.75975 136.074 4.88611C136.969 3.98336 137.98 3.53198 139.106 3.53198C140.752 3.53198 141.575 4.65315 141.575 6.89547C141.575 7.88866 141.45 8.78148 141.202 9.57393C141.122 9.82708 141.03 10.07 140.925 10.3027C141.171 10.3914 141.42 10.4666 141.672 10.5283C142.247 10.6691 142.835 10.7395 143.438 10.7395C144.853 10.7395 146.08 10.3318 147.119 9.51638C148.159 8.70099 148.679 7.53614 148.679 6.02184C148.679 4.09984 147.856 2.74571 146.21 1.95944C144.564 1.17317 142.557 0.780031 140.189 0.780031C137.561 0.780031 135.178 1.20229 133.041 2.0468C130.933 2.89131 129.273 4.09984 128.06 5.67239C126.847 7.21581 126.241 8.9922 126.241 11.0016C126.241 12.7779 126.688 14.2486 127.583 15.4134C128.479 16.5783 129.72 17.6557 131.309 18.6459L132.652 19.4758C134.269 20.4368 135.482 21.2959 136.29 22.053C137.128 22.7811 137.546 23.6838 137.546 24.7613C137.546 25.8388 137.113 26.7124 136.247 27.3822C135.409 28.052 134.428 28.3869 133.301 28.3869C132.377 28.3869 131.727 28.1248 131.352 27.6006ZM163.888 8.20593H167.266L166.877 10.1716H163.541L160.942 23.975C160.798 24.7613 160.725 25.3729 160.725 25.8097C160.725 26.4212 160.899 26.9454 161.245 27.3822C161.446 27.6346 161.699 27.8238 162.005 27.9498C162.229 28.0419 162.481 28.1002 162.761 28.1248C162.681 28.3898 162.577 28.639 162.449 28.8724C162.069 29.5623 161.481 30.1139 160.682 30.5273C159.643 31.0806 158.473 31.3573 157.173 31.3573C155.672 31.3573 154.459 30.9787 153.535 30.2215C152.64 29.4353 152.192 28.3141 152.192 26.858C152.192 25.4602 152.654 22.4316 153.578 17.7722L153.795 16.6802L155.051 10.1716H152.495L152.668 8.86115C156.134 7.81279 159.541 6.00728 162.891 3.44462H164.927L163.888 8.20593ZM154.112 10.9516H151.612L151.968 8.25876L152.446 8.11402C155.81 7.0964 159.136 5.33848 162.424 2.82317L162.631 2.66459H165.89L164.85 7.42589H168.21L167.511 10.9516H164.182L161.703 24.1171C161.703 24.1174 161.703 24.1177 161.702 24.1181C161.561 24.8887 161.499 25.4447 161.499 25.8097C161.499 26.2617 161.623 26.6096 161.849 26.8949C162.037 27.1321 162.329 27.3039 162.828 27.3477L163.78 27.4312L163.501 28.3527C163.116 29.6236 162.27 30.5809 161.039 31.2193C159.878 31.8364 158.584 32.1373 157.173 32.1373C155.542 32.1373 154.142 31.7239 153.047 30.8269L153.037 30.8185L153.027 30.8097C151.927 29.8436 151.418 28.4865 151.418 26.858C151.418 25.3679 151.9 22.2587 152.82 17.6193L153.035 16.5312L153.036 16.5272L154.112 10.9516ZM184.917 30.0993L184.914 30.1008C182.694 31.4691 180.08 32.1373 177.104 32.1373C173.904 32.1373 171.364 31.3106 169.631 29.5217C167.901 27.7362 167.104 25.1246 167.104 21.8346C167.104 18.9894 167.675 16.4056 168.833 14.0999L168.835 14.0963C170.027 11.754 171.745 9.91184 173.979 8.58415C176.225 7.21982 178.85 6.55226 181.825 6.55226C184.95 6.55226 187.444 7.35543 189.168 9.0905C190.934 10.8089 191.739 13.4111 191.739 16.7239C191.739 19.5693 191.168 22.166 190.011 24.4986C188.849 26.8429 187.146 28.7134 184.917 30.0993ZM174.375 9.25429C172.267 10.5065 170.65 12.2392 169.523 14.4524C168.426 16.6365 167.877 19.0972 167.877 21.8346C167.877 28.183 170.953 31.3573 177.104 31.3573C179.963 31.3573 182.432 30.7166 184.511 29.4353C186.619 28.1248 188.222 26.363 189.319 24.1498C190.417 21.9366 190.965 19.4613 190.965 16.7239C190.965 13.5205 190.186 11.1617 188.626 9.64742C187.096 8.104 184.829 7.33229 181.825 7.33229C178.966 7.33229 176.483 7.97296 174.375 9.25429ZM177.264 20.0194L177.263 20.0204C176.919 22.511 176.751 24.4502 176.751 25.8534C176.751 26.7486 176.859 27.3326 177.011 27.6769C177.096 27.8146 177.267 27.9563 177.754 27.9563C178.481 27.9563 179.194 27.5138 179.824 26.138L179.826 26.1321C180.495 24.703 181.09 22.241 181.579 18.6701L181.579 18.6691C181.924 16.1785 182.091 14.2393 182.091 12.8362C182.091 11.9105 181.976 11.3453 181.827 11.0446L181.822 11.0363L181.819 11.0279C181.771 10.9268 181.713 10.8693 181.636 10.8277C181.547 10.7801 181.392 10.7332 181.132 10.7332C180.372 10.7332 179.631 11.1952 178.974 12.5983C178.333 14.0007 177.753 16.4488 177.264 20.0194ZM176.324 28.0374C176.093 27.5424 175.978 26.8144 175.978 25.8534C175.978 24.3973 176.151 22.4171 176.497 19.9126C176.988 16.3307 177.58 13.7826 178.273 12.2683C178.995 10.7249 179.948 9.9532 181.132 9.9532C181.825 9.9532 182.287 10.2007 182.518 10.6958C182.749 11.1617 182.865 11.8752 182.865 12.8362C182.865 14.2923 182.692 16.2725 182.345 18.7769C181.854 22.3588 181.248 24.9215 180.526 26.4649C179.833 27.9792 178.909 28.7363 177.754 28.7363C177.06 28.7363 176.584 28.5034 176.324 28.0374ZM204.586 11.6131C204.883 11.0367 205.228 10.5186 205.621 10.0586C207.173 8.24106 209.471 7.33229 212.513 7.33229C216.671 7.33229 218.75 9.03588 218.75 12.4431C218.75 13.3167 218.635 14.3505 218.404 15.5445C218.173 16.7093 217.855 18.1217 217.451 19.7816C217.075 21.2959 216.801 22.5044 216.628 23.4072C216.454 24.2808 216.368 25.0234 216.368 25.6349C216.368 26.8147 216.796 27.581 217.653 27.9339C217.874 28.0252 218.125 28.0889 218.404 28.1248C218.324 28.3874 218.221 28.6345 218.094 28.8661C217.715 29.5589 217.125 30.1126 216.325 30.5273C215.256 31.0806 214.086 31.3573 212.816 31.3573C211.314 31.3573 210.101 30.9787 209.177 30.2215C208.282 29.4353 207.834 28.3141 207.834 26.858C207.834 26.13 207.921 25.2709 208.094 24.2808C208.296 23.2907 208.614 21.8638 209.047 20C209.452 18.2818 209.769 16.8549 210 15.7192C210.231 14.5835 210.347 13.6225 210.347 12.8362C210.347 11.4093 209.841 10.6958 208.831 10.6958C207.762 10.6958 206.925 11.3219 206.318 12.5741C205.741 13.7972 205.264 15.3406 204.889 17.2044L202.333 30.4836L193.67 31.3573L198.175 8.20593L205.279 7.33229L204.586 11.6131ZM205.648 17.3552C205.647 17.3567 205.647 17.3582 205.647 17.3596L202.983 31.202L192.71 32.2379L197.524 7.50017L206.208 6.43217L205.835 8.73635C207.505 7.26955 209.754 6.55226 212.513 6.55226C214.677 6.55226 216.443 6.99228 217.679 8.00459C218.945 9.04208 219.524 10.5715 219.524 12.4431C219.524 13.382 219.4 14.4683 219.163 15.6938L219.162 15.6974C218.928 16.877 218.608 18.3011 218.202 19.9676L218.201 19.9708C217.827 21.4794 217.557 22.6726 217.387 23.5554L217.386 23.5602C217.219 24.404 217.141 25.0922 217.141 25.6349C217.141 26.2649 217.285 26.6448 217.474 26.8751C217.655 27.0972 217.961 27.2815 218.502 27.3511L219.412 27.4682L219.144 28.3527C218.758 29.6249 217.911 30.5827 216.678 31.2212C215.494 31.8344 214.202 32.1373 212.816 32.1373C211.184 32.1373 209.784 31.7239 208.689 30.8269L208.679 30.8185L208.669 30.8097C207.569 29.8436 207.061 28.4865 207.061 26.858C207.061 26.0711 207.154 25.1646 207.332 24.1453L207.334 24.1344L207.337 24.1235C207.541 23.1229 207.86 21.6877 208.294 19.822L208.295 19.8199C208.698 18.106 209.014 16.6875 209.242 15.5624C209.467 14.4565 209.573 13.5514 209.573 12.8362C209.573 12.192 209.455 11.849 209.338 11.6843C209.256 11.5679 209.133 11.4758 208.831 11.4758C208.149 11.4758 207.536 11.8382 207.014 12.9141C206.474 14.0604 206.015 15.5353 205.648 17.3552ZM241.958 18.5883L241.955 18.5897C239.937 19.9888 237 20.7461 233.245 20.9534C232.876 20.9766 232.352 20.9905 231.681 20.9959C231.65 21.3485 231.635 21.7008 231.635 22.053C231.635 23.2337 231.889 23.9766 232.264 24.4192C232.603 24.792 233.248 25.0733 234.413 25.0733C235.455 25.0733 236.474 24.8508 237.476 24.3987L237.483 24.3957C238.503 23.9475 239.208 23.3653 239.657 22.6739L240.065 22.0468L240.702 22.4325C241.692 23.0312 242.161 24.0063 242.161 25.1981C242.161 26.636 241.627 27.915 240.608 29.0083L240.604 29.0127L240.6 29.017C239.6 30.0579 238.285 30.8297 236.692 31.3553C235.136 31.878 233.494 32.1373 231.771 32.1373C228.743 32.1373 226.287 31.3097 224.515 29.555L224.51 29.55L224.505 29.5449C222.752 27.7449 221.944 25.111 221.944 21.791C221.944 19.0597 222.502 16.5378 223.627 14.2384C224.762 11.9173 226.467 10.0611 228.724 8.67672C231.038 7.24578 233.842 6.55226 237.099 6.55226C239.581 6.55226 241.583 7.00536 242.981 8.03473C244.423 9.0974 245.106 10.6869 245.106 12.6615C245.106 15.1426 244.033 17.1391 241.958 18.5883ZM229.128 9.34165C226.992 10.6521 225.389 12.3994 224.32 14.5835C223.252 16.7676 222.718 19.17 222.718 21.791C222.718 24.9943 223.497 27.3968 225.057 28.9984C226.645 30.571 228.883 31.3573 231.771 31.3573C233.417 31.3573 234.976 31.1097 236.449 30.6147C237.951 30.1196 239.149 29.4061 240.044 28.4743C240.94 27.5133 241.387 26.4212 241.387 25.1981C241.387 24.5507 241.223 24.0222 240.896 23.6127C240.776 23.4631 240.635 23.3294 240.471 23.2115C240.418 23.1731 240.362 23.1364 240.304 23.1014C239.756 23.9459 238.918 24.6157 237.792 25.1108C236.695 25.6058 235.568 25.8534 234.413 25.8534C233.143 25.8534 232.233 25.5476 231.684 24.936C231.136 24.2954 230.861 23.3344 230.861 22.053C230.861 21.4415 230.905 20.83 230.991 20.2184C232.002 20.2184 232.738 20.2038 233.2 20.1747C236.897 19.9709 239.669 19.2283 241.517 17.947C243.394 16.6365 244.333 14.8747 244.333 12.6615C244.333 9.10868 241.922 7.33229 237.099 7.33229C233.951 7.33229 231.294 8.00208 229.128 9.34165ZM233.951 12.1435C233.274 13.2988 232.69 15.07 232.228 17.5072C233.567 17.3487 234.614 16.836 235.419 16.0044C236.414 14.9761 236.932 13.638 236.932 11.9189C236.932 11.2228 236.822 10.7972 236.687 10.5586C236.629 10.4553 236.524 10.3401 236.146 10.3401C235.517 10.3401 234.768 10.7719 233.951 12.1435ZM232.085 18.306C233.681 18.1639 234.977 17.5783 235.973 16.5491C237.128 15.3552 237.705 13.8118 237.705 11.9189C237.705 11.1617 237.59 10.5793 237.359 10.1716C237.128 9.76391 236.723 9.56006 236.146 9.56006C235.106 9.56006 234.153 10.2881 233.287 11.7441C232.525 13.043 231.906 14.9813 231.431 17.559C231.384 17.8132 231.338 18.0735 231.294 18.3401C231.565 18.3401 231.829 18.3287 232.085 18.306ZM53.2937 9.64742C51.7631 8.104 49.4962 7.33229 46.4928 7.33229C43.6339 7.33229 41.1504 7.97296 39.0423 9.25429C36.9342 10.5065 35.317 12.2392 34.1907 14.4524C33.0934 16.6365 32.5447 19.0972 32.5447 21.8346C32.5447 28.183 35.6202 31.3573 41.7713 31.3573C44.6302 31.3573 47.0993 30.7166 49.1785 29.4353C51.2866 28.1248 52.8894 26.363 53.9867 24.1498C55.0841 21.9366 55.6328 19.4613 55.6328 16.7239C55.6328 13.5205 54.8531 11.1617 53.2937 9.64742Z" fill="#979E8A"/>
</g>
<defs>
<filter id="filter0_b_956_10299" x="-10" y="-10" width="265.106" height="60" filterUnits="userSpaceOnUse" color-interpolation-filters="sRGB">
<feFlood flood-opacity="0" result="BackgroundImageFix"/>
<feGaussianBlur in="BackgroundImageFix" stdDeviation="5"/>
<feComposite in2="SourceAlpha" operator="in" result="effect1_backgroundBlur_956_10299"/>
<feBlend mode="normal" in="SourceGraphic" in2="effect1_backgroundBlur_956_10299" result="shape"/>
</filter>
</defs>
</svg>
