<svg width="40" height="40" viewBox="0 0 40 40" fill="none" xmlns="http://www.w3.org/2000/svg">
<path d="M13.1824 37.4871C12.9485 37.4871 12.7593 37.6776 12.7593 37.9102C12.7593 38.1449 12.9485 38.3333 13.1824 38.3333C17.4403 38.3333 21.0258 35.3981 22.021 31.4408C21.7664 31.2741 21.5183 31.0893 21.28 30.8926C20.5032 34.6531 17.1684 37.4871 13.1824 37.4871Z" fill="#213F2E"/>
<path d="M32.8953 17.9901C32.622 17.7165 32.3227 17.4574 32.0049 17.2191C31.8762 17.1232 31.7993 16.9737 31.7993 16.8132C31.7993 16.6536 31.8762 16.5024 32.0049 16.4065C32.3227 16.1673 32.622 15.9083 32.8961 15.6364C34.4409 14.089 35.2933 12.0349 35.2933 9.84828C35.2933 7.66382 34.4409 5.60935 32.8953 4.06462C31.3497 2.51813 29.2952 1.66663 27.1089 1.66663C24.9245 1.66663 22.8687 2.51813 21.3226 4.06285C21.0499 4.33652 20.7917 4.63715 20.5525 4.95503C20.4557 5.08279 20.3053 5.15795 20.1466 5.15795C19.9861 5.15795 19.8349 5.08279 19.7386 4.95503C19.5003 4.63715 19.2407 4.3374 18.9689 4.06462C17.4237 2.51813 15.367 1.66663 13.1825 1.66663C10.9963 1.66663 8.94184 2.51813 7.39578 4.06285C5.8515 5.60935 5 7.66338 5 9.85005C5 12.0345 5.8515 14.089 7.39578 15.6364C7.66945 15.9083 7.96832 16.1673 8.28884 16.4065C8.41529 16.5007 8.49133 16.6519 8.49133 16.8132C8.49133 16.9737 8.41529 17.1223 8.28884 17.2191C7.96832 17.4592 7.66989 17.7182 7.39578 17.9901C5.8515 19.5349 5 21.5898 5 23.7764C5 25.9631 5.8515 28.0171 7.39578 29.5619C8.94184 31.1075 10.9963 31.959 13.1825 31.959C15.3688 31.959 17.4237 31.1075 18.9689 29.5619C19.243 29.2882 19.5016 28.9885 19.7394 28.6706C19.8349 28.5437 19.9861 28.4677 20.1466 28.4677C20.3053 28.4677 20.4557 28.5437 20.5525 28.6706C20.7917 28.9885 21.0499 29.2878 21.3226 29.5619C21.3589 29.5999 21.3987 29.637 21.4376 29.6742C21.6883 29.916 21.9522 30.1397 22.2259 30.3444C23.6318 31.3926 25.3268 31.959 27.1089 31.959C29.2952 31.959 31.3497 31.1075 32.8961 29.5619C33.5394 28.9186 34.0545 28.1834 34.4462 27.3907V31.4523C34.4462 31.6849 34.6363 31.8745 34.8702 31.8745C35.1032 31.8745 35.2933 31.6849 35.2933 31.4523V23.9334C35.2933 23.9228 35.288 23.9135 35.2871 23.9033C35.2875 23.8609 35.2933 23.8193 35.2933 23.7769C35.2933 21.5902 34.4409 19.5349 32.8953 17.9901ZM22.2144 17.2191C21.8943 17.4592 21.5959 17.7182 21.3226 17.9901C21.0481 18.2647 20.7899 18.5644 20.5525 18.8814C20.4557 19.0092 20.3053 19.0852 20.1466 19.0852C19.9861 19.0852 19.8349 19.0092 19.7386 18.8814C19.5016 18.5644 19.243 18.2647 18.9689 17.9901C18.6961 17.7165 18.3968 17.4574 18.0767 17.2191C17.9498 17.1232 17.8738 16.9737 17.8738 16.8132C17.8738 16.6536 17.9498 16.5024 18.0767 16.4065C18.3968 16.1673 18.6956 15.9083 18.9689 15.6364C19.243 15.3627 19.5016 15.0629 19.7394 14.7442C19.8349 14.6155 19.9861 14.5413 20.1466 14.5413C20.3053 14.5413 20.4557 14.6155 20.5525 14.7442C20.7917 15.0629 21.0499 15.3618 21.3226 15.6364C21.5954 15.9083 21.8965 16.1673 22.2144 16.4065C22.3435 16.5007 22.4177 16.6519 22.4177 16.8132C22.4173 16.9737 22.3435 17.1223 22.2144 17.2191Z" fill="#213F2E"/>
</svg>
