<svg width="24" height="24" viewBox="0 0 24 24" fill="none" xmlns="http://www.w3.org/2000/svg">
<path d="M20.5303 8.53033C20.8232 8.23744 20.8232 7.76256 20.5303 7.46967C20.2374 7.17678 19.7626 7.17678 19.4697 7.46967L20.5303 8.53033ZM4.53033 7.46967C4.23744 7.17678 3.76256 7.17678 3.46967 7.46967C3.17678 7.76256 3.17678 8.23744 3.46967 8.53033L4.53033 7.46967ZM11.2929 15.2929L11.8232 14.7626L11.2929 15.2929ZM19.4697 7.46967L12.1768 14.7626L13.2374 15.8232L20.5303 8.53033L19.4697 7.46967ZM11.8232 14.7626L4.53033 7.46967L3.46967 8.53033L10.7626 15.8232L11.8232 14.7626ZM12.1768 14.7626C12.0791 14.8602 11.9209 14.8602 11.8232 14.7626L10.7626 15.8232C11.446 16.5066 12.554 16.5066 13.2374 15.8232L12.1768 14.7626Z" fill="#FDF1E8"/>
</svg>
